<?xml version="1.0" encoding="UTF-8"?>
<!-- Created with Inkscape (http://www.inkscape.org/) -->
<svg width="800" height="555" version="1.1" viewBox="0 0 800 555" xmlns="http://www.w3.org/2000/svg">
 <g transform="matrix(3.7795 0 0 3.7796 -.004527 0)">
  <path d="m0.0011978 146.84h211.67v-146.84h-211.67z" fill="#fff" opacity=".57001" stroke-width=".070005"/>
  <path d="m145.95 21.484c-0.0579-0.17476-0.16994-0.30613-0.22056-0.48692-0.0554-0.19284-0.13379-0.37122-0.19887-0.55924-0.12293-0.35073-0.45317-0.68699-0.28323-1.0654 0.0723-0.1615 0.18078-0.28564 0.29528-0.41943 0.0856-0.09883 0.22659-0.17235 0.25431-0.30854 0.0109-0.06387 0.0168-0.24226 0-0.30975-0.0192-0.07473-0.13137-0.13258-0.1844-0.17958-0.14223-0.12294-0.27842-0.21333-0.43871-0.31337-0.51826-0.32662-1.0582-0.5737-1.6367-0.77257-0.24708-0.08558-0.47367-0.20248-0.69663-0.33747-0.0627-0.03856-0.135-0.07955-0.18441-0.13378-0.0554-0.06629-0.0965-0.14102-0.12294-0.22418-0.0989-0.14825-0.21091-0.28564-0.33626-0.41461-0.3423-0.41702-0.65928-0.8955-1.2294-1.0028-0.66651-0.12534-1.3354-0.14222-2.014-0.1374-0.43148 0.0012-0.81355-0.11691-1.227-0.24828-0.4351-0.1374-0.88104-0.23864-1.3173-0.3676-0.30855-0.0928-0.61829-0.1145-0.93648-0.12294-0.32784-0.01085-0.64601-0.06508-0.97747-0.06268-1.0172 0.0024-2.0248-0.01687-3.0408 0.07352-0.68337 0.06267-1.3342 0.1145-2.0212 0.10968-0.47969-0.0036-0.94853 0.06629-1.4282 0.06629-0.38447-0.0012-0.72435-0.02772-1.0932-0.12655-0.49536-0.13499-0.9859-0.12535-1.4945-0.12294-0.47969 0-0.9642-0.02531-1.4427 0.02772-0.44473 0.04821-0.87742 0.16392-1.3246 0.20489-0.56647 0.04942-1.1112 0.14584-1.6729 0.24708-0.26998 0.04821-0.53995 0.08677-0.80993 0.13378-0.58455 0.09883-1.1522 0.27841-1.738 0.37724-0.64844 0.11088-1.2703 0.18681-1.9308 0.18199-0.60263-0.0036-1.204 0-1.8055-0.0012-0.67614 0-1.3414 0.04701-2.014 0.06388-0.29769 0.0085-0.59659-0.01085-0.89429-6e-3 -0.40858 0.0085-0.81354 0.06267-1.2233 0.0687-0.69543 0.01084-1.3921-0.0024-2.0875-0.0024-0.65806 0-1.3258 0.03254-1.9826-0.03013-0.50017-0.047-0.98951-0.14102-1.4873-0.20369-0.63757-0.07955-1.274-0.10004-1.9176-0.06267-0.78221 0.04459-1.5644 0.10486-2.3466 0.15909-0.18199 0.01446-0.36037 0.01687-0.54236 0.01567-0.0711-0.0012-0.1832-0.0229-0.25552 0.0073-0.16753 0.0699-0.28926 0.23502-0.4821 0.28685-0.23984 0.06749-0.45197 0.0928-0.68338 0.19887-0.13499 0.06147-0.27842 0.06387-0.42304 0.08919-0.20369 0.03496-0.40255 0.08677-0.60504 0.12776-0.37604 0.07473-0.75087 0.12896-1.1329 0.16753-0.61347 0.05786-1.2257 0.0928-1.8404 0.12535-0.54598 0.01085-1.0908 0.02893-1.6367 0.03254-2.0019 0.01206-4.0039-0.01566-6.0058-0.04821-0.04339-0.01928-0.08798-0.03013-0.13378-0.05183-0.25672-0.12052-0.55924-0.2061-0.83404-0.26034-0.40979-0.08196-0.87502-0.17235-1.2932-0.18681-0.32903-0.01084-0.65807 0.0036-0.9859 0.0036h-0.47969c-0.09642 0-0.21454-0.01928-0.31096-0.0036-0.0916 0.01326-0.16874 0.05544-0.26154 0.0687-0.25672 0.03013-0.5267-0.02652-0.781-0.05183-0.44353-0.04339-0.85453 0.0048-1.2872 0.08678-0.72195 0.13499-1.5174 0.12414-2.2357-0.03857-0.24105-0.05665-0.4363-0.13378-0.68458-0.11209-0.31337 0.02772-0.62673 0.04098-0.93889 0.06388-0.37001 0.02772-0.73641 0.10847-1.1076 0.1145-0.74967 0.01206-1.4861-0.0048-2.2261 0.10486-0.52911 0.07834-1.0498 0.06026-1.5849 0.07111-0.38809 0.0085-0.77618 0.09763-1.1643 0.12052-0.35796 0.01928-0.68338 0.07352-1.0293 0.16392-0.25069 0.06388-0.36881 0.12655-0.57008 0.32301-0.17958 0.17235-0.33144 0.33988-0.46523 0.54598-0.34711 0.53875-1.0317 0.63276-1.5921 0.84247-0.25672 0.09642-0.4821 0.20971-0.71954 0.33988-0.15548 0.08557-0.21212 0.16392-0.31698 0.30493-0.15789 0.2073-0.38809 0.39894-0.46161 0.65686-0.05665 0.20248 0.04218 0.39171 0.07352 0.59419 0.03736 0.23623-0.01687 0.43871-0.04218 0.67132-0.03134 0.28685 0.0458 0.54236 0.05906 0.8256 0.01566 0.2977-0.03013 0.58455 0.05062 0.87863 0.04218 0.15668 0.10365 0.27359 0.18922 0.40496 0.1145 0.17838 0.37483 0.39532 0.43269 0.60022 0.05062 0.19164-6e-3 0.43269 0 0.62794 0.0097 0.26516 0.14101 0.49536-0.0048 0.73882-0.16271 0.27118-0.39291 0.48572-0.55562 0.75087-0.11209 0.18079-0.17356 0.36399-0.06027 0.56044 0.26636 0.458 0.70507 0.87984 0.60986 1.4523-0.03616 0.21936-0.07955 0.44594-0.11691 0.66892-0.04218 0.26516-0.0229 0.53875-0.08196 0.79667-0.0229 0.10486-0.04218 0.19164-0.10606 0.27962-0.07111 0.10124-0.19405 0.18079-0.24467 0.29649-0.08436 0.19405 0.05786 0.14463 0.1832 0.27239 0.10606 0.10847 0.07231 0.28323 0.07352 0.41461 0.0024 0.35676-0.10365 0.61588-0.2977 0.92202-0.09401 0.14945-0.15186 0.21212-0.1386 0.38689 0.01808 0.2302 0.12294 0.42425 0.17717 0.6412 0.04218 0.16753-0.0036 0.34832 0.0073 0.52067 0.0085 0.1145 0.05424 0.21092 0.0687 0.32301s-0.0036 0.23502-0.0036 0.34832c0 0.77498 0.12294 1.7416 0.92322 2.1092 1.5584 0.71713 3.3193 0.36158 4.9681 0.36881 0.85573 0.0024 1.7151-0.02411 2.5696 0.0036 0.33024 0.01085 0.65928 0.06027 0.98951 0.06508 0.41822 0.0048 0.83283-0.07111 1.245-0.11811 0.70507-0.07834 1.4029-0.25431 2.1116-0.30131 1.5704 0.04701 3.1409 0.06629 4.715 0.01687 0.87501-0.02531 1.75-0.06629 2.625-0.09763 0.30493-0.0036 0.61106 0.0012 0.91479-0.01446 0.86296-0.04459 1.7078-0.06267 2.5696-0.0036 1.2571 0.08558 2.513 0.07714 3.7736 0.07834 0.1844 0 0.42184 0.03134 0.60865-0.0085 0.15186-0.03255 0.2989-0.09883 0.44956-0.13981 0.28082-0.07714 0.52188-0.21212 0.79306-0.28806 0.28324-0.01325 0.56768-0.02652 0.85091-0.04097 0.89791 0.04942 1.7717 0.27118 2.672 0.34229 0.68217 0.05544 1.3463-0.09883 2.014-0.22538 0.28323-0.05665 0.54116-0.0699 0.82801-0.07834 0.52428-0.01085 1.045-0.12414 1.5656-0.18079 1.1751-0.12414 2.3539-0.16994 3.5302-0.2302 0.7123-0.03616 1.4089 0.0085 2.1176 0.04942 0.54598 0.03013 1.092 0.12294 1.6416 0.12535 0.33869 0.0012 0.6412 0.06267 0.97746 0.10968 0.35556 0.04942 0.75208 0.01928 1.1088 0.01446 0.41701-6e-3 0.8256-0.04942 1.239-0.08919 1.4836-0.14343 2.983-0.14463 4.4341-0.51705 0.71592-0.1832 1.4584-0.23261 2.1851-0.37001 0.22539-0.04339 0.44595-0.07834 0.66893-0.11691 1.3053-0.02169 2.6094-0.05062 3.9134-0.08798 0.035 0 0.0723 6e-3 0.10727 6e-3 0.98951-6e-3 1.9959-0.06027 2.9734 0.12052 0.23261 0.04098 0.44353 0.12173 0.68217 0.12896 0.22177 0.0073 0.44474-6e-3 0.66651-0.0036 0.49054 0.0036 0.96902-0.06629 1.4584-0.06026 0.57491 6e-3 1.1462-0.08558 1.7078-0.20007 0.63878-0.12896 1.2788-0.24105 1.9176-0.37483 0.25913-0.05303 0.48451-0.03134 0.74846-0.04098 0.19766-0.0085 0.38689-0.06146 0.58334-0.0687 0.0759-0.0024 0.16874 0.01928 0.24347 0.0073 0.10124-0.01808 0.15788-0.06027 0.26756-0.06749 0.1-0.0048 0.18199 0.0085 0.2772-0.01085 0.1121-0.0229 0.19044-0.07714 0.32422-0.03496 8e-3 0.03736-0.0109 0.05424-0.11932 0.10847 0.1145 0.01687 0.19043-0.01808 0.2965-0.04339 0.1627-0.03856 0.32541-0.05183 0.48933-0.07473 0.68218-0.09883 1.3848-0.25069 2.0489-0.43871 0.21213-0.06027 0.35555-0.1145 0.44956-0.31698 0.0338-0.07352 0.047-0.15307 0.10245-0.21574 0.13619-0.10365 0.28323-0.19043 0.43871-0.26034 0.22417-0.1145 0.44956-0.23141 0.67253-0.34832 0.17115-0.0928 0.40737-0.20851 0.5737-0.33144 0.12173-0.08798 0.1-0.13619 0.15789-0.25551 0.0723-0.14704 0.21453-0.27118 0.33868-0.37483 0.2314-0.19164 0.505-0.35917 0.7798-0.47849 0.1615-0.0699 0.3471-0.11812 0.50017-0.2061 0.27119-0.15548 0.53996-0.46282 0.6858-0.74485 0.15547-0.30131-0.0217-0.68458 0.0952-1.0004 0.0795-0.21574 0.27721-0.47366 0.46764-0.60142 0.23984-0.16271 0.39773-0.30975 0.4821-0.58696 0.0446-0.14704 0.0627-0.2748 0.0603-0.43028-4e-3 -0.21815 0.0567-0.41822 0.0651-0.63517 0.018-0.46523-0.047-0.94251-6e-3 -1.4077 0.0192-0.22538 0.11811-0.43269 0.12897-0.66289 0.0101-0.20489-6e-3 -0.3893 0.0409-0.59178 0.0735-0.3206 0.1844-0.63035 0.26757-0.94853 0.0579-0.22177 0.10727-0.47969 0.0326-0.70628" fill="#ad352f" stroke-width=".070005"/>
  <path d="m127.3 45.794c0.20247-0.28082 0.34951-0.47728 0.35313-0.82078 2e-3 -0.22297-8e-3 -0.37122-0.16632-0.53513-0.28324-0.29408-0.73521-0.54598-0.90515-0.92925-0.20249-0.46041 0.4821-0.82801 0.38086-1.2776-0.14343-0.63155-1.0221-0.78582-1.5403-0.93166-0.31337-0.08798-0.66169-0.1603-0.98711-0.18199-0.33385-0.02169-0.68217 0.0048-0.97144-0.17356-0.33023-0.20369-0.51825-0.55924-0.81233-0.80993-0.23623-0.20248-0.50019-0.37966-0.76775-0.53634-0.8714-0.50621-1.932-0.78462-2.9288-0.93166-0.75328-0.11209-1.4945-0.26636-2.261-0.26757-0.29529-0.0012-0.59058 0.0085-0.88586 6e-3 -1.3017-0.01085-2.5178 0.54116-3.8074 0.66892-0.42063 0.04098-0.85333 0.0085-1.2764 0.01084-0.3881 0.0012-0.76293-6e-3 -1.1474-0.06146-0.77015-0.11329-1.5379-0.22418-2.3093-0.32783-0.53513-0.07111-1.0582-0.22418-1.5958-0.27841-0.44112-0.04459-0.90153-0.01326-1.3426-0.01205-0.76172 0.0012-1.5246-0.0012-2.2864 0-0.45317 0-0.90996-0.01567-1.3631-0.0036-0.58214 0.01446-1.1595 0.0687-1.7428 0.06629-1.0245-0.0036-2.0453 0.06629-3.0686 0.06027-1.28-0.0073-2.5588-0.0097-3.8387-0.06146-0.42063-0.01808-0.84127-0.03616-1.2607-0.06027-0.13619-0.0085-0.27239-0.0085-0.20128-0.17597-0.09763-0.05062-1.0136-0.06508-0.79788-0.05545-1.1739-0.05303-2.3502-0.06027-3.5242-0.07834-0.4821-0.0073-0.94974-0.02169-1.4282-0.04821-0.24828-0.01326-0.50259-0.03977-0.75087-0.0012-0.35434 0.05424-0.7123 0.10606-1.0654 0.16874-0.38206 0.0699-0.75328 0.15186-1.1414 0.19284-1.104 0.11691-2.2237 0.04218-3.3313 0.07111-1.9417 0.05062-3.8833 0.06629-5.8202 0.21815-0.8955 0.0699-1.7633 0.13981-2.6636 0.09401-0.86537-0.0458-1.7295-0.07714-2.5961-0.08075-0.73882-0.0036-1.4656-0.0073-2.1984 0.10606-0.3218 0.04942-0.6436 0.10847-0.963 0.16874-0.83283 0.15909-1.6199 0.5496-2.4732 0.5954-1.4825 0.07714-2.9866 0.14584-4.4534 0.39532-0.74003 0.12535-1.4716 0.26877-2.2104 0.40617-0.43992 0.08076-0.87622 0.16391-1.3198 0.22538-0.54719 0.07714-1.0305 0.2989-1.5463 0.47487-0.2531 0.08557-0.53393 0.11088-0.7798 0.21695-0.25913 0.11209-0.46884 0.28323-0.74003 0.37483-0.21574 0.07352-0.4821 0.18802-0.65204 0.34591-0.10365 0.09642-0.17958 0.1832-0.2989 0.26757-0.19284 0.13499-0.37001 0.32662-0.58455 0.42786-0.13981 0.06629-0.19043 0.09642-0.28324 0.22538-0.06388 0.08918-0.09883 0.18681-0.15427 0.27962-0.06267 0.10486-0.15548 0.18079-0.22659 0.27962-0.10727 0.14945-0.22056 0.29288-0.33144 0.43871-0.13619 0.17597-0.28203 0.29649-0.43751 0.45197-0.15789 0.15789-0.24708 0.36881-0.37483 0.54839-0.36399 0.51223-0.60865 1.0654-0.78583 1.6729-0.10968 0.37483-0.229 0.8714-0.07231 1.2474 0.05906 0.14222 0.16632 0.27962 0.25672 0.40256 0.12776 0.17476 0.12655 0.22418 0.12173 0.43992-0.0097 0.32662 0.01206 0.65325 0.0012 0.97987-0.0073 0.21574-0.07714 0.37724-0.1157 0.58334-0.07231 0.38207-0.04942 0.78944-0.08919 1.1751-0.04098 0.39773-0.06027 0.79426-0.05062 1.1944 0.01808 0.77739 0.33627 1.5861 0.1386 2.3635-0.12776 0.50138-0.43269 0.94371-0.44715 1.4716-0.01325 0.51223 0.06027 1.0281 0.11088 1.5367 0.03375 0.33506 0.04821 0.88225 0.31578 1.1366 0.11088 0.10486 0.27239 0.09642 0.40979 0.13258 0.16994 0.0458 0.32662 0.08436 0.49898 0.11691 0.32301 0.06027 0.63155 0.12414 0.96179 0.16271 0.18079 0.02169 0.26395 0.02652 0.40738-0.06146 0.10606-0.06388 0.20128-0.11812 0.32301-0.15548 0.11088-0.03496 0.36519-0.04821 0.43269-0.07714 0.38689-0.01928 0.77859-0.07593 1.1691-0.09521 0.80631-0.03977 1.609-0.01928 2.4141-0.07593 0.30372-0.02169 0.60624 0 0.90876-0.02531 0.61227-0.04942 1.2077-0.21333 1.8151-0.30011 0.53272-0.07714 1.0582-0.10004 1.5946-0.12776 0.39532-0.02049 0.79426-0.1157 1.1872-0.16753 0.43992-0.05786 0.8726-0.08076 1.3161-0.07834 0.13258 0.0012 0.27239-0.01085 0.39773 0.03856 0.10606 0.04339 0.18079 0.12655 0.28806 0.17114 0.22779 0.09642 0.52549 0.10004 0.7581 0.10968 0.3893 0.01446 0.77859 0.03616 1.1679 0.05062 0.56888 0.0229 1.1438 0.06508 1.7115 0.07111 0.59298 6e-3 1.186-0.01928 1.779 0.01085 0.31216 0.01567 0.62312 0.05062 0.93648 0.05665 0.44474 0.0085 0.87984-0.06146 1.3185-0.13258 0.76895-0.12655 1.5246-0.28926 2.302-0.35555 1.0064-0.08557 1.9754-0.07834 2.9818 0.0024 0.64361 0.05303 1.2884 0.04339 1.9332 0.09039 0.81837 0.05786 1.6295 0.12053 2.4515 0.13981 0.86537 0.01928 1.7283 0.06629 2.5937 0.06388 1.2137-0.0048 2.4177 0.0036 3.629 0.08798 0.60986 0.04218 1.1992 0.0229 1.8091-0.02411 0.45438-0.03375 0.94371-0.03737 1.3909-0.1157 0.74967-0.13017 1.4945-0.38207 2.2104-0.63637 0.16271-0.05665 0.2989-0.06027 0.47125-0.05665 0.50018 0.0085 0.99434 0.0916 1.4873 0.16994 0.67615 0.10727 1.3643 0.18561 2.0477 0.23502 0.58696 0.04339 1.198 0.09401 1.7862 0.09401 0.46643 0 0.92564-0.04098 1.3921-0.07834 0.60745-0.04942 1.2535-0.18802 1.8633-0.09763 0.37363 0.05544 0.73038 0.0687 1.1088 0.02531 0.29288-0.03375 0.58214-0.12053 0.87622-0.15427 0.39051-0.04339 0.79547-0.0085 1.1884-0.0048 0.57852 0.0036 1.1522-0.08436 1.7308-0.03496 0.70266 0.05906 1.4114 0.03375 2.1164 0.03254 1.2257-0.0024 2.4479 0.05786 3.6736 0.06508 1.2812 0.0085 2.5624-0.0048 3.8436-0.0036 0.58575 0.0012 1.1739 0.01085 1.7609 0.0048 0.74364-6e-3 1.474-0.08918 2.2165-0.1157 0.42666-0.01446 0.85332-0.0073 1.2788-0.02652 0.38809-0.01808 0.81233 0.0073 1.1932-0.06146 0.28202-0.04941 0.51825-0.22779 0.78099-0.32542 0.54358-0.20128 1.1221-0.24346 1.691-0.32542 0.19525-0.02772 0.30372-0.07352 0.47607-0.17476 0.38689-0.2302 0.77017-0.4351 1.2137-0.52308 0.24949-0.04821 0.50741-0.08678 0.75329-0.15427 0.19163-0.05183 0.46764-0.23744 0.67614-0.20007-0.0433 0.05544-0.10605 0.05183-0.17716 0.05303 0.10245-0.0036 0.22297 0.01928 0.3206-0.01446-0.0567-0.15668-0.0591-0.20128 5e-3 -0.39291 0.0651-0.19164 0.15185-0.35434 0.2543-0.5279 0.10245-0.17235 0.0856-0.25069 0.13017-0.43028 0.0169-0.06749 0.0795-0.11812 0.1-0.18079 0.0265-0.08317 0.0109-0.17597 0.0101-0.26274-2e-3 -0.22779-2e-3 -0.43751-0.0482-0.66289-0.0482-0.229 0.0723-0.43871 0.12414-0.65807 0.0807-0.34229 0.26155-0.52428 0.0494-0.84127-0.15186-0.22538-0.16994-0.42063-0.0627-0.67374 0.12414-0.29167 0.3206-0.56767 0.48692-0.83524 0.0687-0.10968 0.2073-0.26636 0.24467-0.40135 0.0313-0.11209 0.035-0.32662 6e-3 -0.44112-0.0229-0.08798-0.0904-0.17476-0.12294-0.25913-0.0663-0.17115-0.0832-0.35796-0.10727-0.53754-0.0229-0.17717-0.0518-0.35916-0.0518-0.53754 1e-3 -0.23382 0.0723-0.45076 0.0904-0.68097 0.0109-0.14102-0.018-0.22538-0.0374-0.35555-0.0289-0.18922-0.0156-0.38207-0.0156-0.5737 0-0.13619-0.0217-0.2989 8e-3 -0.43269 0.0735-0.32421 0.37604-0.60624 0.56527-0.86899" fill="#e98c5c" stroke-width=".070005"/>
  <path d="m155.74 80.158c-0.12053-0.33627-0.0795-0.69302-0.0795-1.0462-1e-3 -0.54718 0.0687-1.0908 0.0639-1.6367-5e-3 -0.56406 0.0603-1.1137 0.0603-1.6765 0-0.27721-0.0109-0.5267-0.0482-0.80149-0.0374-0.28323 0.0132-0.56285-5e-3 -0.84488-0.0229-0.37724-0.31578-0.71472-0.49295-1.0293-0.10245-0.18199-0.2507-0.40738-0.26034-0.61588-0.0314-0.67012-0.0783-1.3414-0.0615-2.014 0.0109-0.45076 0.18079-0.78944 0.30373-1.2089 0.094-0.32662 0.0554-0.6882-4e-3 -1.0172-0.0976-0.54598-0.31217-0.9859-0.65325-1.4174-0.16271-0.2073-0.34591-0.39532-0.50983-0.60022-0.0759-0.09521-0.1398-0.19887-0.21935-0.29288-0.13137-0.15307-0.21213-0.29288-0.323-0.458-0.18321-0.2748-0.43149-0.4363-0.56889-0.74967-0.0687-0.15668-0.11088-0.3206-0.15066-0.48692-0.0482-0.20007-0.0735-0.40738-0.13619-0.60263-0.11932-0.37122-0.27721-0.65566-0.53031-0.94854-0.35435-0.40738-0.7798-0.65566-1.2679-0.8726-0.36881-0.16633-0.75087-0.21695-1.1378-0.28926-0.22057-0.09642-0.44957-0.17958-0.68941-0.24226-0.0374-0.02049-0.0711-0.03375-0.10968-0.05786-0.22297-0.13378-0.4592-0.21574-0.70869-0.2748-0.23262-0.05544-0.44956-0.13981-0.6882-0.16994-0.34831-0.04459-0.68338-0.06146-1.0353-0.06146-0.91238-0.0012-1.8163 0.04339-2.7275 0.05786-0.68338 0.01085-1.3607 0.06749-2.0441 0.06508-0.85091-0.0036-1.6982 0.06629-2.5479 0.06267-1.239-0.0048-2.478-0.0012-3.7182-0.0012-0.57852 0-1.1763 0.04821-1.7536-0.0097-0.29168-0.02893-0.5954-0.12776-0.88104-0.1844-0.57129-0.1145-1.1462-0.21453-1.7115-0.35314-0.36399-0.08919-0.61588-0.14342-0.99675-0.13499-0.56044 0.01446-1.1245 0.05183-1.6813 0.10847-0.44594 0.0458-0.86778 0.13258-1.3041 0.22659-0.58937 0.12896-1.1751 0.3206-1.7705 0.41702-0.87139 0.13981-1.8404 0.09883-2.7154 0.0699-0.18923-6e-3 -0.53393 0.01567-0.74365-0.02169-0.0892-0.01687-0.16874-0.05062-0.26033-0.05906-0.2965-0.02772-0.5978 0.03134-0.89189 0.05062-0.4375 0.03013-0.88345 0.0085-1.3198 0.01206-0.68459 0.0048-1.3668 0.04218-2.0501 0.06387-0.3652 0.01084-0.73159 0.0699-1.0968 0.06749-0.36881-0.0024-0.74364-0.03977-1.11-0.05424-0.86296-0.03375-1.7259-0.01325-2.5889-0.01325-0.39654 0-0.82198 0.03856-1.2161-0.0085-0.49536-0.05786-0.97143-0.28685-1.4596-0.39171-0.30854-0.06508-0.62311-0.03736-0.93406 0.0085-0.79789 0.11932-1.5982 0.22659-2.4069 0.19646-0.36157-0.01325-0.67012-0.1374-1.016-0.17958-0.135-0.01687-0.27963 0.0073-0.41582-0.0012-0.37725-0.02411-0.73882-0.05786-1.1197-0.05786-0.60504 0.0012-1.2053 0.06146-1.8091 0.06629-0.53875 0.0048-1.0775-0.03013-1.615 0.02531-0.30613 0.03255-0.62191 0.07473-0.92081 0.14945-0.34711 0.08557-0.67976 0.21936-1.0293 0.30252-0.41822 0.09883-0.84006 0.17476-1.2583 0.2748-0.33145 0.08075-0.65566 0.18922-0.99554 0.229-0.36037 0.04218-0.72074 0.07232-1.0799 0.12655-0.36037 0.05424-0.75449 0.08196-1.1052 0.16874-0.02169 0.0048-0.04459 0.0073-0.06629 0.01206-0.67012 0.0699-1.339 0.15066-2.008 0.229-0.37242-0.01928-0.74364-0.03857-1.1197-0.03857-0.62432 0-1.239 0.05424-1.8609 0.06388-0.37724 6e-3 -0.75449-0.0024-1.1317-0.0024-0.18561-0.0012-0.37845-0.01206-0.56526-0.0036-0.16271 6e-3 -0.31096 0.05905-0.47487 0.06749-0.45558 0.02169-0.88948-0.0048-1.3414 0.0458-0.3435 0.03737-0.70628 0.05424-1.051 0.07473-0.20489 0.01205-0.40738 0.04459-0.61227 0.05665-0.1832 0.01085-0.37122-0.01566-0.55201 0.01928-0.37242 0.07231-0.69423 0.23744-1.0606 0.3435-0.19284 0.05544-0.39291 0.06388-0.58455 0.11812-0.2989 0.08317-0.57491 0.229-0.87742 0.31096-0.29649 0.08075-0.59057 0.17717-0.88827 0.24949-0.20007 0.04942-0.40497 0.06388-0.60022 0.14222-0.44112 0.17597-0.85211 0.42907-1.2535 0.67132-0.22418 0.13619-0.48933 0.21333-0.73038 0.30854-0.29288 0.1157-0.56406 0.27118-0.83283 0.43389-0.25913 0.15548-0.51705 0.30854-0.79547 0.42666-0.39532 0.16753-0.7328 0.43028-1.1161 0.62191-0.44112 0.22056-0.90153 0.45197-1.2511 0.80872-0.1844 0.18802-0.42425 0.40979-0.49777 0.67253-0.1603 0.56044-0.22659 1.2113 0.02049 1.7585 0.09763 0.21815 0.13981 0.43148 0.276 0.63758 0.11691 0.17717 0.21936 0.33626 0.30854 0.53031 0.08677 0.19043 0.12535 0.36881 0.23744 0.55562 0.10968 0.17958 0.24346 0.3447 0.36399 0.51826 0.09883 0.14222 0.20851 0.31337 0.25069 0.48451 0.15186 0.63035-0.38568 1.2523-0.57611 1.8127-0.09401 0.27962-0.1133 0.54839-0.16633 0.83162-0.02652 0.13981-0.07593 0.26154-0.047 0.40617 0.05303 0.26516 0.29047 0.50862 0.41943 0.73159 0.24587 0.42184 0.38206 0.8726 0.50982 1.3402 0.05303 0.19525 0.1145 0.3905 0.12052 0.59178 0.01085 0.3664-0.01687 0.72797 0.02772 1.0944 0.03856 0.32301 0.04339 0.59178 0.27118 0.8268 0.15789 0.16391 0.28806 0.31819 0.47969 0.44715 0.05665 0.03736 0.17356 0.07955 0.2061 0.14463 0.0687 0.14222-0.01206 0.48692-0.05303 0.61347-0.11812 0.36519-0.32542 0.75328-0.56526 1.0498-0.13499 0.16512-0.30734 0.23984-0.30734 0.46523 0.0024 0.40255 0.32421 0.69302 0.58816 0.95336 0.1603 0.15909 0.25069 0.33386 0.4592 0.43751 0.26154 0.12776 0.53875 0.23382 0.79065 0.38086 0.23141 0.13499 0.44594 0.3664 0.71833 0.4134 0.17114 0.03013 0.36399 6e-3 0.53995 0.0048 0.58214-0.0048 1.1546 0.14945 1.7283 0.0012 0.25672-0.06629 0.50862-0.16753 0.76172-0.21574 0.14463-0.02772 0.27841-0.08678 0.41581-0.1386 1.3656 0.14101 2.7251 0.29288 4.0918 0.37483 0.11691 0.0458 0.23262 0.0928 0.35073 0.1386 0.25551 0.09883 0.53634 0.14463 0.80993 0.15307 0.52911 0.01326 1.0546 0.04459 1.5825 0.06267 0.56044 0.01928 1.1221-0.05544 1.6825-0.06508 0.69302-0.01206 1.3668-0.19887 2.055-0.23623 0.83042-0.0458 1.6572-0.15066 2.4852-0.23502 1.1956-0.02893 2.3912-0.05665 3.5856-0.08196 1.8223-0.03856 3.6435-0.07473 5.4658-0.10968 0.0362 0.0097 0.0747 0.01326 0.11088 0.0229 0.89672 0.25069 1.791 0.47608 2.7082 0.63999 1.0245 0.18199 2.055 0.30975 3.0915 0.40256 1.2703 0.1145 2.5395 0.08798 3.8122 0.08919 0.90032 0.0012 1.7934 0.02652 2.6865-0.1133 0.90997-0.14222 1.6693-0.51826 2.5214-0.83283 0.50019-0.1844 1.0208-0.31337 1.5464-0.41461 2.5286-0.0085 5.0572-0.0024 7.5846 0.02169 0.10125 0.0012 0.20249 0.0036 0.30253 0.0048 0.505 0.1615 0.99433 0.33988 1.5307 0.37724 1.2125 0.08557 2.4298 0.01084 3.6399 0.15909 0.14705 0.0241 0.29409 0.04821 0.44113 0.07231 0.0928 0.02893 0.15909-0.0012 0.20007-0.08919 0.0807-0.04098 0.0759-0.0699 0.17837-0.10124 0.23624-0.0699 0.58938-0.02049 0.82801 0.0048 0.25793 0.02772 0.51224 0.03977 0.77017 0.05786 0.31336 0.0229 0.62552 0.07955 0.93768 0.1157 0.56045 0.06387 1.1257 0.07231 1.6886 0.10606 0.7581 0.04459 1.5174 0.07714 2.2719 0.16392 0.48451 0.05544 0.97264 0.047 1.4572 0.10847 0.31216 0.04098 0.60383 0.15427 0.91478 0.20489 0.60504 0.10004 1.227 0.1615 1.8392 0.2061 0.41219 0.02893 0.828 0.07714 1.2426 0.07232 0.11088-0.0024 0.21694-0.0012 0.32662 0.01325 0.86417 0.11209 1.7621 0.0097 2.6299-0.02772 0.58093-0.02411 1.1619-0.05062 1.7404-0.09521 0.32543-0.0241 0.68097-0.01687 1.0016-0.07593 0.62794-0.1145 1.2703-0.0916 1.9115-0.13499 0.17718-0.01206 0.43027-0.01085 0.59781-0.09039 0.11088-0.05303 0.20248-0.14222 0.30734-0.20851 0.16512-0.10365 0.37603-0.27721 0.45799-0.458 0.14705-0.33024 0.0422-0.71713 0.0965-1.0618 0.21092-0.28444 0.39051-0.5954 0.54599-0.92081 0.0386-0.04942 0.0795-0.09763 0.11329-0.14945 0.0566-0.08557 0.0615-0.16391 0.0615-0.24346 0.0374-0.08798 0.0795-0.17356 0.11571-0.26154 0.0325-0.08196 0.0554-0.16391 0.0868-0.24587 0.035-0.04218 0.0712-0.08677 0.0989-0.11932 0.0977-0.11329 0.23623-0.15307 0.34109-0.25069 0.11088-0.10245 0.10606-0.21936 0.15548-0.34952 0.0952-0.24467 0.12534-0.5279 0.0374-0.77257" fill="#4d000b" stroke-width=".070005"/>
  <g fill="#0b1014" stroke-width=".26458">
   <path d="m19.06 109.02 2.1972-5.7033 2.1634 5.7033zm3.3494-8.6718h-2.1562l-6.101 14.011h2.7938l1.2679-3.1999h6.0769l1.3017 3.1999h2.8516"/>
   <path d="m34.758 106.38c0.35676 0 0.71231-0.0265 1.0691-0.0795 0.35555-0.0518 0.67615-0.15066 0.95938-0.29649 0.28324-0.14463 0.51826-0.35315 0.70266-0.62312 0.1844-0.27118 0.27721-0.61709 0.27721-1.0401 0-0.38206-0.08557-0.69543-0.25792-0.94009-0.17115-0.24347-0.3893-0.43872-0.65325-0.58335s-0.56285-0.24346-0.90032-0.29649c-0.33626-0.053-0.66289-0.0795-0.97867-0.0795h-2.2562v3.9388zm-4.533-6.0371h4.8692c0.65927 0 1.3005 0.0687 1.92 0.2073 0.62071 0.13981 1.1703 0.3664 1.6536 0.68338 0.4809 0.31698 0.86658 0.73279 1.157 1.2474 0.29047 0.51464 0.4363 1.1414 0.4363 1.8802 0 1.016-0.28685 1.844-0.86176 2.484-0.5737 0.63999-1.3559 1.0727-2.3454 1.2969l3.7411 6.2143h-3.0083l-3.247-5.9371h-1.8199v5.9371h-2.4949"/>
   <path d="m53.187 103.63c-0.37001-0.50139-0.85212-0.86779-1.4451-1.098-0.59419-0.23141-1.1751-0.34711-1.7428-0.34711-0.72436 0-1.3848 0.13258-1.979 0.39653-0.59298 0.26395-1.1052 0.62673-1.5331 1.0883-0.42907 0.46161-0.75931 1.0028-0.99072 1.6235-0.2302 0.6195-0.34591 1.2932-0.34591 2.0188 0 0.76534 0.11209 1.4644 0.33627 2.0971 0.22418 0.63397 0.54477 1.1787 0.96059 1.6343 0.41581 0.45438 0.91358 0.80751 1.4945 1.0582 0.58093 0.2507 1.233 0.37603 1.9597 0.37603 0.75208 0 1.4174-0.14823 1.9983-0.44593 0.58093-0.2965 1.0498-0.68941 1.4053-1.1775l1.9995 1.4053c-0.62071 0.7798-1.3788 1.3824-2.2767 1.8115-0.89791 0.42906-1.9453 0.6436-3.1469 0.6436-1.0956 0-2.1008-0.18199-3.018-0.54477s-1.7066-0.87019-2.3659-1.5246c-0.66048-0.65205-1.1751-1.4306-1.5439-2.3346-0.36881-0.90395-0.55442-1.9043-0.55442-2.9987 0-1.1221 0.19525-2.1345 0.58455-3.0384 0.3893-0.90394 0.92322-1.6729 1.603-2.3056 0.67976-0.63396 1.4813-1.1221 2.4045-1.4656 0.92443-0.3423 1.9272-0.51465 3.0083-0.51465 0.44956 0 0.9184 0.04339 1.4065 0.12897 0.48813 0.0856 0.95697 0.21815 1.4053 0.39652 0.44836 0.17718 0.87019 0.39895 1.2667 0.6629 0.39532 0.26395 0.73159 0.58093 1.01 0.94974"/>
   <path d="m57.244 100.35h2.4949v5.6611h6.5506v-5.6611h2.4949v14.013h-2.4949v-6.2143h-6.5506v6.2143h-2.4949"/>
   <path d="m77.691 96.387h2.6913l-2.7902 2.8504h-1.8609zm-5.4236 3.9593h9.2841v2.1767h-6.7892v3.5627h6.4324v2.0983h-6.4324v3.9593h7.1447v2.2165h-9.6396"/>
   <path d="m86.775 107.31c0 0.75208 0.1157 1.4415 0.34591 2.0682 0.23141 0.62552 0.56165 1.1703 0.99072 1.6331 0.42786 0.46282 0.93648 0.82198 1.5234 1.0787 0.58816 0.25793 1.2378 0.38689 1.9501 0.38689s1.3668-0.12896 1.9609-0.38689c0.59178-0.25671 1.104-0.61587 1.5343-1.0787 0.42666-0.46282 0.7581-1.0076 0.98831-1.6331 0.2302-0.62673 0.34591-1.3161 0.34591-2.0682 0-0.72556-0.1157-1.3981-0.34591-2.0188-0.2302-0.6207-0.55803-1.1607-0.97987-1.6235-0.42304-0.46282-0.92925-0.82439-1.5234-1.0883s-1.2547-0.39533-1.9802-0.39533c-0.72556 0-1.3812 0.13138-1.9694 0.39533-0.58696 0.26395-1.0908 0.62552-1.515 1.0883-0.42184 0.46282-0.74846 1.0028-0.97987 1.6235-0.2302 0.62071-0.34591 1.2932-0.34591 2.0188m-2.7118 0c0-1.1221 0.18802-2.1357 0.56647-3.0396 0.37363-0.90394 0.8955-1.6717 1.562-2.3044 0.66771-0.63396 1.4572-1.1221 2.3744-1.4644 0.9184-0.3435 1.9176-0.51464 2.9999-0.51464 1.0956 0 2.1044 0.17114 3.0276 0.51464 0.92322 0.34229 1.7223 0.83042 2.396 1.4644 0.67133 0.63276 1.1968 1.4005 1.5729 2.3044 0.37724 0.90394 0.56406 1.9176 0.56406 3.0396 0 1.0944-0.18681 2.0935-0.56406 2.9975-0.37604 0.90394-0.90153 1.6825-1.5729 2.337-0.67374 0.65204-1.4728 1.1607-2.396 1.5234-0.92322 0.36398-1.932 0.54477-3.0276 0.54477-1.0823 0-2.0815-0.18079-2.9999-0.54477-0.9172-0.36278-1.7066-0.8714-2.3744-1.5234-0.6665-0.65446-1.1884-1.433-1.562-2.337-0.37845-0.90394-0.56647-1.9031-0.56647-2.9975"/>
   <path d="m109.08 103.28c-0.26395-0.3423-0.63636-0.63156-1.1185-0.86175-0.4809-0.23021-0.96662-0.34591-1.4547-0.34591-0.29047 0-0.58094 0.0362-0.8702 0.10727-0.29167 0.0735-0.55562 0.1856-0.79184 0.33747-0.23745 0.15306-0.43269 0.34951-0.58455 0.59418-0.15187 0.24346-0.22659 0.53875-0.22659 0.88104 0 0.31578 0.0651 0.58697 0.19645 0.81114 0.13259 0.22417 0.31337 0.41461 0.54478 0.57491 0.2302 0.15668 0.51103 0.29649 0.84127 0.41461 0.33023 0.11811 0.69301 0.23743 1.0883 0.35554 0.44836 0.14584 0.91478 0.31216 1.3957 0.49536 0.4821 0.1844 0.92443 0.43028 1.327 0.73401 0.40135 0.3013 0.73159 0.68578 0.9883 1.1462 0.25793 0.46282 0.38689 1.0377 0.38689 1.7223 0 0.75329-0.1386 1.4077-0.41581 1.9694-0.27721 0.56165-0.64722 1.0269-1.1076 1.3969-0.46282 0.36761-1.004 0.64481-1.6235 0.83042-0.6207 0.18561-1.274 0.276-1.9597 0.276-0.90998 0-1.8019-0.16632-2.672-0.50379-0.8714-0.33627-1.5837-0.83524-2.1381-1.4957l1.7814-1.662c0.34349 0.47608 0.80149 0.85212 1.3764 1.1281 0.5737 0.27721 1.1378 0.41702 1.6922 0.41702 0.29046 0 0.58575-0.0362 0.88947-0.10968 0.30373-0.0712 0.57732-0.19405 0.82199-0.36519 0.24466-0.17235 0.44232-0.38568 0.59418-0.6436 0.15187-0.25673 0.2278-0.57733 0.2278-0.9606 0-0.37001-0.0856-0.67494-0.25793-0.92081-0.17115-0.24346-0.40134-0.45438-0.69302-0.63276-0.29046-0.17838-0.63275-0.33385-1.0269-0.46523-0.39773-0.13257-0.81355-0.27118-1.2486-0.41461-0.42184-0.13377-0.84489-0.29046-1.2667-0.47607-0.42305-0.1832-0.8015-0.42786-1.1378-0.73159-0.33748-0.30372-0.61107-0.67614-0.82199-1.1197-0.21213-0.44112-0.31578-0.99192-0.31578-1.6524 0-0.71231 0.14825-1.3258 0.44474-1.8404 0.2965-0.51465 0.68579-0.9401 1.1679-1.2764 0.4821-0.33747 1.0293-0.58695 1.6428-0.75328 0.61348-0.16512 1.2366-0.24708 1.8694-0.24708 0.71351 0 1.4355 0.12655 2.1682 0.37604 0.73159 0.2519 1.368 0.62673 1.9103 1.1281"/>
   <path d="m123.81 103.63c-0.37001-0.50139-0.85211-0.86779-1.4451-1.098-0.5942-0.23141-1.1751-0.34711-1.7428-0.34711-0.72435 0-1.3848 0.13258-1.979 0.39653-0.59299 0.26395-1.1052 0.62673-1.5331 1.0883-0.42907 0.46161-0.75932 1.0028-0.99072 1.6235-0.23021 0.6195-0.34591 1.2932-0.34591 2.0188 0 0.76534 0.11208 1.4644 0.33626 2.0971 0.22418 0.63397 0.54478 1.1787 0.9606 1.6343 0.4158 0.45438 0.91358 0.80751 1.4945 1.0582s1.233 0.37603 1.9597 0.37603c0.75207 0 1.4174-0.14823 1.9983-0.44593 0.58093-0.2965 1.0498-0.68941 1.4053-1.1775l1.9995 1.4053c-0.62071 0.7798-1.3788 1.3824-2.2767 1.8115-0.89791 0.42906-1.9453 0.6436-3.1469 0.6436-1.0956 0-2.1008-0.18199-3.018-0.54477s-1.7066-0.87019-2.3659-1.5246c-0.66048-0.65205-1.1751-1.4306-1.5439-2.3346-0.3688-0.90395-0.55442-1.9043-0.55442-2.9987 0-1.1221 0.19525-2.1345 0.58455-3.0384 0.3893-0.90394 0.92323-1.6729 1.603-2.3056 0.67976-0.63396 1.4813-1.1221 2.4045-1.4656 0.92443-0.3423 1.9272-0.51465 3.0083-0.51465 0.44957 0 0.9184 0.04339 1.4065 0.12897 0.48813 0.0856 0.95698 0.21815 1.4053 0.39652 0.44835 0.17718 0.87019 0.39895 1.2667 0.6629 0.39533 0.26395 0.73159 0.58093 1.01 0.94974"/>
   <path d="m127.87 114.36h2.4948v-14.013h-2.4948z"/>
   <path d="m133.84 100.35h9.2829v2.1779h-6.7868v3.5627h6.4324v2.0983h-6.4324v3.958h7.1447v2.2165h-9.6408"/>
   <path d="m146.31 100.35h3.306l6.512 10.491h0.0398v-10.491h2.4937v14.013h-3.1674l-6.6506-10.827h-0.0386v10.827h-2.4949"/>
   <path d="m172.26 103.63c-0.37-0.50139-0.85211-0.86779-1.4451-1.098-0.5942-0.23141-1.1751-0.34711-1.7428-0.34711-0.72436 0-1.3848 0.13258-1.979 0.39653-0.59299 0.26395-1.1052 0.62673-1.5331 1.0883-0.42907 0.46161-0.75931 1.0028-0.99072 1.6235-0.23021 0.6195-0.34591 1.2932-0.34591 2.0188 0 0.76534 0.1121 1.4644 0.33627 2.0971 0.22417 0.63397 0.54477 1.1787 0.96059 1.6343 0.41581 0.45438 0.91358 0.80751 1.4945 1.0582s1.233 0.37603 1.9598 0.37603c0.75208 0 1.4174-0.14823 1.9983-0.44593 0.58093-0.2965 1.0498-0.68941 1.4053-1.1775l1.9995 1.4053c-0.6207 0.7798-1.3788 1.3824-2.2767 1.8115-0.89791 0.42906-1.9453 0.6436-3.1469 0.6436-1.0956 0-2.1008-0.18199-3.018-0.54477s-1.7066-0.87019-2.3659-1.5246c-0.66048-0.65205-1.1751-1.4306-1.5439-2.3346-0.36881-0.90395-0.55443-1.9043-0.55443-2.9987 0-1.1221 0.19526-2.1345 0.58455-3.0384 0.3893-0.90394 0.92323-1.6729 1.603-2.3056 0.67976-0.63396 1.4813-1.1221 2.4045-1.4656 0.92443-0.3423 1.9272-0.51465 3.0083-0.51465 0.44956 0 0.91841 0.04339 1.4065 0.12897 0.48813 0.0856 0.95697 0.21815 1.4053 0.39652 0.44835 0.17718 0.87019 0.39895 1.2667 0.6629 0.39532 0.26395 0.73159 0.58093 1.01 0.94974"/>
   <path d="m176.32 100.35h9.2829v2.1779h-6.788v3.5627h6.4324v2.0983h-6.4324v3.958h7.1447v2.2165h-9.6396"/>
   <path d="m195.94 103.28c-0.26395-0.3423-0.63638-0.63156-1.1185-0.86175-0.48089-0.23021-0.96661-0.34591-1.4547-0.34591-0.29046 0-0.58093 0.0362-0.87019 0.10727-0.29167 0.0735-0.55563 0.1856-0.79186 0.33747-0.23743 0.15306-0.43268 0.34951-0.58455 0.59418-0.15186 0.24346-0.22658 0.53875-0.22658 0.88104 0 0.31578 0.0651 0.58697 0.19645 0.81114 0.13258 0.22417 0.31338 0.41461 0.54478 0.57491 0.23021 0.15668 0.51103 0.29649 0.84126 0.41461 0.33025 0.11811 0.69303 0.23743 1.0884 0.35554 0.44835 0.14584 0.91479 0.31216 1.3957 0.49536 0.4821 0.1844 0.92443 0.43028 1.3258 0.73401 0.40255 0.3013 0.73278 0.68578 0.98951 1.1462 0.25792 0.46282 0.38688 1.0377 0.38688 1.7223 0 0.75329-0.1386 1.4077-0.41581 1.9694-0.27721 0.56165-0.64722 1.0269-1.1076 1.3969-0.46282 0.36761-1.004 0.64481-1.6235 0.83042-0.6207 0.18561-1.274 0.276-1.9597 0.276-0.90996 0-1.8018-0.16632-2.672-0.50379-0.87139-0.33627-1.5837-0.83524-2.1381-1.4957l1.7814-1.662c0.3435 0.47608 0.8015 0.85212 1.3764 1.1281 0.57371 0.27721 1.1378 0.41702 1.691 0.41702 0.29167 0 0.58695-0.0362 0.89068-0.10968 0.30371-0.0712 0.57731-0.19405 0.82198-0.36519 0.24466-0.17235 0.44233-0.38568 0.59419-0.6436 0.15186-0.25673 0.22779-0.57733 0.22779-0.9606 0-0.37001-0.0856-0.67494-0.25792-0.92081-0.17115-0.24346-0.40256-0.45438-0.69303-0.63276-0.29046-0.17838-0.63276-0.33385-1.0281-0.46523-0.39653-0.13257-0.81235-0.27118-1.2474-0.41461-0.42185-0.13377-0.84489-0.29046-1.2667-0.47607-0.42304-0.1832-0.80149-0.42786-1.1378-0.73159-0.33747-0.30372-0.61106-0.67614-0.82198-1.1197-0.21212-0.44112-0.31698-0.99192-0.31698-1.6524 0-0.71231 0.14945-1.3258 0.44595-1.8404 0.29648-0.51465 0.68578-0.9401 1.1679-1.2764 0.4809-0.33747 1.0293-0.58695 1.6428-0.75328 0.61347-0.16512 1.2366-0.24708 1.8694-0.24708 0.7135 0 1.4354 0.12655 2.1682 0.37604 0.73158 0.2519 1.368 0.62673 1.9103 1.1281"/>
   <path d="m54.972 131.25h2.3599c0.458 0 0.8955-0.0434 1.3125-0.13138 0.41702-0.088 0.7798-0.229 1.092-0.42305 0.31096-0.19404 0.56044-0.44594 0.74846-0.75809 0.18802-0.30976 0.28082-0.68338 0.28082-1.1173 0-0.822-0.27841-1.4355-0.83524-1.8404-0.55803-0.40496-1.3475-0.60865-2.3695-0.60865h-2.5889zm0-5.9178h2.5539c0.30493 0 0.61347-0.035 0.92443-0.10605 0.31096-0.07 0.5966-0.19044 0.85452-0.36038s0.46643-0.39652 0.62553-0.67856c0.15789-0.28082 0.23744-0.62793 0.23744-1.0389 0-0.39895-0.07955-0.73642-0.23744-1.0124-0.15909-0.27601-0.37242-0.5014-0.6436-0.67736-0.26998-0.17717-0.58696-0.30252-0.95094-0.37966-0.36399-0.0759-0.75087-0.11449-1.1619-0.11449h-2.202zm-1.2679-5.4598h3.7158c0.47005 0 0.94492 0.0506 1.427 0.15066 0.4809 0.0989 0.91358 0.26997 1.2944 0.50982 0.38086 0.24105 0.69302 0.56646 0.93287 0.97745 0.24105 0.41221 0.36158 0.92805 0.36158 1.55 0 0.65807-0.20128 1.2306-0.60263 1.7175-0.40014 0.48692-0.93769 0.80752-1.6102 0.95938v0.0362c0.80872 0.094 1.4788 0.40737 2.0116 0.9413 0.53272 0.53513 0.80029 1.2595 0.80029 2.1755 0 0.51705-0.10847 0.98951-0.32542 1.4174-0.21695 0.42908-0.52428 0.79306-0.92322 1.092-0.39773 0.30011-0.88466 0.53153-1.4584 0.69664-0.5737 0.16392-1.2185 0.24588-1.9332 0.24588h-3.6905"/>
   <path d="m77.304 126.12c0-0.72798-0.11691-1.4186-0.35193-2.0767-0.23623-0.65445-0.57611-1.2318-1.0221-1.7307-0.44715-0.49898-0.98951-0.8931-1.6283-1.186-0.6412-0.29528-1.3595-0.44112-2.1574-0.44112-0.79908 0-1.5186 0.14584-2.1586 0.44112-0.63999 0.29287-1.1836 0.68699-1.6295 1.186-0.44594 0.49897-0.78583 1.0763-1.0208 1.7307-0.23502 0.65807-0.35193 1.3487-0.35193 2.0767 0 0.72556 0.11691 1.4186 0.35193 2.0742 0.23502 0.65687 0.57491 1.2318 1.0208 1.7223 0.44594 0.49294 0.98951 0.88465 1.6295 1.1787 0.63999 0.29288 1.3595 0.43992 2.1586 0.43992 0.79788 0 1.5162-0.14704 2.1574-0.43992 0.63878-0.29408 1.1811-0.68579 1.6283-1.1787 0.44594-0.49054 0.78582-1.0654 1.0221-1.7223 0.23502-0.65565 0.35193-1.3487 0.35193-2.0742m1.3378-8e-3c0 0.95094-0.16391 1.8248-0.49295 2.6238-0.32783 0.79788-0.78341 1.4885-1.3643 2.0682-0.58214 0.58093-1.2679 1.0365-2.061 1.3644-0.79185 0.32904-1.6524 0.49295-2.5792 0.49295-0.92805 0-1.7886-0.16391-2.5804-0.49295-0.79306-0.32782-1.4801-0.78342-2.061-1.3644-0.58214-0.57972-1.0365-1.2703-1.3656-2.0682-0.32903-0.79909-0.49295-1.6729-0.49295-2.6238 0-0.95335 0.16392-1.8272 0.49295-2.6262 0.32903-0.79789 0.78342-1.4873 1.3656-2.0682 0.58093-0.58093 1.2679-1.0353 2.061-1.3644 0.79185-0.32904 1.6524-0.49295 2.5804-0.49295 0.92684 0 1.7874 0.16391 2.5792 0.49295 0.79306 0.32903 1.4788 0.78342 2.061 1.3644 0.58093 0.58093 1.0365 1.2703 1.3643 2.0682 0.32904 0.79908 0.49295 1.6729 0.49295 2.6262"/>
   <path d="m83.96 125.42h2.202c1.0208 0 1.8079-0.18561 2.3599-0.55442 0.55201-0.37001 0.82801-0.92564 0.82801-1.6644 0-0.41099-0.07714-0.75811-0.2302-1.0389-0.15186-0.28203-0.36278-0.51103-0.63276-0.687-0.27118-0.17596-0.60022-0.30493-0.9871-0.38809-0.38688-0.0819-0.81596-0.12293-1.2848-0.12293h-2.255zm0 6.9218h-1.2679v-12.47h3.664c0.60986 0 1.1763 0.0591 1.6994 0.17597 0.52188 0.11811 0.97384 0.30854 1.3559 0.57249 0.38086 0.26395 0.67856 0.60745 0.88948 1.0305 0.21092 0.42184 0.31578 0.93889 0.31578 1.55 0 0.45799-0.08076 0.87501-0.24587 1.2498-0.16392 0.37605-0.38689 0.70266-0.66892 0.97746-0.28203 0.27601-0.61588 0.49657-1.004 0.66049-0.38689 0.16511-0.81114 0.27118-1.2679 0.31698l3.6459 5.9359h-1.55l-3.4518-5.8298h-2.114"/>
   <path d="m95.919 131.22h2.519c0.93889 0 1.7585-0.14825 2.4563-0.44112 0.69905-0.29288 1.2776-0.67736 1.7356-1.1534 0.45679-0.47608 0.80149-1.0184 1.0293-1.6295 0.22899-0.61107 0.34469-1.2378 0.34469-1.8826 0-0.64601-0.1157-1.274-0.34469-1.8862-0.2278-0.60865-0.5725-1.1534-1.0293-1.6283-0.458-0.47608-1.0365-0.85935-1.7356-1.1534-0.69784-0.29288-1.5174-0.43992-2.4563-0.43992h-2.519zm-1.2679-11.341h4.14c0.77377 0 1.5512 0.12897 2.3322 0.38689s1.4849 0.64722 2.114 1.1703c0.62794 0.52308 1.1354 1.1751 1.5234 1.9561 0.38809 0.7798 0.58093 1.6874 0.58093 2.7215 0 1.045-0.19284 1.9537-0.58093 2.7287-0.38809 0.77497-0.8955 1.4246-1.5234 1.9453-0.62914 0.52307-1.333 0.91478-2.114 1.1727-0.78101 0.25673-1.5584 0.38569-2.3322 0.38569h-4.14"/>
   <path d="m110.66 131.22h6.6747v1.1257h-7.9426v-12.467h7.7317v1.1269h-6.4638v4.2786h6.0407v1.1281h-6.0407"/>
   <path d="m122.97 127.91h5.4947l-2.7468-6.6229zm-1.832 4.4378h-1.3897l5.3887-12.467h1.2318l5.3562 12.467h-1.4114l-1.3728-3.2759h-6.4469"/>
   <path d="m139.35 132.66c-0.94009 0-1.7078-0.16151-2.3068-0.48452-0.59901-0.323-1.0751-0.73038-1.427-1.2233s-0.59539-1.0305-0.73039-1.6114c-0.13619-0.58213-0.20248-1.1305-0.20248-1.6476v-7.8197h1.2667v7.6799c0 0.50379 0.0603 0.99433 0.17718 1.4704 0.1169 0.47488 0.30733 0.89792 0.57249 1.2679 0.26396 0.37002 0.61227 0.66891 1.0474 0.89791 0.4351 0.22901 0.96903 0.3435 1.603 0.3435s1.1679-0.11449 1.6018-0.3435c0.4351-0.229 0.78463-0.52789 1.0486-0.89791 0.26394-0.37001 0.45558-0.79305 0.5725-1.2679 0.1169-0.47607 0.17596-0.96661 0.17596-1.4704v-7.6799h1.2679v7.8197c0 0.51706-0.0675 1.0654-0.20249 1.6476-0.13498 0.58094-0.37845 1.1185-0.73038 1.6114s-0.83042 0.90033-1.4354 1.2233c-0.60504 0.32301-1.3716 0.48452-2.2984 0.48452"/>
   <path d="m152.75 124.91 3.4-5.0368h1.5138l-4.1388 5.9347 4.5788 6.5349h-1.5849l-3.805-5.6189-3.7857 5.6189h-1.5849l4.5788-6.5518-4.1738-5.9178h1.5849"/>
  </g>
 </g>
</svg>
