<?xml version="1.0" encoding="UTF-8" standalone="no"?>
<svg
   xmlns:dc="http://purl.org/dc/elements/1.1/"
   xmlns:cc="http://creativecommons.org/ns#"
   xmlns:rdf="http://www.w3.org/1999/02/22-rdf-syntax-ns#"
   xmlns:svg="http://www.w3.org/2000/svg"
   xmlns="http://www.w3.org/2000/svg"
   width="100"
   height="100"
   viewBox="0 0 26.458333 26.458333"
   version="1.1"
   id="svg8">
  <defs
     id="defs2" />
  <metadata
     id="metadata5">
    <rdf:RDF>
      <cc:Work
         rdf:about="">
        <dc:format>image/svg+xml</dc:format>
        <dc:type
           rdf:resource="http://purl.org/dc/dcmitype/StillImage" />
        <dc:title></dc:title>
        <cc:license
           rdf:resource="http://creativecommons.org/licenses/by/4.0/" />
      </cc:Work>
      <cc:License
         rdf:about="http://creativecommons.org/licenses/by/4.0/">
        <cc:permits
           rdf:resource="http://creativecommons.org/ns#Reproduction" />
        <cc:permits
           rdf:resource="http://creativecommons.org/ns#Distribution" />
        <cc:requires
           rdf:resource="http://creativecommons.org/ns#Notice" />
        <cc:requires
           rdf:resource="http://creativecommons.org/ns#Attribution" />
        <cc:permits
           rdf:resource="http://creativecommons.org/ns#DerivativeWorks" />
      </cc:License>
    </rdf:RDF>
  </metadata>
  <g
     style="fill:#f1e9da;fill-opacity:1;stroke-width:1.20481932"
     id="layer1"
     transform="matrix(0.83,0,0,0.83,2.2489583,-222.30063)">
    <path
       style="fill:#f1e9da;fill-opacity:1;stroke:none;stroke-width:0.4781132;stroke-miterlimit:4;stroke-dasharray:none;stroke-opacity:1"
       d="M 50,0 6.6992188,25 V 75 L 50,100 93.300781,75 V 25 Z m -1.904297,24.128906 v 11.572266 h 13.365235 v 9.259766 H 48.095703 v 13.8125 c 0,2.339552 0.398868,4.20582 1.195313,5.599609 0.846223,1.393789 2.513066,2.091797 5.001953,2.091797 1.194668,0 2.413758,-0.09977 3.658203,-0.298828 1.294221,-0.248945 2.464431,-0.572543 3.509766,-0.970704 l 1.568359,8.660157 c -1.344,0.547553 -2.837803,1.021711 -4.480469,1.419922 -1.642666,0.398236 -3.657541,0.597656 -6.046875,0.597656 -3.036445,0 -5.549905,-0.398865 -7.541015,-1.195313 -1.991111,-0.846236 -3.584629,-1.991994 -4.779297,-3.435546 -1.194666,-1.493342 -2.041285,-3.284342 -2.539063,-5.375 -0.448,-2.090659 -0.671875,-4.40663 -0.671875,-6.945313 V 25.919922 Z"
       transform="matrix(0.26458333,0,0,0.26458333,0,270.54167)"
       id="path815" />
  </g>
</svg>
