<?xml version="1.0" encoding="UTF-8" standalone="no"?>
<svg
   xmlns:dc="http://purl.org/dc/elements/1.1/"
   xmlns:cc="http://creativecommons.org/ns#"
   xmlns:rdf="http://www.w3.org/1999/02/22-rdf-syntax-ns#"
   xmlns:svg="http://www.w3.org/2000/svg"
   xmlns="http://www.w3.org/2000/svg"
   id="svg8"
   version="1.1"
   viewBox="0 0 26.458333 26.458333"
   height="100"
   width="100">
  <defs
     id="defs2" />
  <metadata
     id="metadata5">
    <rdf:RDF>
      <cc:Work
         rdf:about="">
        <dc:format>image/svg+xml</dc:format>
        <dc:type
           rdf:resource="http://purl.org/dc/dcmitype/StillImage" />
        <dc:title></dc:title>
        <cc:license
           rdf:resource="http://creativecommons.org/licenses/by/4.0/" />
      </cc:Work>
      <cc:License
         rdf:about="http://creativecommons.org/licenses/by/4.0/">
        <cc:permits
           rdf:resource="http://creativecommons.org/ns#Reproduction" />
        <cc:permits
           rdf:resource="http://creativecommons.org/ns#Distribution" />
        <cc:requires
           rdf:resource="http://creativecommons.org/ns#Notice" />
        <cc:requires
           rdf:resource="http://creativecommons.org/ns#Attribution" />
        <cc:permits
           rdf:resource="http://creativecommons.org/ns#DerivativeWorks" />
      </cc:License>
    </rdf:RDF>
  </metadata>
  <g
     transform="translate(0,-270.54167)"
     id="layer1">
    <path
       id="path815"
       transform="matrix(0.26458333,0,0,0.26458333,0,270.54167)"
       d="M 50 0 L 6.6992188 25 L 6.6992188 75 L 50 100 L 93.300781 75 L 93.300781 25 L 50 0 z M 48.095703 24.128906 L 48.095703 35.701172 L 61.460938 35.701172 L 61.460938 44.960938 L 48.095703 44.960938 L 48.095703 58.773438 C 48.095703 61.11299 48.494571 62.979258 49.291016 64.373047 C 50.137239 65.766836 51.804082 66.464844 54.292969 66.464844 C 55.487637 66.464844 56.706727 66.365071 57.951172 66.166016 C 59.245393 65.917071 60.415603 65.593473 61.460938 65.195312 L 63.029297 73.855469 C 61.685297 74.403022 60.191494 74.87718 58.548828 75.275391 C 56.906162 75.673627 54.891287 75.873047 52.501953 75.873047 C 49.465508 75.873047 46.952048 75.474182 44.960938 74.677734 C 42.969827 73.831498 41.376309 72.68574 40.181641 71.242188 C 38.986975 69.748846 38.140356 67.957846 37.642578 65.867188 C 37.194578 63.776529 36.970703 61.460558 36.970703 58.921875 L 36.970703 25.919922 L 48.095703 24.128906 z "
       style="fill:#4f2680;fill-opacity:1;stroke:none;stroke-width:0.39683396;stroke-miterlimit:4;stroke-dasharray:none;stroke-opacity:1" />
  </g>
</svg>
