<?xml version="1.0" encoding="UTF-8"?>
<!-- Created with Inkscape (http://www.inkscape.org/) -->
<svg width="800" height="288" version="1.1" viewBox="0 0 800 288" xml:space="preserve" xmlns="http://www.w3.org/2000/svg"><g transform="translate(0,-1)" stroke-width="1.33"><path d="m800 289h-800v-288h800v0.0619-0.0619h0.0609v288m-800-288v288h800v-288h-800" fill="#fff"/><g fill="#231f20"><path d="m266 53c32.3 0 50.1 34.5 36.1 73.8-11.8 33-12.9 63.3 12.3 75.6 25.2 12.3 44.4-12.3 44.4-12.3s-11.1 40.7-57.2 40.7c-45.6 0-105-50.3-86.8-131 8.77-34.4 29.9-47.3 51.2-47.3"/><path d="m50.1 241s14.2-114 114-191c0 0-6.6 101 33.9 134-24.5 31.3-41.7 54.6-41.7 54.6s-28.8-22.7-41-76c-17.5 26.3-65 78.1-65 78.1"/><path d="m750 226h-30.9v-43.9h29.9v9.81h-18.8v6.97h17.8v9.39h-17.8v7.76h19.9v9.93"/><path d="m711 226h-12.6l-16.5-26.8 0.229 26.8h-11.2v-43.9h12.6l16.4 26.7-0.237-26.7h11.1v43.9"/><path d="m647 227c-3.47 0-6.72-0.558-9.64-1.67-2.93-1.1-5.5-2.69-7.62-4.71-2.12-2.02-3.8-4.47-4.98-7.28-1.19-2.8-1.8-5.98-1.8-9.42 0-3.48 0.61-6.68 1.83-9.52 1.21-2.83 2.9-5.28 5.05-7.28 2.14-1.99 4.68-3.55 7.56-4.61 2.87-1.07 6-1.61 9.31-1.61 3.43 0 6.66 0.529 9.6 1.57 2.96 1.05 5.4 2.48 7.26 4.26l0.39 0.369-7.3 8.31-0.418-0.486c-0.944-1.1-2.22-2.01-3.79-2.73-1.57-0.707-3.38-1.07-5.39-1.07-1.73 0-3.34 0.319-4.79 0.949-1.45 0.63-2.73 1.52-3.8 2.65-1.07 1.13-1.91 2.49-2.51 4.04-0.594 1.55-0.898 3.28-0.898 5.14 0 1.91 0.272 3.67 0.815 5.25 0.533 1.57 1.34 2.94 2.39 4.06 1.04 1.12 2.36 2.01 3.91 2.64 1.55 0.632 3.36 0.952 5.37 0.952 1.17 0 2.3-0.0917 3.35-0.266 0.904-0.15 1.76-0.384 2.55-0.694v-6.86h-8.15v-9.45h18.7v23.5l-0.301 0.159c-2.12 1.1-4.63 2.01-7.46 2.7-2.83 0.695-5.96 1.04-9.29 1.04"/><path d="m617 226h-11.5v-43.9h11.5v43.9"/><path d="m575 208h9.15l-4.52-12.5zm28.4 17.8h-12.7l-3.32-8.39h-15.8l-3.14 8.39h-12.5l18.4-43.9h10.8l0.139 0.342 18.1 43.5"/><path d="m550 226h-11.4v-33.9h-12.1v-9.93h35.6v9.93h-12.1v33.9"/><path d="m522 226h-12.6l-16.5-26.8 0.227 26.8h-11.1v-43.9h12.6l16.4 26.7-0.237-26.7h11.1v43.9"/><path d="m453 191c-1.73 0-3.31 0.318-4.73 0.946-1.41 0.634-2.66 1.5-3.68 2.59-1.03 1.09-1.84 2.42-2.39 3.94-0.561 1.53-0.842 3.22-0.842 5 0 1.86 0.293 3.59 0.871 5.15 0.576 1.56 1.38 2.91 2.4 4.01 1.01 1.11 2.23 1.99 3.64 2.61 2.82 1.26 6.62 1.26 9.45 0 1.41-0.628 2.65-1.51 3.68-2.62 1.03-1.11 1.85-2.46 2.42-4.01 0.576-1.56 0.868-3.29 0.868-5.15 0-1.78-0.292-3.46-0.868-5-0.571-1.53-1.38-2.86-2.39-3.95-1.01-1.09-2.25-1.95-3.68-2.59-1.43-0.628-3.03-0.946-4.75-0.946m0 35.7c-3.39 0-6.58-0.561-9.47-1.66-2.9-1.11-5.44-2.7-7.56-4.74-2.12-2.04-3.8-4.52-4.98-7.37-1.19-2.84-1.8-6.04-1.8-9.48 0-3.49 0.605-6.68 1.8-9.49 1.19-2.82 2.87-5.25 4.99-7.22 2.12-1.98 4.67-3.52 7.56-4.58 2.89-1.07 6.07-1.61 9.46-1.61 3.39 0 6.58 0.54 9.49 1.61 2.92 1.07 5.47 2.61 7.58 4.58 2.12 1.98 3.8 4.41 5 7.22 1.19 2.82 1.79 6.01 1.79 9.49 0 3.44-0.602 6.63-1.79 9.48-1.19 2.86-2.87 5.34-4.99 7.37-2.11 2.03-4.66 3.62-7.58 4.74-2.91 1.1-6.11 1.66-9.5 1.66"/><path d="m423 226h-11.3l0.225-28.1-10.3 28.1h-8.03l-10-28 0.224 28h-10.8v-43.9h15.6l9.45 26.6 9.04-26.6h15.9v43.9"/><path d="m716 163h-14.1l-9.04-14.6-8.69 14.6h-13.7l15.3-23.1-14.2-20.7h13.8l7.65 12.8 7.54-12.8h13.4l-13.9 20.7 15.8 23.1"/><path d="m650 164c-2.87 0-5.49-0.44-7.8-1.3-2.31-0.863-4.31-2.09-5.93-3.65-1.63-1.56-2.89-3.46-3.76-5.63-0.866-2.16-1.3-4.6-1.3-7.24v-27.2h11.4v26.3c0 1.12 0.14 2.18 0.426 3.17 0.291 0.986 0.727 1.87 1.3 2.62 0.566 0.751 1.33 1.35 2.27 1.8 0.948 0.444 2.11 0.671 3.47 0.671 1.36 0 2.53-0.227 3.47-0.671 0.946-0.445 1.72-1.05 2.31-1.8 0.597-0.768 1.03-1.64 1.29-2.61 0.271-1.01 0.406-2.07 0.406-3.18v-26.3h11.4v27.2c0 2.64-0.455 5.08-1.35 7.25-0.894 2.18-2.19 4.08-3.85 5.63-1.66 1.56-3.68 2.78-6.01 3.65-2.32 0.863-4.94 1.3-7.78 1.3"/><path d="m602 145h9.15l-4.52-12.5zm28.4 17.8h-12.7l-3.32-8.39h-15.8l-3.14 8.39h-12.5l18.4-43.9h10.8l0.142 0.344 18.1 43.5"/><path d="m583 163h-30.9v-43.9h29.9v9.81h-18.8v6.97h17.8v9.39h-17.8v7.76h19.9v9.93"/><path d="m516 153h4.33c1.8 0 3.55-0.206 5.21-0.617 1.63-0.405 3.09-1.07 4.33-1.99 1.24-0.909 2.23-2.14 2.97-3.66 0.746-1.53 1.12-3.45 1.12-5.73 0-2.32-0.377-4.26-1.12-5.76-0.741-1.5-1.74-2.71-2.97-3.6-1.24-0.899-2.67-1.55-4.27-1.93-1.63-0.392-3.32-0.589-5.03-0.589h-4.58zm5.3 10.1h-16.5v-43.9h16c3.04 0 6.09 0.359 9.06 1.07 3 0.721 5.71 1.93 8.04 3.59 2.35 1.68 4.28 3.95 5.73 6.75 1.44 2.81 2.18 6.31 2.18 10.4 0 3.81-0.721 7.16-2.15 9.94-1.42 2.78-3.32 5.09-5.65 6.89-2.32 1.79-4.97 3.12-7.89 3.96-2.89 0.837-5.88 1.26-8.85 1.26"/><path d="m476 137h4.35c0.818 0 1.67-0.0709 2.52-0.205 0.833-0.132 1.59-0.369 2.26-0.704 0.645-0.318 1.17-0.784 1.58-1.38 0.398-0.588 0.599-1.38 0.599-2.34 0-0.885-0.178-1.6-0.539-2.13-0.373-0.547-0.842-0.961-1.43-1.26-0.609-0.313-1.31-0.528-2.07-0.643-0.802-0.112-1.58-0.175-2.32-0.175h-4.96zm25.4 25.6h-13.4l-9.28-17h-2.63v17h-11.2v-43.9h16.9c2.08 0 4.14 0.218 6.12 0.646 2.01 0.436 3.84 1.18 5.44 2.22 1.62 1.05 2.93 2.46 3.9 4.18 0.97 1.73 1.46 3.89 1.46 6.43 0 3.01-0.83 5.59-2.48 7.65-1.5 1.89-3.55 3.29-6.11 4.19l11.3 18.5"/><path d="m435 128c-1.72 0-3.31 0.319-4.72 0.951-1.42 0.63-2.66 1.5-3.69 2.59-1.03 1.09-1.83 2.41-2.39 3.94-0.559 1.55-0.839 3.23-0.839 5 0 1.86 0.295 3.59 0.866 5.15 0.581 1.56 1.39 2.91 2.4 4.01 1.01 1.11 2.23 1.98 3.65 2.61 2.82 1.26 6.63 1.26 9.45 0 1.41-0.631 2.65-1.51 3.68-2.62 1.03-1.1 1.84-2.45 2.42-4.01 0.578-1.56 0.869-3.29 0.869-5.15 0-1.78-0.291-3.46-0.869-4.99-0.576-1.54-1.38-2.86-2.39-3.95-1.01-1.09-2.25-1.96-3.68-2.58-1.43-0.63-3.03-0.951-4.76-0.951m0 35.7c-3.39 0-6.57-0.563-9.47-1.67-2.9-1.11-5.44-2.7-7.55-4.74-2.12-2.04-3.8-4.52-4.99-7.38-1.19-2.85-1.8-6.04-1.8-9.48 0-3.48 0.605-6.67 1.8-9.48 1.19-2.82 2.87-5.25 4.99-7.23 2.11-1.97 4.65-3.51 7.55-4.58 2.89-1.07 6.07-1.61 9.46-1.61 3.39 0 6.59 0.541 9.49 1.61 2.91 1.07 5.47 2.61 7.59 4.58 2.12 1.98 3.8 4.41 5 7.23 1.19 2.82 1.79 6.01 1.79 9.48 0 3.44-0.602 6.63-1.79 9.48-1.19 2.86-2.87 5.34-4.99 7.38-2.12 2.04-4.68 3.63-7.59 4.74-2.91 1.11-6.11 1.67-9.5 1.67"/><path d="m384 136h5c1.8 0 3.2-0.362 4.17-1.07 0.921-0.681 1.37-1.67 1.37-3.02 0-1.25-0.456-2.13-1.39-2.69-1.01-0.608-2.57-0.914-4.63-0.914h-4.51zm0 17.4h5.24c0.773 0 1.59-0.0683 2.42-0.204 0.807-0.132 1.54-0.369 2.19-0.702 0.617-0.317 1.12-0.772 1.51-1.35 0.379-0.568 0.572-1.33 0.572-2.26 0-1.56-0.554-2.6-1.69-3.18-1.24-0.643-2.94-0.963-5.06-0.963h-5.18zm6.51 9.45h-17.6v-43.9h17.6c1.67 0 3.42 0.172 5.18 0.522 1.79 0.354 3.43 0.965 4.89 1.82 1.48 0.868 2.7 2.06 3.63 3.54 0.94 1.5 1.41 3.4 1.41 5.67 0 2.5-0.696 4.6-2.06 6.24-1.03 1.24-2.31 2.22-3.83 2.93 0.692 0.21 1.36 0.48 2 0.803 1.12 0.576 2.11 1.31 2.93 2.2 0.829 0.891 1.49 1.94 1.98 3.13 0.491 1.19 0.741 2.54 0.741 4.02 0 2.43-0.496 4.5-1.47 6.17-0.962 1.66-2.26 3.01-3.86 4.03-1.58 0.994-3.4 1.72-5.41 2.16-1.99 0.43-4.05 0.645-6.13 0.645"/><path d="m632 65.9h-4.65l6.03-8.7h6.82zm6.38 17.2c-0.0398-1.13-0.234-2.18-0.573-3.17-0.341-0.987-0.843-1.84-1.51-2.57-0.663-0.725-1.49-1.3-2.47-1.72-0.988-0.421-2.15-0.631-3.47-0.631-1.21 0-2.34 0.21-3.41 0.631-1.07 0.425-1.99 0.998-2.78 1.72-0.788 0.725-1.43 1.58-1.93 2.57-0.508 0.986-0.801 2.04-0.879 3.17zm5.8 2.3v0.963c0 0.326-0.0236 0.646-0.0609 0.967h-22.8c0.0398 1.2 0.31 2.33 0.818 3.39 0.501 1.06 1.17 1.98 2.02 2.76 0.842 0.779 1.82 1.39 2.93 1.83 1.11 0.44 2.28 0.658 3.53 0.658 1.93 0 3.61-0.421 5.01-1.27 1.41-0.847 2.52-1.87 3.33-3.08l3.98 3.2c-1.53 2.03-3.33 3.52-5.4 4.48-2.08 0.957-4.38 1.44-6.92 1.44-2.17 0-4.19-0.362-6.03-1.09-1.85-0.726-3.44-1.74-4.77-3.05-1.33-1.31-2.37-2.89-3.14-4.74-0.771-1.85-1.15-3.9-1.15-6.16 0-2.21 0.372-4.26 1.12-6.13 0.748-1.87 1.79-3.47 3.12-4.8 1.33-1.33 2.9-2.37 4.72-3.11 1.82-0.745 3.77-1.12 5.87-1.12 2.09 0 4 0.342 5.72 1.03 1.71 0.685 3.16 1.67 4.36 2.96 1.19 1.29 2.11 2.85 2.75 4.68 0.645 1.83 0.97 3.89 0.97 6.19"/><path d="m612 76h-7.61v14.9c0 1.73 0.322 2.96 0.97 3.7 0.643 0.745 1.67 1.11 3.08 1.11 0.526 0 1.09-0.0522 1.69-0.165 0.603-0.109 1.15-0.275 1.63-0.496l0.184 4.65c-0.685 0.24-1.44 0.43-2.27 0.572-0.824 0.143-1.68 0.211-2.57 0.211-2.7 0-4.76-0.743-6.19-2.23-1.42-1.49-2.14-3.72-2.14-6.7v-15.5h-5.5v-4.65h5.5v-8.21h5.62v8.21h7.61v4.65"/><path d="m588 99.9h-5.68v-28.6h5.68zm0.906-38.9c0 1.05-0.372 1.91-1.11 2.6-0.74 0.685-1.63 1.03-2.67 1.03-1.04 0-1.92-0.352-2.63-1.06-0.72-0.705-1.08-1.56-1.08-2.57 0-1.05 0.359-1.92 1.08-2.63 0.717-0.705 1.6-1.06 2.63-1.06 1.04 0 1.93 0.352 2.67 1.06 0.737 0.704 1.11 1.58 1.11 2.63"/><path d="m571 78.5c-0.648-1.05-1.55-1.9-2.72-2.57-1.17-0.665-2.47-0.996-3.92-0.996-0.643 0-1.29 0.0684-1.93 0.21-0.646 0.14-1.22 0.363-1.72 0.664-0.505 0.302-0.905 0.687-1.21 1.15-0.303 0.462-0.451 1.04-0.451 1.72 0 1.21 0.543 2.1 1.63 2.69 1.09 0.582 2.71 1.12 4.89 1.6 1.37 0.323 2.63 0.707 3.8 1.15 1.17 0.443 2.19 0.994 3.05 1.66 0.868 0.666 1.54 1.46 2.02 2.39 0.484 0.927 0.726 2.01 0.726 3.26 0 1.69-0.323 3.12-0.966 4.29-0.646 1.17-1.5 2.12-2.57 2.87-1.07 0.745-2.28 1.28-3.65 1.6-1.37 0.322-2.78 0.484-4.23 0.484-2.18 0-4.3-0.424-6.37-1.27-2.08-0.847-3.8-2.13-5.16-3.86l4.04-3.44c0.766 1.13 1.82 2.07 3.17 2.84 1.35 0.764 2.83 1.14 4.44 1.14 0.725 0 1.42-0.0683 2.08-0.21 0.666-0.14 1.27-0.373 1.81-0.694 0.547-0.323 0.978-0.745 1.3-1.27 0.318-0.522 0.479-1.19 0.479-1.99 0-1.33-0.631-2.32-1.9-2.96-1.27-0.643-3.13-1.25-5.59-1.81-0.966-0.242-1.95-0.532-2.93-0.874-0.988-0.343-1.88-0.817-2.69-1.42-0.807-0.603-1.46-1.36-1.97-2.26-0.5-0.905-0.755-2.02-0.755-3.35 0-1.53 0.314-2.85 0.939-3.96 0.62-1.11 1.44-2.01 2.44-2.72 1.01-0.704 2.15-1.23 3.44-1.57 1.29-0.342 2.61-0.513 3.99-0.513 2.05 0 4.04 0.403 5.94 1.21 1.91 0.806 3.39 1.97 4.44 3.5l-3.92 3.32"/><path d="m533 74.5c-0.041-1.21-0.0982-2.27-0.181-3.2h5.38c0.0758 0.726 0.138 1.56 0.178 2.51 0.0385 0.948 0.0585 1.72 0.0585 2.33h0.183c0.806-1.69 1.98-3.05 3.53-4.07 1.55-1.03 3.29-1.54 5.23-1.54 0.88 0 1.62 0.0796 2.23 0.24l-0.241 5.25c-0.801-0.2-1.67-0.305-2.59-0.305-1.37 0-2.56 0.255-3.56 0.758-1.01 0.502-1.84 1.17-2.51 2.02-0.664 0.844-1.15 1.82-1.47 2.93-0.328 1.11-0.486 2.26-0.486 3.47v15h-5.68v-22.5c0-0.764-0.0212-1.75-0.0609-2.96"/><path d="m520 83.1c-0.0398-1.13-0.234-2.18-0.576-3.17-0.338-0.987-0.84-1.84-1.51-2.57-0.664-0.725-1.48-1.3-2.47-1.72-0.988-0.421-2.14-0.631-3.47-0.631-1.21 0-2.34 0.21-3.41 0.631-1.07 0.425-1.99 0.998-2.78 1.72-0.787 0.725-1.43 1.58-1.93 2.57-0.508 0.987-0.802 2.04-0.879 3.17zm5.8 2.3v0.965c0 0.323-0.0273 0.646-0.0634 0.965h-22.8c0.0385 1.2 0.312 2.33 0.815 3.39 0.505 1.06 1.17 1.98 2.02 2.76 0.844 0.781 1.82 1.39 2.93 1.83 1.11 0.44 2.28 0.659 3.53 0.659 1.93 0 3.61-0.423 5.01-1.27 1.41-0.848 2.52-1.87 3.32-3.08l3.98 3.2c-1.53 2.03-3.33 3.52-5.4 4.48-2.08 0.957-4.38 1.44-6.92 1.44-2.18 0-4.19-0.362-6.04-1.09-1.85-0.726-3.44-1.74-4.77-3.05-1.33-1.31-2.37-2.89-3.14-4.74-0.771-1.85-1.15-3.9-1.15-6.16 0-2.21 0.37-4.26 1.12-6.13 0.747-1.87 1.79-3.47 3.12-4.8 1.33-1.33 2.91-2.36 4.72-3.11 1.82-0.743 3.77-1.12 5.86-1.12 2.1 0 4 0.342 5.72 1.03 1.72 0.685 3.17 1.67 4.36 2.96 1.19 1.29 2.11 2.85 2.75 4.68 0.646 1.83 0.972 3.89 0.972 6.19"/><path d="m482 99.9h-6.16l-11.7-28.6h6.28l8.4 22.5h0.119l8.45-22.5h6.04l-11.5 28.6"/><path d="m458 99.9h-5.67v-28.6h5.67zm0.909-38.9c0 1.05-0.37 1.91-1.11 2.6s-1.63 1.03-2.67 1.03c-1.04 0-1.92-0.352-2.64-1.06-0.716-0.705-1.08-1.56-1.08-2.57 0-1.05 0.362-1.92 1.08-2.63 0.72-0.705 1.6-1.06 2.64-1.06 1.03 0 1.93 0.352 2.67 1.06 0.738 0.704 1.11 1.58 1.11 2.63"/><path d="m423 71.3c0.0783 0.725 0.137 1.54 0.178 2.45 0.0398 0.906 0.0634 1.66 0.0634 2.26h0.178c0.363-0.764 0.856-1.48 1.48-2.14 0.623-0.664 1.33-1.25 2.15-1.75 0.802-0.502 1.69-0.894 2.66-1.18 0.966-0.282 1.97-0.423 3.02-0.423 1.85 0 3.44 0.312 4.77 0.936 1.33 0.624 2.44 1.46 3.33 2.5 0.881 1.05 1.54 2.28 1.96 3.68 0.425 1.41 0.635 2.92 0.635 4.53v17.8h-5.67v-15.9c0-1.17-0.0945-2.27-0.273-3.32-0.184-1.05-0.513-1.97-0.998-2.78-0.481-0.806-1.14-1.45-1.99-1.93-0.844-0.485-1.93-0.725-3.26-0.725-2.25 0-4.09 0.856-5.52 2.57-1.43 1.71-2.14 4-2.14 6.85v15.2h-5.68v-22.5c0-0.764-0.0174-1.75-0.0597-2.96-0.0398-1.21-0.0982-2.27-0.181-3.2h5.38"/><path d="m391 101c-2.82 0-5.27-0.472-7.37-1.42-2.09-0.946-3.82-2.2-5.19-3.77-1.37-1.57-2.38-3.37-3.05-5.4-0.665-2.03-0.994-4.14-0.994-6.31v-26.9h5.98v26.6c0 1.45 0.184 2.89 0.544 4.32 0.363 1.43 0.955 2.71 1.78 3.83 0.824 1.13 1.91 2.03 3.26 2.72 1.35 0.685 3.03 1.03 5.04 1.03 1.97 0 3.64-0.341 5.01-1.03 1.37-0.684 2.47-1.59 3.29-2.72 0.824-1.13 1.42-2.41 1.78-3.83 0.363-1.43 0.544-2.87 0.544-4.32v-26.6h5.98v26.9c0 2.17-0.331 4.28-0.994 6.31-0.668 2.03-1.69 3.83-3.05 5.4-1.37 1.57-3.1 2.83-5.19 3.77-2.1 0.946-4.55 1.42-7.37 1.42"/></g></g></svg>
