<?xml version="1.0" encoding="UTF-8"?>
<!-- Created with Inkscape (http://www.inkscape.org/) -->
<svg width="800" height="190" version="1.1" viewBox="0 0 800 190" xmlns="http://www.w3.org/2000/svg">
  <g transform="matrix(3.7795 0 0 3.7795 .0018 -.00017427)" stroke-width=".26458">
   <path d="m-6.4758e-4 50.271h211.67v-50.271h-211.67z" fill="#fff" opacity=".57001"/>
   <path d="m49.933 13.766c-0.02265-0.06796-0.06602-0.1191-0.08609-0.18965-0.02136-0.07508-0.05178-0.14499-0.07702-0.21684-0.0479-0.13722-0.1767-0.26797-0.11068-0.4149 0.02848-0.06343 0.07055-0.11133 0.11521-0.16311 0.03366-0.03884 0.08803-0.06732 0.09838-0.12039 0.0052-0.02395 0.0071-0.0945 6.48e-4 -0.12104-0.0071-0.02783-0.05113-0.05113-0.07185-0.06926-0.05502-0.0479-0.10809-0.0822-0.17023-0.12233-0.20195-0.12622-0.41231-0.22331-0.63691-0.29968-0.0958-0.03366-0.18447-0.07897-0.2712-0.13204-0.0246-0.01489-0.05243-0.02977-0.07185-0.05178-0.02136-0.02589-0.03689-0.05437-0.04725-0.08673-0.03884-0.05761-0.0822-0.11198-0.1314-0.16052-0.13269-0.16311-0.25632-0.34952-0.47768-0.3916-0.25955-0.04855-0.51976-0.05437-0.78384-0.05308-0.16764 6.48e-4 -0.31651-0.04531-0.47704-0.09644-0.16958-0.05308-0.34305-0.09321-0.51264-0.14369-0.11974-0.0356-0.24014-0.04337-0.36441-0.04725-0.12751-0.0039-0.25114-0.02524-0.37995-0.02395-0.39613 0.0013-0.78772-0.0071-1.1832 0.02848-0.26603 0.02395-0.51911 0.04401-0.78578 0.04207-0.18706-0.0013-0.36959 0.02654-0.556 0.02654-0.14952-0.0013-0.28156-0.01036-0.42526-0.04984-0.19224-0.05178-0.38318-0.04855-0.58125-0.04725-0.18641 0-0.37477-0.01036-0.56118 0.01036-0.17282 0.01877-0.34176 0.06343-0.51522 0.07961-0.22072 0.01942-0.43237 0.05696-0.65115 0.0958-0.10486 0.01877-0.20972 0.03495-0.31457 0.05243-0.22784 0.03884-0.44856 0.10809-0.67639 0.14693-0.25179 0.04272-0.49386 0.07185-0.75083 0.07055-0.23431-0.0013-0.46862 0-0.70228-6.47e-4 -0.26279 0-0.5217 0.01877-0.78384 0.02589-0.11586 0.0026-0.23172-0.0052-0.34758-0.0032-0.15923 0.0032-0.31651 0.02395-0.47574 0.02654-0.27056 0.0045-0.54176-0.0013-0.81232-0.0013-0.25632 0-0.51587 0.01359-0.7709-0.011-0.19483-0.01877-0.38512-0.05502-0.57866-0.07961-0.24855-0.03107-0.49581-0.03884-0.74565-0.02395-0.30486 0.01748-0.60908 0.04078-0.91329 0.06214-0.07055 0.0045-0.13981 0.0065-0.21101 0.0052-0.02719-6.47e-4 -0.0712-0.0084-0.09903 0.0032-0.06537 0.02783-0.11262 0.09126-0.18771 0.11198-0.09321 0.02589-0.17606 0.03625-0.26603 0.07767-0.05307 0.0233-0.10809 0.02524-0.1644 0.03431-0.07961 0.01295-0.15664 0.03301-0.23561 0.04919-0.14628 0.02977-0.29192 0.05049-0.44014 0.06537-0.23884 0.0233-0.47704 0.03625-0.71652 0.04854-0.21166 0.0045-0.42396 0.01165-0.63626 0.01295-0.77931 0.0045-1.558-0.0058-2.3366-0.01748-0.01683-0.0084-0.0343-0.01295-0.05178-0.02071-0.10033-0.04725-0.21813-0.08091-0.32428-0.10227-0.15988-0.03107-0.34111-0.06667-0.50422-0.07249-0.12686-0.0045-0.25502 0.0013-0.38254 0.0013h-0.18641c-0.03819 0-0.08414-0.0071-0.12169-0.0013-0.03495 0.0052-0.06537 0.02201-0.10162 0.02654-0.09968 0.01295-0.20454-0.01036-0.30357-0.01942-0.17217-0.01748-0.33205 0.0013-0.50098 0.03301-0.28027 0.05372-0.58966 0.04919-0.86928-0.01489-0.09385-0.02136-0.16958-0.05243-0.26667-0.04401-0.12169 0.011-0.24337 0.01618-0.36506 0.02589-0.14369 0.01036-0.28609 0.04143-0.43108 0.04401-0.29127 0.0045-0.57736-0.0013-0.86604 0.04143-0.20583 0.02977-0.40843 0.0233-0.6162 0.02783-0.15081 0.0026-0.30163 0.03819-0.45244 0.04596-0.13981 0.0084-0.26603 0.02913-0.40066 0.06343-0.09774 0.02589-0.14369 0.04984-0.22201 0.12557-0.06991 0.06796-0.12881 0.13269-0.18124 0.2136-0.13463 0.20907-0.40195 0.24531-0.61879 0.32687-0.10033 0.03819-0.18771 0.0822-0.27962 0.13204-0.06084 0.03366-0.08285 0.06408-0.12428 0.11845-0.06084 0.08091-0.15017 0.15534-0.17929 0.25696-0.02201 0.07767 0.01618 0.15276 0.02913 0.23043 0.01424 0.09126-0.0071 0.17023-0.01683 0.26085-0.0123 0.11198 0.01748 0.21166 0.0233 0.32104 0.0058 0.11586-0.0123 0.22719 0.01942 0.3424 0.01618 0.06084 0.04078 0.10615 0.07379 0.15728 0.04466 0.06926 0.14564 0.1534 0.16764 0.23366 0.02007 0.07379-0.0019 0.16829 6.47e-4 0.24337 0.0039 0.10421 0.05502 0.19353-0.0019 0.28803-0.06343 0.1055-0.15276 0.18836-0.21619 0.29256-0.04337 0.06991-0.06732 0.14175-0.0233 0.21748 0.10356 0.178 0.27379 0.34305 0.23755 0.56442-0.01424 0.08609-0.03172 0.17412-0.04596 0.26085-0.01618 0.10292-0.0091 0.20907-0.03172 0.31069-0.0091 0.03948-0.01618 0.07379-0.04143 0.10809-0.02783 0.03884-0.07573 0.07055-0.09515 0.11521-0.03301 0.07573 0.02266 0.05631 0.0712 0.10615 0.04078 0.04143 0.02783 0.11004 0.02848 0.16182 0.0013 0.13852-0.04013 0.23949-0.11521 0.35794-0.03689 0.05761-0.05955 0.0835-0.05437 0.15081 0.0071 0.08997 0.0479 0.16505 0.06926 0.2492 0.01618 0.06602-0.0019 0.13657 0.0026 0.20195 0.0032 0.04466 0.02136 0.08285 0.02654 0.12622 0.0058 0.04337-0.0013 0.09126-0.0013 0.13528 0 0.30227 0.0479 0.67769 0.35923 0.82073 0.60649 0.27832 1.2913 0.1411 1.9327 0.14305 0.3327 0.0013 0.66668-0.0091 0.99938 0.0019 0.12881 0.0045 0.25632 0.02395 0.38512 0.02524 0.16246 0.0019 0.32299-0.02783 0.48416-0.04531 0.27444-0.03107 0.54565-0.10033 0.82138-0.1178 0.61037 0.01748 1.2214 0.02524 1.8344 0.0065 0.33982-0.01036 0.68028-0.02589 1.0207-0.03819 0.1191-6.47e-4 0.23755 0 0.356-0.0058 0.33528-0.01683 0.6641-0.02395 0.99938-6.48e-4 0.48933 0.03236 0.97802 0.02913 1.468 0.02978 0.07185 0 0.16376 0.01294 0.2369-0.0032 0.0589-0.01294 0.11651-0.03819 0.17476-0.05437 0.10939-0.03042 0.20324-0.08285 0.30875-0.11198 0.11004-0.0052 0.22072-0.01036 0.33075-0.01553 0.34952 0.01877 0.68934 0.10486 1.0395 0.13334 0.26538 0.02071 0.52364-0.03819 0.78319-0.08867 0.11068-0.02136 0.21101-0.02719 0.32234-0.02913 0.20389-0.0052 0.40648-0.04855 0.60908-0.07055 0.45697-0.04855 0.91524-0.06667 1.3735-0.09062 0.27638-0.01424 0.54759 0.0039 0.82332 0.02007 0.21295 0.01165 0.42461 0.04725 0.63885 0.04854 0.13204 0 0.24984 0.02395 0.37995 0.04272 0.13852 0.01877 0.29256 0.0071 0.43173 0.0058 0.16182-0.0026 0.32104-0.02006 0.48157-0.0356 0.57736-0.05567 1.1606-0.05567 1.725-0.20065 0.27832-0.0712 0.56765-0.09062 0.84986-0.14434 0.08803-0.01618 0.17412-0.02977 0.2602-0.04466 0.5081-0.0091 1.0156-0.02006 1.5224-0.03495 0.01424 0 0.02848 0.0026 0.04207 0.0026 0.38448-0.0026 0.77672-0.0233 1.156 0.04725 0.09126 0.01618 0.17347 0.0466 0.26603 0.04984 0.08609 0.0026 0.17282-0.0013 0.25955-0.0013 0.1903 0.0013 0.37606-0.02524 0.56701-0.02395 0.22331 0.0032 0.44597-0.03301 0.66345-0.07702 0.2492-0.05049 0.4984-0.09321 0.74695-0.14628 0.10033-0.02071 0.18836-0.01165 0.29127-0.01618 0.07638-0.0026 0.15017-0.02395 0.22654-0.02654 0.02977 0 0.06602 0.0078 0.09515 0.0026 0.03884-0.0065 0.06084-0.0233 0.10356-0.02589 0.03948-0.0019 0.07055 0.0032 0.10809-0.0045 0.04337-0.0091 0.07379-0.02977 0.12557-0.01359 0.0039 0.01489-0.0039 0.02136-0.04596 0.04272 0.04466 0.0065 0.07379-0.0071 0.11521-0.01748 0.06343-0.01489 0.12686-0.01942 0.1903-0.02783 0.26538-0.03948 0.53853-0.09838 0.79679-0.17152 0.08285-0.02266 0.13852-0.04466 0.17476-0.12363 0.01359-0.02848 0.01877-0.05955 0.04078-0.08414 0.05243-0.03948 0.10939-0.07379 0.17023-0.10033 0.08738-0.04531 0.17476-0.09062 0.2615-0.13528 0.06667-0.03689 0.15858-0.08091 0.22331-0.12945 0.04725-0.03431 0.03884-0.05308 0.06149-0.09968 0.02783-0.05761 0.0835-0.10486 0.13204-0.14564 0.08932-0.07508 0.19612-0.13981 0.30292-0.18576 0.06278-0.02783 0.13463-0.0466 0.19418-0.08091 0.1055-0.0602 0.21036-0.17994 0.26732-0.28933 0.0602-0.11716-0.0084-0.26667 0.03689-0.38966 0.03107-0.0835 0.10809-0.18318 0.18188-0.23302 0.09321-0.06343 0.1547-0.12104 0.18771-0.22913 0.01683-0.05631 0.0246-0.1068 0.0233-0.16699-0.0013-0.08544 0.02201-0.16311 0.02524-0.24726 0.0071-0.18059-0.01812-0.367-0.0026-0.54759 0.0078-0.08738 0.0466-0.167 0.05049-0.25826 0.0039-0.07961-0.0026-0.15146 0.01553-0.22978 0.02913-0.12492 0.07185-0.24531 0.10486-0.36894 0.02201-0.08609 0.04142-0.18641 0.0123-0.27444" fill="#ad352f"/>
   <path d="m42.676 23.223c0.07897-0.10939 0.13593-0.18577 0.13722-0.3191 0.0013-0.08738-0.0032-0.14434-0.06473-0.20842-0.11004-0.11392-0.28544-0.2123-0.35147-0.36182-0.07961-0.17865 0.18706-0.32169 0.14758-0.49645-0.05566-0.24596-0.39742-0.30616-0.59872-0.36247-0.12233-0.0343-0.25696-0.06214-0.38448-0.07055-0.12945-0.0091-0.26538 0.0013-0.378-0.06796-0.12816-0.07897-0.2013-0.21748-0.31522-0.31522-0.09256-0.07832-0.19483-0.14758-0.29968-0.20842-0.33852-0.19677-0.75083-0.30486-1.1385-0.36247-0.29321-0.04337-0.58125-0.10356-0.88028-0.10421-0.11457 0-0.22913 0.0032-0.3437 0.0026-0.50681-0.0039-0.97996 0.21036-1.4816 0.2602-0.16376 0.01618-0.33205 0.0032-0.49645 0.0039-0.15081 6.47e-4 -0.2971-0.0019-0.44661-0.02395-0.29904-0.04337-0.59743-0.08673-0.89776-0.12686-0.20842-0.02783-0.41166-0.08738-0.62073-0.10874-0.17152-0.01683-0.35082-0.0052-0.52234-0.0045h-0.88999c-0.17606 0-0.35276-0.0058-0.52946-0.0013-0.22654 0.0058-0.45114 0.02654-0.67834 0.02589-0.39872-0.0019-0.79549 0.02589-1.1936 0.0233-0.4984-0.0026-0.9955-0.0039-1.4932-0.02395-0.16376-0.0071-0.32752-0.01424-0.49063-0.0233-0.05308-0.0032-0.1055-0.0032-0.07767-0.06861-0.03819-0.01942-0.39483-0.02524-0.31069-0.02136-0.45697-0.02071-0.91394-0.02395-1.3716-0.03107-0.18706-0.0026-0.36894-0.0084-0.55536-0.01812-0.09644-0.0052-0.19548-0.01553-0.29192-6.47e-4 -0.13787 0.02071-0.27703 0.04078-0.41425 0.06602-0.14887 0.02654-0.29256 0.0589-0.44402 0.07444-0.42978 0.04596-0.8654 0.01618-1.2965 0.02783-0.75471 0.02006-1.5101 0.02589-2.2635 0.08479-0.34823 0.02718-0.6861 0.05437-1.0363 0.03625-0.33658-0.01748-0.67316-0.02977-1.0097-0.03107-0.28739-0.0013-0.5696-0.0032-0.85569 0.04143-0.12492 0.01942-0.24984 0.04207-0.37412 0.06602-0.32428 0.06149-0.63044 0.2136-0.96249 0.23107-0.57671 0.03042-1.1618 0.05696-1.7321 0.1534-0.28803 0.04919-0.57218 0.10486-0.86022 0.15793-0.17023 0.03172-0.34046 0.06408-0.51328 0.08868-0.2123 0.02977-0.40066 0.11586-0.60131 0.18382-0.09838 0.03366-0.20777 0.04337-0.30292 0.08479-0.10097 0.04337-0.18253 0.11004-0.28803 0.14564-0.08414 0.02848-0.18771 0.07314-0.25373 0.13463-0.03948 0.03754-0.06991 0.0712-0.11651 0.10421-0.07508 0.05243-0.14369 0.12686-0.22719 0.16635-0.05437 0.02589-0.07444 0.03754-0.11004 0.08803-0.02524 0.0343-0.03884 0.07249-0.0602 0.10874-0.0246 0.04078-0.06084 0.0699-0.08803 0.10874-0.04207 0.05761-0.08609 0.11392-0.12945 0.17023-0.05243 0.06861-0.10939 0.11521-0.16958 0.17606-0.06084 0.06084-0.09644 0.14369-0.14628 0.2136-0.1411 0.19871-0.23625 0.41425-0.30551 0.6505-0.04272 0.14564-0.08932 0.33917-0.02848 0.4848 0.0233 0.05567 0.06537 0.10939 0.10033 0.15729 0.04919 0.06796 0.04919 0.08738 0.04725 0.17088-0.0032 0.12686 0.0052 0.25438 6.47e-4 0.38059-0.0026 0.08414-0.02977 0.14693-0.04531 0.22784-0.02783 0.14822-0.01877 0.3068-0.03431 0.45632-0.01618 0.15534-0.02395 0.30939-0.02007 0.46538 0.0071 0.30227 0.1314 0.6162 0.05372 0.91912-0.04984 0.19483-0.16764 0.367-0.17347 0.57218-0.0052 0.19936 0.0233 0.40001 0.04272 0.59743 0.01359 0.13075 0.01942 0.3437 0.12298 0.44273 0.04337 0.04078 0.10615 0.03754 0.15923 0.05178 0.06602 0.01748 0.12751 0.03236 0.19418 0.04531 0.12622 0.0233 0.24661 0.04855 0.37412 0.06343 0.07055 0.0078 0.10292 0.0097 0.15858-0.02395 0.04143-0.02524 0.07832-0.04596 0.12622-0.06084 0.04272-0.01359 0.14175-0.01877 0.16764-0.02977 0.15081-0.0078 0.30357-0.02977 0.45568-0.03689 0.31263-0.01553 0.62526-0.0078 0.93854-0.02978 0.1178-0.0084 0.2356 0 0.35341-0.0097 0.23819-0.01942 0.46992-0.08285 0.70552-0.11716 0.20777-0.02977 0.41166-0.03884 0.62073-0.04919 0.15405-0.0078 0.30939-0.04531 0.46215-0.06537 0.17088-0.02266 0.33917-0.03172 0.51199-0.03042 0.05113 0 0.1055-0.0045 0.1547 0.01489 0.04143 0.01683 0.0699 0.04919 0.11198 0.06667 0.08932 0.03754 0.20454 0.03884 0.29451 0.04272 0.15146 0.0058 0.30292 0.01359 0.45438 0.01942 0.22136 0.0091 0.44467 0.02589 0.66604 0.02783 0.23043 0.0026 0.4615-0.0078 0.69193 0.0039 0.12169 0.0065 0.24208 0.02007 0.36441 0.02265 0.17282 0.0032 0.3424-0.02395 0.51264-0.05178 0.29904-0.04919 0.59354-0.11262 0.89582-0.13852 0.39095-0.03301 0.76831-0.03042 1.1599 0.0013 0.25049 0.02006 0.50098 0.01683 0.75148 0.03495 0.31846 0.02266 0.63432 0.0466 0.95407 0.05437 0.33658 0.0078 0.67186 0.02589 1.0091 0.0246 0.47186-0.0019 0.94048 0.0019 1.4117 0.0343 0.2369 0.01683 0.46603 0.0091 0.70358-0.0091 0.1767-0.01359 0.367-0.01489 0.54112-0.04531 0.29192-0.05049 0.58125-0.14822 0.86022-0.24726 0.06279-0.02201 0.11586-0.0233 0.18318-0.02266 0.19418 0.0039 0.38642 0.03625 0.57801 0.06667 0.26344 0.04207 0.53141 0.07185 0.79679 0.09126 0.22784 0.01683 0.46603 0.03689 0.69452 0.03625 0.18188 0 0.36053-0.01553 0.54176-0.03042 0.23625-0.01877 0.48804-0.07249 0.72494-0.03754 0.14499 0.02136 0.28415 0.02654 0.43108 0.0097 0.11457-0.01295 0.22654-0.0466 0.34111-0.05955 0.15211-0.01748 0.30939-0.0032 0.46215-0.0026 0.22525 0.0019 0.44856-0.03236 0.67316-0.01359 0.27315 0.0233 0.54888 0.01359 0.82332 0.01295 0.47704-0.0013 0.95213 0.02265 1.4292 0.02524 0.4984 0.0032 0.99679-0.0019 1.4958-0.0013 0.22719 6.48e-4 0.45632 0.0039 0.68416 0.0019 0.28933-0.0026 0.57348-0.03495 0.86281-0.04531 0.1657-0.0058 0.3314-0.0026 0.4971-0.01036 0.15081-0.0071 0.31587 0.0026 0.46409-0.0233 0.10939-0.01942 0.2013-0.08868 0.30422-0.12686 0.21101-0.07832 0.43626-0.09515 0.65698-0.12622 0.07638-0.011 0.11845-0.02913 0.18576-0.06861 0.15017-0.08932 0.29968-0.16894 0.47186-0.20324 0.09709-0.01877 0.19742-0.03366 0.29321-0.0602 0.07444-0.02006 0.18188-0.09191 0.26279-0.07767-0.01683 0.02136-0.04143 0.02007-0.06861 0.02071 0.03948-0.0013 0.08673 0.0071 0.12428-0.0058-0.02136-0.06084-0.02265-0.07832 0.0026-0.15276 0.0246-0.07443 0.05825-0.13787 0.09839-0.20518 0.04013-0.06732 0.03366-0.09774 0.05049-0.16764 0.0065-0.02654 0.03107-0.04596 0.03884-0.0699 0.011-0.03301 0.0045-0.06861 0.0045-0.10227-0.0013-0.08868-0.0013-0.17088-0.01942-0.25826-0.01877-0.08868 0.02848-0.17023 0.04854-0.25632 0.03107-0.13269 0.10227-0.20324 0.01877-0.32687-0.05825-0.08803-0.06602-0.16376-0.02395-0.26214 0.0479-0.11327 0.12492-0.22072 0.18965-0.32493 0.02654-0.04272 0.08026-0.10356 0.0958-0.15599 0.01165-0.04337 0.01295-0.12686 0.0013-0.17153-0.0084-0.0343-0.03495-0.06796-0.04725-0.10097-0.02589-0.06667-0.03301-0.13916-0.04207-0.20907-0.0091-0.06926-0.02007-0.13916-0.02007-0.20907 6.47e-4 -0.09126 0.02783-0.17541 0.03495-0.26473 0.0045-0.05502-0.0065-0.08803-0.01424-0.13852-0.01165-0.07379-0.0065-0.14887-0.0065-0.22331 0-0.05308-0.0084-0.11651 0.0032-0.16829 0.02848-0.12622 0.14628-0.2356 0.22007-0.33787" fill="#e98c5c"/>
   <path d="m53.742 36.591c-0.04725-0.13075-0.03042-0.26991-0.03107-0.40713-6.48e-4 -0.21295 0.02718-0.42396 0.02524-0.63691-0.0019-0.21942 0.0233-0.43302 0.0233-0.6518 0-0.10874-0.0045-0.20454-0.01877-0.31198-0.01489-0.11004 0.0052-0.21878-0.0019-0.32816-0.0091-0.14693-0.12298-0.27897-0.19159-0.40131-0.04013-0.07055-0.09774-0.15793-0.10162-0.23884-0.01165-0.26085-0.03042-0.5217-0.02395-0.78384 0.0045-0.17606 0.07055-0.3068 0.1178-0.47056 0.03754-0.12622 0.02201-0.26667-6.47e-4 -0.39548-0.03819-0.2123-0.12169-0.38383-0.25438-0.55082-0.06343-0.08026-0.13463-0.15405-0.19806-0.23366-0.02977-0.03689-0.05437-0.07767-0.08609-0.11457-0.05049-0.0589-0.0822-0.11327-0.12492-0.178-0.0712-0.10615-0.16764-0.16894-0.22136-0.29127-0.02719-0.06149-0.04337-0.12492-0.0589-0.18965-0.01877-0.07702-0.02848-0.15793-0.05308-0.23431-0.04596-0.14499-0.10745-0.25567-0.20648-0.36894-0.13722-0.15858-0.30292-0.25438-0.49257-0.33982-0.14369-0.06473-0.29256-0.08414-0.44273-0.11198-0.08609-0.03754-0.17541-0.0699-0.26862-0.09515-0.01424-0.0071-0.02719-0.0123-0.04272-0.02201-0.08673-0.05178-0.17865-0.08414-0.27509-0.10745-0.09062-0.02071-0.17476-0.05308-0.26797-0.06537-0.13528-0.01683-0.26538-0.0246-0.4026-0.0246-0.35535 0-0.70617 0.01748-1.0609 0.0233-0.26603 0.0045-0.52946 0.02654-0.79549 0.02524-0.33075-0.0013-0.66021 0.02524-0.99097 0.0246-0.48221-0.0026-0.96443-6.47e-4 -1.4466-6.47e-4 -0.22525 0-0.45697 0.01877-0.68157-0.0032-0.11392-0.01165-0.23172-0.04984-0.34305-0.07185-0.22201-0.04466-0.44597-0.08414-0.66604-0.13852-0.1411-0.03366-0.23949-0.05502-0.38771-0.05113-0.21748 0.0052-0.4369 0.01877-0.65374 0.04207-0.17347 0.01748-0.33787 0.05113-0.50746 0.08803-0.22913 0.04919-0.45697 0.12428-0.68869 0.16182-0.33917 0.05437-0.71588 0.03884-1.0563 0.02783-0.07314-0.0026-0.20777 0.0052-0.28933-0.0097-0.03431-0.0058-0.06537-0.01877-0.10097-0.02201-0.11521-0.01036-0.23302 0.01165-0.34694 0.01942-0.17023 0.01165-0.3437 0.0039-0.51393 0.0052-0.26603 0.0019-0.53141 0.01618-0.79678 0.02395-0.1424 0.0045-0.2848 0.02783-0.4272 0.02654-0.14369-6.47e-4 -0.28868-0.01618-0.43173-0.02071-0.33528-0.01294-0.67122-0.0058-1.0071-0.0058-0.15405 0-0.3191 0.01553-0.4725-0.0026-0.19353-0.02266-0.378-0.11198-0.5683-0.15211-0.11974-0.02589-0.24273-0.01489-0.36312 0.0032-0.31069 0.04531-0.62202 0.08803-0.9366 0.07638-0.14046-0.0058-0.2602-0.05437-0.39548-0.07055-0.05178-0.0065-0.10809 0.0032-0.16117 0-0.14693-0.0091-0.28739-0.02266-0.43561-0.02266-0.2356 6.48e-4 -0.46862 0.02395-0.70358 0.02589-0.20972 0.0013-0.41943-0.0123-0.6285 0.0097-0.1191 0.01294-0.24143 0.02913-0.35794 0.05761-0.13528 0.03366-0.26473 0.08544-0.40066 0.1178-0.16246 0.03819-0.32687 0.06861-0.48933 0.10745-0.12945 0.03107-0.25502 0.07379-0.38771 0.08932-0.13981 0.01618-0.27962 0.02783-0.41943 0.04855-0.14046 0.02071-0.29386 0.03236-0.43043 0.06602-0.0084 0.0019-0.01683 0.0032-0.02524 0.0045-0.26085 0.02718-0.52105 0.0589-0.7819 0.08867-0.14434-0.0071-0.28868-0.01489-0.43496-0.01489-0.24272 0-0.48221 0.02201-0.72429 0.02524-0.14628 0.0026-0.29321-6.48e-4 -0.44014-0.0013-0.07185 0-0.14693-0.0039-0.21942-0.0019-0.06408 0.0032-0.12104 0.02395-0.18512 0.02654-0.17735 0.0091-0.34564-0.0013-0.5217 0.01812-0.13398 0.01424-0.27444 0.02136-0.40843 0.02913-0.08026 0.0052-0.15923 0.01748-0.23884 0.02201-0.07055 0.0045-0.14434-0.0058-0.21425 0.0071-0.14499 0.02913-0.27056 0.09321-0.41296 0.13398-0.07508 0.02201-0.15276 0.02524-0.22719 0.04596-0.11586 0.03301-0.22331 0.08932-0.34111 0.12039-0.11521 0.03236-0.22978 0.06926-0.34564 0.09838-0.07832 0.01877-0.15793 0.0246-0.23366 0.05437-0.17152 0.06926-0.3314 0.16764-0.48739 0.2615-0.08738 0.05308-0.1903 0.08285-0.2848 0.11974-0.11327 0.04531-0.21878 0.10615-0.32363 0.16894-0.10097 0.06084-0.20065 0.12039-0.30939 0.16635-0.1534 0.06473-0.2848 0.16635-0.43432 0.24143-0.17153 0.08609-0.35082 0.17606-0.4861 0.31457-0.07185 0.07379-0.16505 0.15987-0.19418 0.26214-0.06214 0.21748-0.08803 0.47056 0.0084 0.68416 0.03819 0.08479 0.05437 0.16764 0.10745 0.2479 0.04531 0.06926 0.08544 0.13075 0.11974 0.20583 0.03366 0.07444 0.04854 0.14305 0.09256 0.21619 0.04272 0.0699 0.0945 0.13463 0.1411 0.20195 0.03884 0.05502 0.08156 0.12169 0.09774 0.18835 0.0589 0.24531-0.15017 0.48739-0.22395 0.70487-0.0369 0.10874-0.04402 0.2136-0.06473 0.32363-0.01036 0.05437-0.02977 0.10227-0.01812 0.15858 0.02071 0.10292 0.11262 0.19742 0.16311 0.28415 0.0958 0.16441 0.14887 0.33982 0.19806 0.5217 0.02071 0.07573 0.04466 0.15211 0.04725 0.22978 0.0039 0.1424-0.0071 0.2835 0.01036 0.42526 0.01553 0.12622 0.01683 0.23107 0.1055 0.32234 0.06149 0.06408 0.11198 0.12363 0.18706 0.17347 0.02201 0.01489 0.06732 0.03107 0.07961 0.05696 0.02654 0.05502-0.0045 0.189-0.02071 0.23819-0.04596 0.14175-0.12622 0.29321-0.21942 0.40842-0.05243 0.06473-0.11974 0.09321-0.11974 0.18059 6.47e-4 0.15729 0.12622 0.26926 0.22848 0.37153 0.06278 0.06214 0.09774 0.1301 0.17929 0.16958 0.10097 0.04984 0.20907 0.09126 0.3068 0.14822 0.09062 0.05243 0.17412 0.14305 0.28027 0.16117 0.06667 0.01165 0.1411 0.0026 0.20971 0.0013 0.22654-0.0013 0.4492 0.0589 0.67251 0 0.09968-0.02524 0.19742-0.06473 0.2958-0.08285 0.05631-0.011 0.10874-0.03495 0.16182-0.05372 0.53141 0.05437 1.0602 0.11392 1.5923 0.14564 0.04531 0.01748 0.09062 0.03625 0.13593 0.05372 0.09968 0.03819 0.20842 0.05631 0.31522 0.05955 0.20583 0.0058 0.41037 0.01748 0.61555 0.0246 0.21813 0.0071 0.43626-0.02201 0.65439-0.02524 0.26991-0.0045 0.53141-0.07767 0.79938-0.09256 0.32299-0.01748 0.64468-0.05825 0.96702-0.09062 0.46474-0.0123 0.93012-0.02266 1.3949-0.03236 0.70876-0.01489 1.4175-0.02848 2.1263-0.04272 0.01424 0.0039 0.02913 0.0052 0.04337 0.0084 0.34823 0.09839 0.69646 0.18641 1.0531 0.24984 0.39872 0.07055 0.79938 0.12039 1.2026 0.15664 0.49386 0.04401 0.98773 0.03431 1.4829 0.03495 0.35017 0 0.69775 0.01036 1.0447-0.04466 0.35406-0.05502 0.64921-0.2013 0.98126-0.32363 0.19418-0.07185 0.39678-0.12298 0.60131-0.16182 0.98385-0.0026 1.967-6.48e-4 2.9509 0.0091 0.03884 0 0.07832 0.0013 0.11716 0.0019 0.19677 0.06149 0.38706 0.13075 0.59548 0.14628 0.47186 0.03301 0.94501 0.0045 1.4156 0.06214 0.05761 0.0091 0.11457 0.01877 0.17217 0.02783 0.03625 0.011 0.06214 0 0.07767-0.03495 0.03107-0.01618 0.02913-0.02783 0.06926-0.03884 0.09191-0.02718 0.22913-0.0084 0.32234 0.0019 0.10033 0.01036 0.19936 0.01489 0.29968 0.02201 0.12169 0.0091 0.24337 0.03107 0.36441 0.04531 0.21813 0.02395 0.4382 0.02848 0.65698 0.04143 0.29515 0.01683 0.59031 0.02977 0.88417 0.06343 0.18771 0.02201 0.378 0.01812 0.56636 0.04272 0.12169 0.01489 0.23496 0.0589 0.356 0.07961 0.2356 0.03819 0.47704 0.06278 0.71523 0.07961 0.16052 0.01165 0.32234 0.03042 0.48351 0.02848 0.04337-6.47e-4 0.08414-6.47e-4 0.12751 0.0052 0.33593 0.04337 0.68546 0.0026 1.0227-0.011 0.2259-0.0097 0.45179-0.02007 0.67704-0.03754 0.12622-0.0091 0.26473-0.0058 0.38966-0.02848 0.24402-0.04531 0.49451-0.03625 0.74371-0.05308 0.06861-0.0045 0.167-0.0039 0.23237-0.03495 0.04272-0.02071 0.07897-0.05566 0.11974-0.08091 0.06408-0.04078 0.14628-0.10874 0.178-0.17929 0.05761-0.12816 0.01618-0.27832 0.03754-0.41231 0.0822-0.11133 0.15211-0.23108 0.2123-0.35859 0.01489-0.01877 0.03107-0.03819 0.04401-0.05761 0.02201-0.03366 0.02395-0.06408 0.02395-0.0945 0.01424-0.03431 0.03107-0.06861 0.04466-0.10227 0.01294-0.03236 0.02201-0.06343 0.0343-0.0958 0.01359-0.01618 0.02719-0.03366 0.03819-0.04596 0.03819-0.04401 0.09191-0.05955 0.13269-0.09709 0.04337-0.04078 0.04143-0.08544 0.06084-0.13657 0.03689-0.09515 0.04855-0.20583 0.01424-0.30033" fill="#4d000b"/>
   <g fill="#0b1014">
    <path d="m60.63 20.969 1.7217-4.4694 1.6952 4.4694zm2.6247-6.795h-1.6894l-4.7814 10.978h2.1897l0.99355-2.5075h4.7619l1.0201 2.5075h2.2344"/>
    <path d="m72.931 18.904c0.27897 0 0.55859-0.02071 0.83756-0.06214 0.27897-0.04078 0.52946-0.11845 0.75212-0.23237 0.22201-0.11392 0.40519-0.27703 0.55082-0.48869 0.14434-0.21166 0.21684-0.48351 0.21684-0.81426 0-0.30033-0.06732-0.54565-0.20195-0.73659-0.13398-0.19159-0.30486-0.34435-0.51199-0.45826-0.20648-0.11327-0.44144-0.19094-0.70487-0.23237-0.26408-0.04078-0.51976-0.06214-0.76766-0.06214h-1.7683v3.0868zm-3.5522-4.7309h3.8163c0.51652 0 1.0182 0.05437 1.5042 0.16311 0.48545 0.10874 0.91718 0.28674 1.2952 0.53464 0.37671 0.24855 0.67963 0.57413 0.90747 0.97737 0.22654 0.40325 0.34111 0.89452 0.34111 1.4738 0 0.79614-0.22525 1.4447-0.6751 1.9463-0.44985 0.50163-1.0628 0.84015-1.8376 1.0162l2.9315 4.87h-2.3573l-2.5444-4.6532h-1.4266v4.6532h-1.9547"/>
    <path d="m87.372 16.748c-0.28998-0.39289-0.66733-0.67963-1.1327-0.86086-0.46538-0.18059-0.92041-0.2712-1.3651-0.2712-0.5683 0-1.0855 0.10356-1.5509 0.31004-0.46538 0.20712-0.86604 0.49128-1.2013 0.8531-0.33658 0.36182-0.59548 0.78578-0.77607 1.2719-0.18124 0.4861-0.27185 1.0136-0.27185 1.5819 0 0.60002 0.08803 1.1483 0.26408 1.6441 0.17606 0.49645 0.42655 0.923 0.75212 1.2796 0.32558 0.35664 0.71588 0.63367 1.1716 0.83044 0.45503 0.19612 0.96637 0.29451 1.5353 0.29451 0.58901 0 1.1114-0.11651 1.5664-0.34952 0.45438-0.23237 0.82203-0.53982 1.101-0.92236l1.567 1.101c-0.48674 0.61037-1.0809 1.0835-1.7839 1.4195-0.70358 0.33593-1.525 0.50357-2.4661 0.50357-0.85892 0-1.6466-0.14175-2.3658-0.42655-0.71847-0.28415-1.3366-0.68222-1.8538-1.1942-0.51652-0.51134-0.92041-1.1217-1.2097-1.8305-0.28933-0.70746-0.43367-1.4913-0.43367-2.3496 0-0.87834 0.15211-1.6719 0.45762-2.3806 0.30486-0.70811 0.72364-1.3107 1.2557-1.8072 0.5327-0.49645 1.1612-0.87899 1.8848-1.1476 0.72364-0.26862 1.5101-0.40325 2.3573-0.40325 0.35147 0 0.71911 0.03366 1.1016 0.10097 0.38254 0.06732 0.74954 0.17023 1.101 0.31004 0.35147 0.13981 0.68287 0.31263 0.99291 0.51976 0.31004 0.20648 0.57348 0.45503 0.79096 0.74436"/>
    <path d="m90.551 14.173h1.9547v4.437h5.1335v-4.437h1.9547v10.982h-1.9547v-4.8707h-5.1335v4.8707h-1.9547"/>
    <path d="m106.57 11.072h2.1094l-2.1871 2.2337h-1.4576zm-4.25 3.1024h7.2746v1.7062h-5.3199v2.7917h5.0409v1.6441h-5.0409v3.1024h5.5989v1.7373h-7.5536"/>
    <path d="m113.69 19.634c0 0.58901 0.0906 1.1295 0.2712 1.6201 0.18124 0.49128 0.44014 0.91782 0.77608 1.2796 0.33593 0.36312 0.734 0.64403 1.1942 0.84533 0.45956 0.20195 0.96896 0.30292 1.5276 0.30292 0.5586 0 1.0699-0.10097 1.536-0.30292 0.46474-0.2013 0.86604-0.48221 1.202-0.84533 0.33593-0.36182 0.59419-0.78837 0.77543-1.2796 0.18059-0.49063 0.2712-1.0311 0.2712-1.6201 0-0.56895-0.0906-1.0958-0.2712-1.5826-0.18124-0.4861-0.43691-0.90941-0.76766-1.2712-0.3314-0.36182-0.72882-0.64662-1.1948-0.8531-0.46474-0.20712-0.98191-0.31069-1.5509-0.31069-0.5683 0-1.0829 0.10356-1.5431 0.31069-0.46021 0.20648-0.85569 0.49128-1.1871 0.8531-0.3301 0.36182-0.58642 0.78514-0.76766 1.2712-0.18058 0.48674-0.2712 1.0136-0.2712 1.5826m-2.1243 0c0-0.87899 0.14693-1.6725 0.44208-2.3813 0.29386-0.70811 0.70293-1.3107 1.2246-1.8072 0.52234-0.49645 1.1431-0.87899 1.8615-1.147 0.71911-0.26926 1.5017-0.40389 2.3496-0.40389 0.85828 0 1.6499 0.13463 2.3735 0.40389 0.72299 0.26797 1.3496 0.6505 1.8764 1.147 0.52753 0.49645 0.93854 1.0991 1.2337 1.8072 0.29385 0.70876 0.44208 1.5023 0.44208 2.3813 0 0.85763-0.14823 1.6415-0.44208 2.3489-0.29516 0.7094-0.70617 1.3191-1.2337 1.8305-0.52687 0.51199-1.1534 0.91006-1.8764 1.1942-0.72365 0.2848-1.5152 0.42655-2.3735 0.42655-0.84792 0-1.6305-0.14175-2.3496-0.42655-0.71847-0.28415-1.3392-0.68222-1.8615-1.1942-0.5217-0.51134-0.93077-1.1211-1.2246-1.8305-0.29515-0.70746-0.44208-1.4913-0.44208-2.3489"/>
    <path d="m131.17 16.469c-0.20713-0.26862-0.4984-0.49386-0.8764-0.67445-0.37736-0.18124-0.7573-0.27185-1.1398-0.27185-0.22784 0-0.45567 0.02848-0.68222 0.08544-0.22784 0.05696-0.43496 0.14499-0.62073 0.26344-0.18576 0.1191-0.33852 0.27444-0.45761 0.46538-0.1191 0.19159-0.178 0.42137-0.178 0.69063 0 0.2479 0.0511 0.46021 0.15469 0.63562 0.10357 0.17606 0.24532 0.32558 0.42655 0.44985 0.18059 0.12428 0.40066 0.23302 0.65957 0.32558 0.25826 0.09321 0.54241 0.18641 0.85245 0.27962 0.35146 0.11327 0.71652 0.24272 1.0939 0.38771s0.72364 0.33593 1.0389 0.57348c0.31587 0.2382 0.57478 0.53788 0.77543 0.8997 0.20195 0.36182 0.30292 0.81232 0.30292 1.3496 0 0.58901-0.10874 1.1036-0.32558 1.5437-0.21683 0.43949-0.50681 0.80391-0.86863 1.0932-0.36247 0.28933-0.78578 0.50616-1.2719 0.65115-0.48674 0.14499-0.99808 0.21748-1.536 0.21748-0.71329 0-1.4117-0.13204-2.0933-0.39613-0.68287-0.26344-1.2408-0.65374-1.6758-1.1709l1.3962-1.3023c0.26861 0.37218 0.62849 0.66668 1.0783 0.88352 0.44985 0.21748 0.89194 0.32622 1.3256 0.32622 0.22783 0 0.4602-0.02848 0.69775-0.08544 0.23819-0.05696 0.45244-0.15211 0.64403-0.28739 0.19159-0.13398 0.34629-0.30227 0.46603-0.50357 0.11845-0.20195 0.178-0.45244 0.178-0.75212 0-0.28998-0.0673-0.53011-0.20195-0.7217-0.13463-0.19094-0.31521-0.35664-0.54305-0.49645-0.22784-0.13916-0.49581-0.26085-0.80585-0.36441-0.31069-0.10292-0.63691-0.21166-0.97737-0.32558-0.33076-0.10292-0.66216-0.22719-0.99291-0.37218-0.33075-0.14434-0.62785-0.33593-0.89193-0.57413-0.26409-0.23755-0.47833-0.52946-0.64404-0.87575-0.16505-0.34694-0.2479-0.77866-0.2479-1.2952 0-0.55859 0.11716-1.0395 0.34888-1.4428 0.23301-0.40325 0.53788-0.73659 0.91588-1.0007 0.37736-0.26344 0.80585-0.45956 1.2868-0.58901s0.9696-0.19418 1.4654-0.19418c0.55924 0 1.125 0.09838 1.6991 0.29451 0.57348 0.19677 1.0719 0.49192 1.4965 0.88417"/>
    <path d="m142.71 16.748c-0.28997-0.39289-0.66733-0.67963-1.1327-0.86086-0.46603-0.18059-0.92041-0.2712-1.3651-0.2712-0.5683 0-1.0855 0.10356-1.5508 0.31004-0.46604 0.20712-0.86605 0.49128-1.2013 0.8531-0.33658 0.36182-0.59549 0.78578-0.77672 1.2719-0.18059 0.4861-0.27121 1.0136-0.27121 1.5819 0 0.60002 0.0874 1.1483 0.26409 1.6441 0.17606 0.49645 0.42655 0.923 0.75277 1.2796 0.32493 0.35664 0.71523 0.63367 1.1709 0.83044 0.45502 0.19612 0.96637 0.29451 1.5353 0.29451 0.58902 0 1.1114-0.11651 1.5657-0.34952 0.45503-0.23237 0.82268-0.53982 1.1016-0.92236l1.567 1.101c-0.48674 0.61037-1.0809 1.0835-1.7845 1.4195-0.70293 0.33593-1.5243 0.50357-2.4654 0.50357-0.85892 0-1.6466-0.14175-2.3658-0.42655-0.71912-0.28415-1.3366-0.68222-1.8538-1.1942-0.51717-0.51134-0.92042-1.1217-1.2098-1.8305-0.28933-0.70746-0.43431-1.4913-0.43431-2.3496 0-0.87834 0.15275-1.6719 0.45826-2.3806 0.30486-0.70811 0.723-1.3107 1.2557-1.8072 0.5327-0.49645 1.1606-0.87899 1.8842-1.1476 0.72365-0.26862 1.5107-0.40325 2.358-0.40325 0.35146 0 0.71911 0.03366 1.1016 0.10097 0.38253 0.06732 0.74888 0.17023 1.101 0.31004 0.35146 0.13981 0.68222 0.31263 0.99291 0.51976 0.31004 0.20648 0.57347 0.45503 0.79096 0.74436"/>
    <path d="m145.89 25.155h1.9547v-10.982h-1.9547z"/>
    <path d="m150.58 14.173h7.2746v1.7068h-5.3199v2.7917h5.0409v1.6447h-5.0409v3.1011h5.5989v1.7373h-7.5536"/>
    <path d="m160.35 14.173h2.5904l5.1031 8.2203h0.0311v-8.2203h1.9541v10.982h-2.4823l-5.2105-8.4837h-0.0311v8.4837h-1.9548"/>
    <path d="m180.68 16.748c-0.28997-0.39289-0.66733-0.67963-1.1327-0.86086-0.46538-0.18059-0.92041-0.2712-1.3651-0.2712-0.5683 0-1.0855 0.10356-1.5508 0.31004-0.46539 0.20712-0.86605 0.49128-1.2013 0.8531-0.33658 0.36182-0.59549 0.78578-0.77607 1.2719-0.18124 0.4861-0.27186 1.0136-0.27186 1.5819 0 0.60002 0.088 1.1483 0.26409 1.6441 0.17605 0.49645 0.42655 0.923 0.75212 1.2796 0.32558 0.35664 0.71588 0.63367 1.1716 0.83044 0.45502 0.19612 0.96637 0.29451 1.5353 0.29451 0.58902 0 1.1114-0.11651 1.5664-0.34952 0.45438-0.23237 0.82203-0.53982 1.101-0.92236l1.567 1.101c-0.48674 0.61037-1.0809 1.0835-1.7839 1.4195-0.70358 0.33593-1.525 0.50357-2.4661 0.50357-0.85892 0-1.6466-0.14175-2.3658-0.42655-0.71847-0.28415-1.3366-0.68222-1.8538-1.1942-0.51651-0.51134-0.92041-1.1217-1.2097-1.8305-0.28933-0.70746-0.43367-1.4913-0.43367-2.3496 0-0.87834 0.15211-1.6719 0.45762-2.3806 0.30486-0.70811 0.72365-1.3107 1.2557-1.8072 0.5327-0.49645 1.1612-0.87899 1.8848-1.1476 0.72365-0.26862 1.5101-0.40325 2.3574-0.40325 0.35146 0 0.71911 0.03366 1.1016 0.10097 0.38253 0.06732 0.74953 0.17023 1.101 0.31004 0.35146 0.13981 0.68286 0.31263 0.9929 0.51976 0.31005 0.20648 0.57348 0.45503 0.79097 0.74436"/>
    <path d="m183.86 14.173h7.2746v1.7068h-5.3199v2.7917h5.0409v1.6447h-5.0409v3.1011h5.5989v1.7373h-7.5536"/>
    <path d="m199.23 16.469c-0.20713-0.26862-0.4984-0.49386-0.8764-0.67445-0.37801-0.18124-0.75795-0.27185-1.1398-0.27185-0.22849 0-0.45632 0.02848-0.68287 0.08544-0.22784 0.05696-0.43431 0.14499-0.62073 0.26344-0.18511 0.1191-0.33852 0.27444-0.45761 0.46538-0.1191 0.19159-0.178 0.42137-0.178 0.69063 0 0.2479 0.0518 0.46021 0.15469 0.63562 0.10421 0.17606 0.24532 0.32558 0.42655 0.44985 0.18059 0.12428 0.40131 0.23302 0.66022 0.32558 0.25761 0.09321 0.54176 0.18641 0.8518 0.27962 0.35146 0.11327 0.71652 0.24272 1.0945 0.38771 0.37671 0.14499 0.72364 0.33593 1.0389 0.57348 0.31587 0.2382 0.57477 0.53788 0.77478 0.8997 0.20195 0.36182 0.30357 0.81232 0.30357 1.3496 0 0.58901-0.10939 1.1036-0.32558 1.5437-0.21748 0.43949-0.50746 0.80391-0.86928 1.0932s-0.78578 0.50616-1.2712 0.65115c-0.48674 0.14499-0.99873 0.21748-1.536 0.21748-0.71329 0-1.4117-0.13204-2.0933-0.39613-0.68351-0.26344-1.2414-0.65374-1.6764-1.1709l1.3962-1.3023c0.26861 0.37218 0.62914 0.66668 1.079 0.88352 0.44921 0.21748 0.89194 0.32622 1.3256 0.32622 0.22784 0 0.45956-0.02848 0.69776-0.08544 0.23819-0.05696 0.45244-0.15211 0.64403-0.28739 0.19159-0.13398 0.34564-0.30227 0.46603-0.50357 0.1178-0.20195 0.178-0.45244 0.178-0.75212 0-0.28998-0.0673-0.53011-0.20259-0.7217-0.13399-0.19094-0.31458-0.35664-0.54306-0.49645-0.22784-0.13916-0.49581-0.26085-0.80585-0.36441-0.31069-0.10292-0.63691-0.21166-0.97673-0.32558-0.3314-0.10292-0.66215-0.22719-0.9929-0.37218-0.3314-0.14434-0.6285-0.33593-0.89194-0.57413-0.26473-0.23755-0.47897-0.52946-0.64403-0.87575-0.16505-0.34694-0.24855-0.77866-0.24855-1.2952 0-0.55859 0.1178-1.0395 0.34888-1.4428 0.23366-0.40325 0.53788-0.73659 0.91588-1.0007 0.37801-0.26344 0.8065-0.45956 1.2874-0.58901s0.9696-0.19418 1.4654-0.19418c0.55859 0 1.125 0.09838 1.6991 0.29451 0.57348 0.19677 1.0719 0.49192 1.4958 0.88417"/>
    <path d="m67.937 38.394h1.8492c0.35923 0 0.70164-0.0343 1.0285-0.10356 0.32687-0.06861 0.61167-0.17929 0.85569-0.33075 0.24337-0.15211 0.43885-0.34952 0.58642-0.59354 0.14693-0.24402 0.22072-0.53594 0.22072-0.8764 0-0.64403-0.21813-1.125-0.65568-1.4421-0.43691-0.31781-1.0557-0.47639-1.8564-0.47639h-2.0285zm0-4.637h2.0014c0.23949 0 0.48027-0.02783 0.72494-0.08285 0.24337-0.05502 0.46668-0.14952 0.66927-0.28286 0.20195-0.13334 0.36506-0.31069 0.48933-0.53141 0.12428-0.22072 0.18641-0.49192 0.18641-0.81426 0-0.31263-0.06214-0.57736-0.18641-0.79355-0.12428-0.21619-0.29192-0.39289-0.50357-0.53141-0.21166-0.13787-0.46021-0.2369-0.74565-0.29645-0.2848-0.05955-0.58836-0.08997-0.91006-0.08997h-1.7256zm-0.99356-4.2784h2.9121c0.36765 0 0.74047 0.03948 1.1178 0.1178 0.37736 0.07767 0.71523 0.21166 1.0143 0.40001s0.54306 0.44402 0.73141 0.76572c0.18835 0.32234 0.28286 0.72688 0.28286 1.2149 0 0.51522-0.15729 0.96378-0.47186 1.345-0.31392 0.38189-0.7353 0.63303-1.2615 0.75212v0.02783c0.63303 0.07379 1.1586 0.31975 1.5761 0.73853 0.41749 0.41878 0.6272 0.98644 0.6272 1.7043 0 0.40519-0.08544 0.77543-0.25502 1.1114-0.17023 0.33593-0.41166 0.62073-0.72364 0.85504-0.31198 0.23496-0.69322 0.41684-1.1431 0.54565-0.44985 0.12881-0.95472 0.19289-1.514 0.19289h-2.8926"/>
    <path d="m85.437 34.371c0-0.5696-0.09256-1.1114-0.27638-1.6259-0.18512-0.51458-0.4505-0.96702-0.80067-1.3573-0.35017-0.3903-0.77543-0.70034-1.2764-0.93012-0.50228-0.22978-1.0654-0.34435-1.6907-0.34435-0.62656 0-1.1897 0.11457-1.69 0.34435-0.50293 0.22978-0.92818 0.53982-1.2771 0.93012-0.35017 0.3903-0.6162 0.84274-0.80002 1.3573-0.18512 0.51458-0.27703 1.0563-0.27703 1.6259s0.09191 1.1114 0.27703 1.6259c0.18382 0.51458 0.44985 0.96443 0.80002 1.3502 0.34888 0.38577 0.77413 0.69387 1.2771 0.923 0.50034 0.22978 1.0635 0.34499 1.69 0.34499 0.62526 0 1.1884-0.11521 1.6907-0.34499 0.50098-0.22913 0.92624-0.53723 1.2764-0.923 0.35017-0.38577 0.61555-0.83562 0.80067-1.3502 0.18382-0.51458 0.27638-1.0563 0.27638-1.6259m1.0479-0.0071c0 0.745-0.12881 1.4311-0.38642 2.0564-0.25696 0.62591-0.61426 1.1664-1.0693 1.6214-0.45568 0.45568-0.99291 0.81232-1.6149 1.0699-0.62073 0.25761-1.2945 0.38642-2.0214 0.38642-0.72753 0-1.4007-0.12881-2.0221-0.38642-0.62073-0.25761-1.1599-0.61426-1.6143-1.0699-0.45632-0.45503-0.81297-0.9955-1.0706-1.6214-0.25761-0.62526-0.38577-1.3114-0.38577-2.0564 0-0.745 0.12816-1.4305 0.38577-2.0564 0.25761-0.62526 0.61426-1.1657 1.0706-1.6214 0.45438-0.45568 0.99356-0.81232 1.6143-1.0693 0.62138-0.25761 1.2945-0.38642 2.0221-0.38642 0.72688 0 1.4007 0.12881 2.0214 0.38642 0.62202 0.25696 1.1593 0.61361 1.6149 1.0693 0.45503 0.45568 0.81232 0.99614 1.0693 1.6214 0.25761 0.62591 0.38642 1.3114 0.38642 2.0564"/>
    <path d="m90.653 33.826h1.7256c0.80002 0 1.4169-0.14499 1.8492-0.43496 0.43173-0.28933 0.64856-0.72429 0.64856-1.3036 0-0.32299-0.05955-0.59354-0.17994-0.81426-0.1191-0.22137-0.2848-0.40066-0.49645-0.53853-0.2123-0.13787-0.46927-0.23949-0.77284-0.30357-0.30357-0.06473-0.6395-0.09709-1.0071-0.09709h-1.767zm0 5.4241h-0.99355v-9.7711h2.8706c0.47833 0 0.92236 0.04596 1.3314 0.13787 0.40972 0.09191 0.76442 0.24143 1.0628 0.44856 0.29904 0.20648 0.53205 0.47574 0.69711 0.80714 0.1657 0.3314 0.24855 0.73594 0.24855 1.2149 0 0.35859-0.06408 0.68546-0.19288 0.97932-0.12881 0.29515-0.30422 0.55018-0.52493 0.76636s-0.48286 0.38836-0.78643 0.51717c-0.30357 0.12945-0.63497 0.21166-0.99356 0.24855l2.8564 4.6513h-1.2143l-2.7049-4.5684h-1.6564"/>
    <path d="m100.02 38.366h1.9735c0.73594 0 1.378-0.11457 1.9256-0.34499 0.54759-0.22978 1-0.53141 1.3593-0.90358 0.35858-0.37283 0.62785-0.79808 0.80714-1.2771 0.17929-0.47833 0.26991-0.96961 0.26991-1.4764 0-0.50616-0.0906-0.99809-0.26991-1.4771-0.17929-0.47704-0.44856-0.90358-0.80714-1.2764-0.35924-0.37283-0.81167-0.67316-1.3593-0.90358s-1.1897-0.34499-1.9256-0.34499h-1.9735zm-0.99355-8.8876h3.2435c0.60649 0 1.2162 0.10097 1.8285 0.30357 0.61167 0.20259 1.1638 0.5094 1.6557 0.91847 0.49257 0.40843 0.88999 0.91912 1.1942 1.5314 0.30357 0.61167 0.45567 1.3224 0.45567 2.1321 0 0.81879-0.1521 1.5321-0.45567 2.1399-0.30422 0.60649-0.70164 1.1146-1.1942 1.5243-0.49192 0.40907-1.044 0.71588-1.6557 0.91782-0.61231 0.20259-1.222 0.30422-1.8285 0.30422h-3.2435"/>
    <path d="m111.58 38.366h5.2306v0.88417h-6.2241v-9.7718h6.0584v0.88352h-5.0649v3.3541h4.7341v0.88287h-4.7341"/>
    <path d="m121.22 35.772h4.3056l-2.1528-5.1891zm-1.4356 3.4778h-1.09l4.2228-9.7711h0.96637l4.1956 9.7711h-1.1042l-1.077-2.5671h-5.0506"/>
    <path d="m134.06 39.498c-0.73659 0-1.3386-0.12686-1.8078-0.3793-0.46991-0.25308-0.84209-0.57283-1.1178-0.95925-0.27638-0.38642-0.46732-0.80714-0.57283-1.2628-0.10615-0.45568-0.15858-0.88546-0.15858-1.2906v-6.1277h0.99291v6.0176c0 0.39548 0.0466 0.77931 0.13851 1.1521 0.0919 0.37283 0.24143 0.70423 0.44856 0.99356 0.20713 0.28998 0.48027 0.52493 0.82073 0.70423 0.34111 0.17929 0.7599 0.26926 1.2564 0.26926s0.91524-0.08997 1.2557-0.26926 0.61425-0.41425 0.82138-0.70423c0.20648-0.28933 0.35664-0.62073 0.44856-0.99356 0.0919-0.37283 0.13786-0.75666 0.13786-1.1521v-6.0176h0.99356v6.1277c0 0.40519-0.0531 0.83498-0.15858 1.2906-0.10551 0.45568-0.29645 0.8764-0.57283 1.2628-0.27574 0.38642-0.65051 0.70617-1.1243 0.95925-0.47444 0.25243-1.0751 0.3793-1.8013 0.3793"/>
    <path d="m144.56 33.426 2.6642-3.947h1.1858l-3.2428 4.6506 3.5884 5.1205h-1.2428l-2.9807-4.4027-2.9671 4.4027h-1.2421l3.5878-5.1341-3.27-4.637h1.2421"/>
   </g>
 </g>
</svg>
