<?xml version="1.0" encoding="UTF-8"?>
<!-- Created with Inkscape (http://www.inkscape.org/) -->
<svg width="2560" height="818" version="1.1" viewBox="0 0 677 216" xmlns="http://www.w3.org/2000/svg">
 <g>
  <path d="m102 142c0 5.33-4.07 9.65-9.09 9.65-5.02 0-9.09-4.32-9.09-9.65v-68c0-5.33 4.07-9.65 9.09-9.65 5.02 0 9.09 4.32 9.09 9.65z" fill="#ae0f0a"/>
  <path d="m182 142c0 5.33-4.07 9.65-9.09 9.65-5.02 0-9.09-4.32-9.09-9.65v-68c0-5.33 4.07-9.65 9.09-9.65 5.02 0 9.09 4.32 9.09 9.65z" fill="#f9b000"/>
  <path d="m181 137c2.51 4.62 1.02 10.5-3.33 13.2-4.35 2.67-9.91 1.08-12.4-3.53l-40-68c-2.51-4.61-1.02-10.5 3.33-13.2 4.35-2.66 9.91-1.08 12.4 3.53z" fill="#f18700"/>
  <path d="m142 142c0 5.33-4.07 9.65-9.09 9.65-5.02 0-9.09-4.32-9.09-9.65v-68c0-5.33 4.07-9.65 9.09-9.65 5.02 0 9.09 4.32 9.09 9.65z" fill="#ea5b0b"/>
  <path d="m133 99.1c5.33 0 9.65 4.07 9.65 9.09 0 5.02-4.32 9.09-9.65 9.09h-38.9c-5.33 0-9.65-4.07-9.65-9.09 0-5.02 4.32-9.09 9.65-9.09z" fill="#d20a11"/>
 </g>
 <g fill="#86888c">
  <path d="m479 130v-32.5h7.78v4.62c2.37-3.28 5.41-5.23 9.73-5.23 4.44 0 7.85 2.07 9.49 5.78 2.55-3.59 5.84-5.78 10.7-5.78 6.57 0 11 4.32 11 12.1v21h-8.39v-18.3c0-4.56-1.95-7.3-5.65-7.3-3.34 0-6.08 2.62-6.08 7.48v18.1h-8.39v-18.3c0-4.56-1.95-7.3-5.65-7.3-3.41 0-6.08 2.62-6.08 7.48v18.1z"/>
  <path d="m463 97.6h8.39v32.5h-7.72v-4.26c-1.76 2.86-5.35 4.86-9.49 4.86-6.51 0-11.2-3.95-11.2-12.4v-20.7h8.45v19c0 4.56 2.25 6.57 5.65 6.57 3.04 0 5.96-2.43 5.96-6.81z"/>
  <path d="m406 99.6v30.5h-8.45v-43.7h9.97l19 28.9v-28.9h8.51v43.7h-9.06z"/>
  <path d="m373 110h18.5v7.54h-18.5z"/>
  <path d="m353 125c4.32 0 6.93-2.37 6.93-6.14v-2.31c-2.01-0.304-3.4-0.427-4.86-0.427-4.8 0-7.18 1.52-7.18 4.44 0 2.74 1.95 4.44 5.11 4.44m7.96 1.22c-2.13 3.04-5.35 4.62-9.79 4.62-6.75 0-11.2-3.95-11.2-10 0-6.32 5.11-9.73 14.6-9.73 1.82 0 3.4 0.122 5.41 0.366v-1.95c0-3.65-2.07-5.77-5.59-5.77-3.65 0-5.84 2.13-6.14 5.77h-7.6c0.486-7.48 5.9-12.3 13.7-12.3 8.51 0 13.5 4.68 13.5 12.6v20.4h-6.87z"/>
  <path d="m286 130v-32.5h7.78v4.62c2.37-3.28 5.41-5.23 9.73-5.23 4.44 0 7.85 2.07 9.49 5.78 2.55-3.59 5.84-5.78 10.7-5.78 6.57 0 11 4.32 11 12.1v21h-8.39v-18.3c0-4.56-1.95-7.3-5.65-7.3-3.34 0-6.08 2.62-6.08 7.48v18.1h-8.39v-18.3c0-4.56-1.95-7.3-5.65-7.3-3.4 0-6.08 2.62-6.08 7.48v18.1z"/>
  <path d="m270 97.6h8.39v32.5h-7.72v-4.26c-1.76 2.86-5.35 4.86-9.48 4.86-6.51 0-11.2-3.95-11.2-12.4v-20.7h8.45v19c0 4.56 2.25 6.57 5.65 6.57 3.04 0 5.96-2.43 5.96-6.81z"/>
  <path d="m204 130v-43.7h9.24v17.2h18.9v-17.2h9.24v43.7h-9.24v-18.5h-18.9v18.5z"/>
  <path d="m576 108-3.34-2.56 5.68-6.9-8.52-2.62 1.22-3.84 8.63 2.78-0.168-8.69h4.34l-0.17 8.69 8.63-2.78 1.22 3.84-8.52 2.62 5.68 6.9-3.34 2.56-5.68-7.18z"/>
  <path d="m552 96.7h3.71c2.8 0 4.28-1.09 4.28-3.22 0-2.16-1.49-3.25-4.28-3.25h-3.71zm-4.62 11.5v-21.8h8.54c5.5 0 8.69 2.55 8.69 7.08 0 2.95-1.82 5.29-4.92 6.32l5.62 8.42h-5.5l-4.92-7.72h-2.89v7.72z"/>
  <path d="m538 86.4h4.62v21.8h-4.62z"/>
 </g>
</svg>
