<?xml version="1.0" encoding="UTF-8"?>
<!-- Created with Inkscape (http://www.inkscape.org/) -->
<svg width="800" height="190" version="1.1" viewBox="0 0 800 190" xmlns="http://www.w3.org/2000/svg">
 <g>
  <path d="m189 52c-0.0856-0.257-0.25-0.45-0.325-0.717-0.0807-0.284-0.196-0.548-0.291-0.82-0.181-0.519-0.668-1.01-0.418-1.57 0.108-0.24 0.267-0.421 0.435-0.616 0.127-0.147 0.333-0.254 0.372-0.455 0.0197-0.0905 0.0268-0.357 2e-3 -0.457-0.0268-0.105-0.193-0.193-0.272-0.262-0.208-0.181-0.409-0.311-0.643-0.462-0.763-0.477-1.56-0.844-2.41-1.13-0.362-0.127-0.697-0.298-1.02-0.499-0.093-0.0563-0.198-0.113-0.272-0.196-0.0807-0.0978-0.139-0.205-0.179-0.328-0.147-0.218-0.311-0.423-0.497-0.607-0.502-0.616-0.969-1.32-1.81-1.48-0.981-0.183-1.96-0.205-2.96-0.201-0.634 0.0024-1.2-0.171-1.8-0.364-0.641-0.201-1.3-0.352-1.94-0.543-0.453-0.135-0.908-0.164-1.38-0.179-0.482-0.0147-0.949-0.0954-1.44-0.0905-1.5 0.0049-2.98-0.0268-4.47 0.108-1.01 0.0905-1.96 0.166-2.97 0.159-0.707-0.0049-1.4 0.1-2.1 0.1-0.565-0.0049-1.06-0.0392-1.61-0.188-0.727-0.196-1.45-0.183-2.2-0.179-0.705 0-1.42-0.0392-2.12 0.0392-0.653 0.0709-1.29 0.24-1.95 0.301-0.834 0.0734-1.63 0.215-2.46 0.362-0.396 0.0709-0.793 0.132-1.19 0.198-0.861 0.147-1.7 0.409-2.56 0.555-0.952 0.161-1.87 0.272-2.84 0.267-0.886-0.0049-1.77 0-2.65-0.0024-0.993 0-1.97 0.0709-2.96 0.0978-0.438 0.0098-0.876-0.0196-1.31-0.0121-0.602 0.0121-1.2 0.0905-1.8 0.1-1.02 0.017-2.05-0.0049-3.07-0.0049-0.969 0-1.95 0.0514-2.91-0.0416-0.736-0.0709-1.46-0.208-2.19-0.301-0.939-0.117-1.87-0.147-2.82-0.0905-1.15 0.0661-2.3 0.154-3.45 0.235-0.267 0.017-0.528 0.0246-0.798 0.0196-0.103-0.0024-0.269-0.0318-0.374 0.0121-0.247 0.105-0.426 0.345-0.709 0.423-0.352 0.0978-0.665 0.137-1.01 0.294-0.201 0.0881-0.409 0.0954-0.621 0.13-0.301 0.049-0.592 0.125-0.89 0.186-0.553 0.113-1.1 0.191-1.66 0.247-0.903 0.0881-1.8 0.137-2.71 0.183-0.8 0.017-1.6 0.044-2.4 0.0489-2.95 0.017-5.89-0.0219-8.83-0.0661-0.0636-0.0318-0.13-0.049-0.196-0.0783-0.379-0.179-0.824-0.306-1.23-0.387-0.604-0.117-1.29-0.252-1.91-0.274-0.479-0.017-0.964 0.0049-1.45 0.0049h-0.705c-0.144 0-0.318-0.0268-0.46-0.0049-0.132 0.0196-0.247 0.0832-0.384 0.1-0.377 0.0489-0.773-0.0392-1.15-0.0734-0.651-0.0661-1.25 0.0049-1.89 0.125-1.06 0.203-2.23 0.186-3.29-0.0563-0.355-0.0807-0.641-0.198-1.01-0.166-0.46 0.0416-0.92 0.0612-1.38 0.0978-0.543 0.0392-1.08 0.157-1.63 0.166-1.1 0.017-2.18-0.0049-3.27 0.157-0.778 0.113-1.54 0.0881-2.33 0.105-0.57 0.0098-1.14 0.144-1.71 0.174-0.528 0.0318-1.01 0.11-1.51 0.24-0.369 0.0978-0.543 0.188-0.839 0.475-0.264 0.257-0.487 0.502-0.685 0.807-0.509 0.79-1.52 0.927-2.34 1.24-0.379 0.144-0.709 0.311-1.06 0.499-0.23 0.127-0.313 0.242-0.47 0.448-0.23 0.306-0.568 0.587-0.678 0.971-0.0832 0.294 0.0612 0.577 0.11 0.871 0.0538 0.345-0.0268 0.643-0.0636 0.986-0.0465 0.423 0.0661 0.8 0.0881 1.21 0.0219 0.438-0.0465 0.859 0.0734 1.29 0.0612 0.23 0.154 0.401 0.279 0.594 0.169 0.262 0.55 0.58 0.634 0.883 0.0758 0.279-0.0072 0.636 0.0024 0.92 0.0147 0.394 0.208 0.731-0.0072 1.09-0.24 0.399-0.577 0.712-0.817 1.11-0.164 0.264-0.254 0.536-0.0881 0.822 0.391 0.673 1.03 1.3 0.898 2.13-0.0538 0.325-0.12 0.658-0.174 0.986-0.0612 0.389-0.0344 0.79-0.12 1.17-0.0344 0.149-0.0612 0.279-0.157 0.409-0.105 0.147-0.286 0.267-0.36 0.435-0.125 0.286 0.0856 0.213 0.269 0.401 0.154 0.157 0.105 0.416 0.108 0.612 0.0049 0.524-0.152 0.905-0.435 1.35-0.139 0.218-0.225 0.316-0.205 0.57 0.0268 0.34 0.181 0.624 0.262 0.942 0.0612 0.25-0.0072 0.516 0.0098 0.763 0.0121 0.169 0.0807 0.313 0.1 0.477 0.0219 0.164-0.0049 0.345-0.0049 0.511 0 1.14 0.181 2.56 1.36 3.1 2.29 1.05 4.88 0.533 7.3 0.541 1.26 0.0049 2.52-0.0344 3.78 0.0072 0.487 0.017 0.969 0.0905 1.46 0.0954 0.614 0.0072 1.22-0.105 1.83-0.171 1.04-0.117 2.06-0.379 3.1-0.445 2.31 0.0661 4.62 0.0954 6.93 0.0246 1.28-0.0392 2.57-0.0978 3.86-0.144 0.45-0.0024 0.898 0 1.35-0.0219 1.27-0.0636 2.51-0.0905 3.78-0.0024 1.85 0.122 3.7 0.11 5.55 0.113 0.272 0 0.619 0.0489 0.895-0.0121 0.223-0.0489 0.44-0.144 0.66-0.205 0.413-0.115 0.768-0.313 1.17-0.423 0.416-0.0196 0.834-0.0392 1.25-0.0587 1.32 0.0709 2.61 0.396 3.93 0.504 1 0.0783 1.98-0.144 2.96-0.335 0.418-0.0807 0.798-0.103 1.22-0.11 0.771-0.0196 1.54-0.183 2.3-0.267 1.73-0.183 3.46-0.252 5.19-0.342 1.04-0.0538 2.07 0.0147 3.11 0.0758 0.805 0.044 1.6 0.179 2.41 0.183 0.499 0 0.944 0.0905 1.44 0.161 0.524 0.0709 1.11 0.0268 1.63 0.0219 0.612-0.0098 1.21-0.0758 1.82-0.135 2.18-0.21 4.39-0.21 6.52-0.758 1.05-0.269 2.15-0.342 3.21-0.546 0.333-0.0612 0.658-0.113 0.983-0.169 1.92-0.0344 3.84-0.0758 5.75-0.132 0.0538 0 0.108 0.0098 0.159 0.0098 1.45-0.0098 2.94-0.0881 4.37 0.179 0.345 0.0612 0.656 0.176 1.01 0.188 0.325 0.0098 0.653-0.0049 0.981-0.0049 0.719 0.0049 1.42-0.0954 2.14-0.0905 0.844 0.0121 1.69-0.125 2.51-0.291 0.942-0.191 1.88-0.352 2.82-0.553 0.379-0.0783 0.712-0.044 1.1-0.0612 0.289-0.0098 0.568-0.0905 0.856-0.1 0.113 0 0.25 0.0295 0.36 0.0098 0.147-0.0246 0.23-0.0881 0.391-0.0978 0.149-0.0072 0.267 0.0121 0.409-0.017 0.164-0.0344 0.279-0.113 0.475-0.0514 0.0147 0.0563-0.0147 0.0807-0.174 0.161 0.169 0.0246 0.279-0.0268 0.435-0.0661 0.24-0.0563 0.479-0.0734 0.719-0.105 1-0.149 2.04-0.372 3.01-0.648 0.313-0.0856 0.524-0.169 0.661-0.467 0.0514-0.108 0.0709-0.225 0.154-0.318 0.198-0.149 0.413-0.279 0.643-0.379 0.33-0.171 0.661-0.342 0.988-0.511 0.252-0.139 0.599-0.306 0.844-0.489 0.179-0.13 0.147-0.201 0.232-0.377 0.105-0.218 0.316-0.396 0.499-0.55 0.338-0.284 0.741-0.528 1.14-0.702 0.237-0.105 0.509-0.176 0.734-0.306 0.399-0.228 0.795-0.68 1.01-1.09 0.228-0.443-0.0317-1.01 0.139-1.47 0.117-0.316 0.409-0.692 0.687-0.881 0.352-0.24 0.585-0.457 0.709-0.866 0.0636-0.213 0.093-0.404 0.0881-0.631-5e-3 -0.323 0.0832-0.616 0.0954-0.935 0.0268-0.683-0.0685-1.39-0.01-2.07 0.0295-0.33 0.176-0.631 0.191-0.976 0.0147-0.301-0.01-0.572 0.0587-0.868 0.11-0.472 0.272-0.927 0.396-1.39 0.0832-0.325 0.157-0.705 0.0465-1.04" fill="#ad352f"/>
  <path d="m161 87.8c0.298-0.413 0.514-0.702 0.519-1.21 5e-3 -0.33-0.0121-0.546-0.245-0.788-0.416-0.431-1.08-0.802-1.33-1.37-0.301-0.675 0.707-1.22 0.558-1.88-0.21-0.93-1.5-1.16-2.26-1.37-0.462-0.13-0.971-0.235-1.45-0.267-0.489-0.0344-1 0.0049-1.43-0.257-0.484-0.298-0.761-0.822-1.19-1.19-0.35-0.296-0.736-0.558-1.13-0.788-1.28-0.744-2.84-1.15-4.3-1.37-1.11-0.164-2.2-0.391-3.33-0.394-0.433 0-0.866 0.0121-1.3 0.0098-1.92-0.0147-3.7 0.795-5.6 0.983-0.619 0.0612-1.25 0.0121-1.88 0.0147-0.57 0.0024-1.12-0.0072-1.69-0.0905-1.13-0.164-2.26-0.328-3.39-0.479-0.788-0.105-1.56-0.33-2.35-0.411-0.648-0.0636-1.33-0.0196-1.97-0.017h-3.36c-0.665 0-1.33-0.0219-2-0.0049-0.856 0.0219-1.71 0.1-2.56 0.0978-1.51-0.0072-3.01 0.0978-4.51 0.0881-1.88-0.0098-3.76-0.0147-5.64-0.0905-0.619-0.0268-1.24-0.0538-1.85-0.0881-0.201-0.0121-0.399-0.0121-0.294-0.259-0.144-0.0734-1.49-0.0954-1.17-0.0807-1.73-0.0783-3.45-0.0905-5.18-0.117-0.707-0.0098-1.39-0.0318-2.1-0.0685-0.364-0.0196-0.739-0.0587-1.1-0.0024-0.521 0.0783-1.05 0.154-1.57 0.25-0.563 0.1-1.11 0.223-1.68 0.281-1.62 0.174-3.27 0.0612-4.9 0.105-2.85 0.0758-5.71 0.0978-8.55 0.32-1.32 0.103-2.59 0.205-3.92 0.137-1.27-0.0661-2.54-0.113-3.82-0.117-1.09-0.0049-2.15-0.0121-3.23 0.157-0.472 0.0734-0.944 0.159-1.41 0.25-1.23 0.232-2.38 0.807-3.64 0.873-2.18 0.115-4.39 0.215-6.55 0.58-1.09 0.186-2.16 0.396-3.25 0.597-0.643 0.12-1.29 0.242-1.94 0.335-0.802 0.113-1.51 0.438-2.27 0.695-0.372 0.127-0.785 0.164-1.14 0.32-0.382 0.164-0.69 0.416-1.09 0.55-0.318 0.108-0.709 0.276-0.959 0.509-0.149 0.142-0.264 0.269-0.44 0.394-0.284 0.198-0.543 0.479-0.859 0.629-0.205 0.0978-0.281 0.142-0.416 0.333-0.0954 0.13-0.147 0.274-0.228 0.411-0.093 0.154-0.23 0.264-0.333 0.411-0.159 0.218-0.325 0.431-0.489 0.643-0.198 0.259-0.413 0.435-0.641 0.665-0.23 0.23-0.364 0.543-0.553 0.807-0.533 0.751-0.893 1.57-1.15 2.46-0.161 0.55-0.338 1.28-0.108 1.83 0.0881 0.21 0.247 0.413 0.379 0.594 0.186 0.257 0.186 0.33 0.179 0.646-0.0121 0.479 0.0196 0.961 0.0024 1.44-0.0098 0.318-0.113 0.555-0.171 0.861-0.105 0.56-0.0709 1.16-0.13 1.72-0.0612 0.587-0.0905 1.17-0.0758 1.76 0.0268 1.14 0.497 2.33 0.203 3.47-0.188 0.736-0.634 1.39-0.656 2.16-0.0196 0.753 0.0881 1.51 0.161 2.26 0.0514 0.494 0.0734 1.3 0.465 1.67 0.164 0.154 0.401 0.142 0.602 0.196 0.25 0.0661 0.482 0.122 0.734 0.171 0.477 0.0881 0.932 0.184 1.41 0.24 0.267 0.0295 0.389 0.0367 0.599-0.0905 0.157-0.0954 0.296-0.174 0.477-0.23 0.161-0.0514 0.536-0.0709 0.634-0.113 0.57-0.0295 1.15-0.113 1.72-0.139 1.18-0.0587 2.36-0.0295 3.55-0.113 0.445-0.0317 0.89 0 1.34-0.0367 0.9-0.0734 1.78-0.313 2.67-0.443 0.785-0.113 1.56-0.147 2.35-0.186 0.582-0.0295 1.17-0.171 1.75-0.247 0.646-0.0856 1.28-0.12 1.94-0.115 0.193 0 0.399-0.017 0.585 0.0563 0.157 0.0636 0.264 0.186 0.423 0.252 0.338 0.142 0.773 0.147 1.11 0.161 0.572 0.0219 1.14 0.0514 1.72 0.0734 0.837 0.0344 1.68 0.0978 2.52 0.105 0.871 0.01 1.74-0.0295 2.62 0.0147 0.46 0.0246 0.915 0.0759 1.38 0.0856 0.653 0.0121 1.29-0.0905 1.94-0.196 1.13-0.186 2.24-0.426 3.39-0.524 1.48-0.125 2.9-0.115 4.38 5e-3 0.947 0.0758 1.89 0.0636 2.84 0.132 1.2 0.0856 2.4 0.176 3.61 0.205 1.27 0.0295 2.54 0.0978 3.81 0.093 1.78-7e-3 3.55 7e-3 5.34 0.13 0.895 0.0636 1.76 0.0344 2.66-0.0344 0.668-0.0514 1.39-0.0563 2.05-0.171 1.1-0.191 2.2-0.56 3.25-0.935 0.237-0.0832 0.438-0.0881 0.692-0.0856 0.734 0.0147 1.46 0.137 2.18 0.252 0.996 0.159 2.01 0.272 3.01 0.345 0.861 0.0636 1.76 0.139 2.62 0.137 0.687 0 1.36-0.0587 2.05-0.115 0.893-0.0709 1.84-0.274 2.74-0.142 0.548 0.0807 1.07 0.1 1.63 0.0367 0.433-0.049 0.856-0.176 1.29-0.225 0.575-0.0661 1.17-0.0121 1.75-0.01 0.851 7e-3 1.7-0.122 2.54-0.0514 1.03 0.0881 2.07 0.0514 3.11 0.0489 1.8-5e-3 3.6 0.0856 5.4 0.0954 1.88 0.0121 3.77-7e-3 5.65-5e-3 0.859 2e-3 1.72 0.0147 2.59 7e-3 1.09-0.01 2.17-0.132 3.26-0.171 0.626-0.0219 1.25-0.01 1.88-0.0392 0.57-0.0268 1.19 0.01 1.75-0.0881 0.413-0.0734 0.761-0.335 1.15-0.479 0.798-0.296 1.65-0.36 2.48-0.477 0.289-0.0416 0.448-0.11 0.702-0.259 0.568-0.338 1.13-0.639 1.78-0.768 0.367-0.0709 0.746-0.127 1.11-0.228 0.281-0.0758 0.687-0.347 0.993-0.294-0.0636 0.0807-0.157 0.0759-0.259 0.0783 0.149-5e-3 0.328 0.0268 0.47-0.0219-0.0807-0.23-0.0856-0.296 0.01-0.577 0.093-0.281 0.22-0.521 0.372-0.775 0.152-0.254 0.127-0.369 0.191-0.634 0.0246-0.1 0.117-0.174 0.147-0.264 0.0416-0.125 0.017-0.259 0.017-0.387-5e-3 -0.335-5e-3 -0.646-0.0734-0.976-0.0709-0.335 0.108-0.643 0.183-0.969 0.117-0.502 0.387-0.768 0.0709-1.24-0.22-0.333-0.25-0.619-0.0905-0.991 0.181-0.428 0.472-0.834 0.717-1.23 0.1-0.161 0.303-0.391 0.362-0.59 0.044-0.164 0.0489-0.479 5e-3 -0.648-0.0317-0.13-0.132-0.257-0.179-0.382-0.0979-0.252-0.125-0.526-0.159-0.79-0.0344-0.262-0.0759-0.526-0.0759-0.79 2e-3 -0.345 0.105-0.663 0.132-1 0.017-0.208-0.0246-0.333-0.0538-0.524-0.044-0.279-0.0246-0.563-0.0246-0.844 0-0.201-0.0318-0.44 0.0121-0.636 0.108-0.477 0.553-0.89 0.832-1.28" fill="#e98c5c"/>
  <path d="m203 138c-0.179-0.494-0.115-1.02-0.117-1.54-2e-3 -0.805 0.103-1.6 0.0954-2.41-7e-3 -0.829 0.0881-1.64 0.0881-2.46 0-0.411-0.017-0.773-0.0709-1.18-0.0563-0.416 0.0197-0.827-7e-3 -1.24-0.0344-0.555-0.465-1.05-0.724-1.52-0.152-0.267-0.369-0.597-0.384-0.903-0.044-0.986-0.115-1.97-0.0905-2.96 0.017-0.665 0.267-1.16 0.445-1.78 0.142-0.477 0.0832-1.01-2e-3 -1.49-0.144-0.802-0.46-1.45-0.961-2.08-0.24-0.303-0.509-0.582-0.749-0.883-0.113-0.139-0.205-0.294-0.325-0.433-0.191-0.223-0.311-0.428-0.472-0.673-0.269-0.401-0.634-0.638-0.837-1.1-0.103-0.232-0.164-0.472-0.223-0.717-0.071-0.291-0.108-0.597-0.201-0.886-0.174-0.548-0.406-0.966-0.78-1.39-0.519-0.599-1.14-0.961-1.86-1.28-0.543-0.245-1.11-0.318-1.67-0.423-0.325-0.142-0.663-0.264-1.02-0.36-0.0538-0.0268-0.103-0.0465-0.161-0.0832-0.328-0.196-0.675-0.318-1.04-0.406-0.342-0.0783-0.66-0.201-1.01-0.247-0.511-0.0636-1-0.093-1.52-0.093-1.34 0-2.67 0.0661-4.01 0.0881-1.01 0.017-2 0.1-3.01 0.0954-1.25-5e-3 -2.5 0.0954-3.75 0.093-1.82-0.01-3.65-2e-3 -5.47-2e-3 -0.851 0-1.73 0.0709-2.58-0.0121-0.431-0.044-0.876-0.188-1.3-0.272-0.839-0.169-1.69-0.318-2.52-0.524-0.533-0.127-0.905-0.208-1.47-0.193-0.822 0.0197-1.65 0.0709-2.47 0.159-0.656 0.0661-1.28 0.193-1.92 0.333-0.866 0.186-1.73 0.47-2.6 0.612-1.28 0.205-2.71 0.147-3.99 0.105-0.276-0.01-0.785 0.0196-1.09-0.0367-0.13-0.0219-0.247-0.0709-0.382-0.0832-0.435-0.0392-0.881 0.044-1.31 0.0734-0.643 0.044-1.3 0.0147-1.94 0.0197-1.01 7e-3 -2.01 0.0612-3.01 0.0905-0.538 0.017-1.08 0.105-1.61 0.1-0.543-2e-3 -1.09-0.0611-1.63-0.0783-1.27-0.0489-2.54-0.0219-3.81-0.0219-0.582 0-1.21 0.0587-1.79-0.01-0.731-0.0856-1.43-0.423-2.15-0.575-0.453-0.0979-0.917-0.0563-1.37 0.0121-1.17 0.171-2.35 0.333-3.54 0.289-0.531-0.0219-0.983-0.205-1.49-0.267-0.196-0.0246-0.409 0.0121-0.609 0-0.555-0.0344-1.09-0.0857-1.65-0.0857-0.89 2e-3 -1.77 0.0905-2.66 0.0979-0.793 5e-3 -1.59-0.0465-2.38 0.0367-0.45 0.0489-0.912 0.11-1.35 0.218-0.511 0.127-1 0.323-1.51 0.445-0.614 0.144-1.24 0.259-1.85 0.406-0.489 0.117-0.964 0.279-1.47 0.338-0.528 0.0611-1.06 0.105-1.59 0.184-0.531 0.0783-1.11 0.122-1.63 0.25-0.0318 7e-3 -0.0636 0.0121-0.0954 0.017-0.986 0.103-1.97 0.223-2.96 0.335-0.546-0.0268-1.09-0.0563-1.64-0.0563-0.917 0-1.82 0.0832-2.74 0.0954-0.553 0.01-1.11-2e-3 -1.66-5e-3 -0.272 0-0.555-0.0147-0.829-7e-3 -0.242 0.0121-0.457 0.0905-0.7 0.1-0.67 0.0344-1.31-5e-3 -1.97 0.0685-0.506 0.0538-1.04 0.0807-1.54 0.11-0.303 0.0196-0.602 0.0661-0.903 0.0832-0.267 0.017-0.546-0.0219-0.81 0.0268-0.548 0.11-1.02 0.352-1.56 0.506-0.284 0.0832-0.577 0.0954-0.859 0.174-0.438 0.125-0.844 0.338-1.29 0.455-0.435 0.122-0.868 0.262-1.31 0.372-0.296 0.0709-0.597 0.093-0.883 0.205-0.648 0.262-1.25 0.634-1.84 0.988-0.33 0.201-0.719 0.313-1.08 0.453-0.428 0.171-0.827 0.401-1.22 0.639-0.382 0.23-0.758 0.455-1.17 0.629-0.58 0.245-1.08 0.629-1.64 0.912-0.648 0.325-1.33 0.665-1.84 1.19-0.272 0.279-0.624 0.604-0.734 0.991-0.235 0.822-0.333 1.78 0.0318 2.59 0.144 0.32 0.205 0.634 0.406 0.937 0.171 0.262 0.323 0.494 0.453 0.778 0.127 0.281 0.183 0.541 0.35 0.817 0.161 0.264 0.357 0.509 0.533 0.763 0.147 0.208 0.308 0.46 0.369 0.712 0.223 0.927-0.568 1.84-0.846 2.66-0.139 0.411-0.166 0.807-0.245 1.22-0.0392 0.205-0.113 0.387-0.0685 0.599 0.0783 0.389 0.426 0.746 0.616 1.07 0.362 0.621 0.563 1.28 0.749 1.97 0.0783 0.286 0.169 0.575 0.179 0.868 0.0147 0.538-0.0268 1.07 0.0392 1.61 0.0587 0.477 0.0636 0.873 0.399 1.22 0.232 0.242 0.423 0.467 0.707 0.656 0.0832 0.0563 0.254 0.117 0.301 0.215 0.1 0.208-0.017 0.714-0.0783 0.9-0.174 0.536-0.477 1.11-0.829 1.54-0.198 0.245-0.453 0.352-0.453 0.683 0.0024 0.594 0.477 1.02 0.864 1.4 0.237 0.235 0.369 0.492 0.678 0.641 0.382 0.188 0.79 0.345 1.16 0.56 0.342 0.198 0.658 0.541 1.06 0.609 0.252 0.044 0.533 0.01 0.793 5e-3 0.856-5e-3 1.7 0.223 2.54 0 0.377-0.0954 0.746-0.245 1.12-0.313 0.213-0.0416 0.411-0.132 0.612-0.203 2.01 0.205 4.01 0.431 6.02 0.55 0.171 0.0661 0.342 0.137 0.514 0.203 0.377 0.144 0.788 0.213 1.19 0.225 0.778 0.0219 1.55 0.0661 2.33 0.093 0.824 0.0268 1.65-0.0832 2.47-0.0954 1.02-0.017 2.01-0.294 3.02-0.35 1.22-0.0661 2.44-0.22 3.65-0.342 1.76-0.0465 3.52-0.0857 5.27-0.122 2.68-0.0563 5.36-0.108 8.04-0.161 0.0538 0.0147 0.11 0.0197 0.164 0.0317 1.32 0.372 2.63 0.705 3.98 0.944 1.51 0.267 3.02 0.455 4.55 0.592 1.87 0.166 3.73 0.13 5.6 0.132 1.32 0 2.64 0.0392 3.95-0.169 1.34-0.208 2.45-0.761 3.71-1.22 0.734-0.272 1.5-0.465 2.27-0.612 3.72-0.01 7.43-2e-3 11.2 0.0344 0.147 0 0.296 5e-3 0.443 7e-3 0.744 0.232 1.46 0.494 2.25 0.553 1.78 0.125 3.57 0.017 5.35 0.235 0.218 0.0344 0.433 0.0709 0.651 0.105 0.137 0.0416 0.235 0 0.294-0.132 0.117-0.0611 0.11-0.105 0.262-0.147 0.347-0.103 0.866-0.0318 1.22 7e-3 0.379 0.0391 0.753 0.0563 1.13 0.0832 0.46 0.0344 0.92 0.117 1.38 0.171 0.824 0.0905 1.66 0.108 2.48 0.157 1.12 0.0636 2.23 0.113 3.34 0.24 0.709 0.0832 1.43 0.0685 2.14 0.161 0.46 0.0563 0.888 0.223 1.35 0.301 0.89 0.144 1.8 0.237 2.7 0.301 0.607 0.044 1.22 0.115 1.83 0.108 0.164-2e-3 0.318-2e-3 0.482 0.0197 1.27 0.164 2.59 0.01 3.87-0.0416 0.854-0.0367 1.71-0.0759 2.56-0.142 0.477-0.0344 1-0.0219 1.47-0.108 0.922-0.171 1.87-0.137 2.81-0.201 0.259-0.017 0.631-0.0147 0.878-0.132 0.161-0.0783 0.298-0.21 0.453-0.306 0.242-0.154 0.553-0.411 0.673-0.678 0.218-0.484 0.0612-1.05 0.142-1.56 0.311-0.421 0.575-0.873 0.802-1.36 0.0563-0.0709 0.117-0.144 0.166-0.218 0.0832-0.127 0.0905-0.242 0.0905-0.357 0.0538-0.13 0.117-0.259 0.169-0.387 0.0489-0.122 0.0832-0.24 0.13-0.362 0.0514-0.0611 0.103-0.127 0.144-0.174 0.144-0.166 0.347-0.225 0.502-0.367 0.164-0.154 0.157-0.323 0.23-0.516 0.139-0.36 0.183-0.778 0.0538-1.14" fill="#4d000b"/>
 </g>
 <g fill="#0b1014">
  <path d="m229 79.3 6.51-16.9 6.41 16.9zm9.92-25.7h-6.39l-18.1 41.5h8.28l3.76-9.48h18l3.86 9.48h8.44"/>
  <path d="m276 71.4c1.05 0 2.11-0.0783 3.17-0.235 1.05-0.154 2-0.448 2.84-0.878 0.839-0.431 1.53-1.05 2.08-1.85 0.546-0.8 0.82-1.83 0.82-3.08 0-1.14-0.254-2.06-0.763-2.78-0.506-0.724-1.15-1.3-1.94-1.73-0.78-0.428-1.67-0.722-2.66-0.878-0.998-0.154-1.96-0.235-2.9-0.235h-6.68v11.7zm-13.4-17.9h14.4c1.95 0 3.85 0.205 5.69 0.616 1.83 0.411 3.47 1.08 4.9 2.02 1.42 0.939 2.57 2.17 3.43 3.69 0.856 1.52 1.29 3.38 1.29 5.57 0 3.01-0.851 5.46-2.55 7.36-1.7 1.9-4.02 3.18-6.95 3.84l11.1 18.4h-8.91l-9.62-17.6h-5.39v17.6h-7.39"/>
  <path d="m330 63.3c-1.1-1.48-2.52-2.57-4.28-3.25-1.76-0.683-3.48-1.02-5.16-1.02-2.15 0-4.1 0.391-5.86 1.17-1.76 0.783-3.27 1.86-4.54 3.22-1.27 1.37-2.25 2.97-2.93 4.81-0.685 1.84-1.03 3.83-1.03 5.98 0 2.27 0.333 4.34 0.998 6.21 0.665 1.88 1.61 3.49 2.84 4.84 1.23 1.35 2.71 2.39 4.43 3.14 1.72 0.741 3.65 1.11 5.8 1.11 2.23 0 4.2-0.44 5.92-1.32 1.72-0.878 3.11-2.04 4.16-3.49l5.92 4.16c-1.84 2.31-4.09 4.1-6.74 5.37-2.66 1.27-5.76 1.9-9.32 1.9-3.25 0-6.22-0.536-8.94-1.61-2.72-1.07-5.05-2.58-7.01-4.51-1.95-1.93-3.48-4.24-4.57-6.92-1.09-2.67-1.64-5.64-1.64-8.88 0-3.32 0.575-6.32 1.73-9 1.15-2.68 2.74-4.95 4.75-6.83 2.01-1.88 4.39-3.32 7.12-4.34 2.74-1.02 5.71-1.52 8.91-1.52 1.33 0 2.72 0.127 4.16 0.382 1.45 0.254 2.83 0.643 4.16 1.17 1.33 0.528 2.58 1.18 3.75 1.96 1.17 0.78 2.17 1.72 2.99 2.81"/>
  <path d="m342 53.6h7.39v16.8h19.4v-16.8h7.39v41.5h-7.39v-18.4h-19.4v18.4h-7.39"/>
  <path d="m403 41.8h7.97l-8.27 8.44h-5.51zm-16.1 11.7h27.5v6.45h-20.1v10.6h19.1v6.21h-19.1v11.7h21.2v6.57h-28.5"/>
  <path d="m430 74.2c0 2.23 0.342 4.27 1.03 6.12 0.685 1.86 1.66 3.47 2.93 4.84 1.27 1.37 2.77 2.43 4.51 3.19 1.74 0.763 3.66 1.14 5.77 1.14 2.11 0 4.04-0.382 5.81-1.14 1.76-0.761 3.27-1.82 4.54-3.19 1.27-1.37 2.25-2.98 2.93-4.84 0.683-1.85 1.02-3.9 1.02-6.12 0-2.15-0.342-4.14-1.02-5.98-0.685-1.84-1.65-3.44-2.9-4.8-1.25-1.37-2.75-2.44-4.52-3.22-1.76-0.783-3.71-1.17-5.86-1.17-2.15 0-4.09 0.391-5.83 1.17-1.74 0.78-3.23 1.86-4.49 3.22-1.25 1.37-2.22 2.97-2.9 4.8-0.683 1.84-1.02 3.83-1.02 5.98m-8.03 0c0-3.32 0.555-6.32 1.67-9 1.11-2.68 2.66-4.95 4.63-6.83 1.97-1.88 4.32-3.32 7.04-4.34 2.72-1.02 5.68-1.53 8.88-1.53 3.24 0 6.24 0.509 8.97 1.53 2.73 1.01 5.1 2.46 7.09 4.34 1.99 1.88 3.55 4.15 4.66 6.83 1.11 2.68 1.67 5.68 1.67 9 0 3.24-0.56 6.2-1.67 8.88-1.12 2.68-2.67 4.99-4.66 6.92-1.99 1.94-4.36 3.44-7.09 4.51-2.74 1.08-5.73 1.61-8.97 1.61-3.2 0-6.16-0.536-8.88-1.61-2.72-1.07-5.06-2.58-7.04-4.51-1.97-1.93-3.52-4.24-4.63-6.92-1.12-2.67-1.67-5.64-1.67-8.88"/>
  <path d="m496 62.2c-0.783-1.02-1.88-1.87-3.31-2.55-1.43-0.685-2.86-1.03-4.31-1.03-0.861 0-1.72 0.108-2.58 0.323-0.861 0.215-1.64 0.548-2.35 0.996-0.702 0.45-1.28 1.04-1.73 1.76-0.45 0.724-0.673 1.59-0.673 2.61 0 0.937 0.193 1.74 0.585 2.4 0.391 0.665 0.927 1.23 1.61 1.7 0.683 0.47 1.51 0.881 2.49 1.23 0.976 0.352 2.05 0.705 3.22 1.06 1.33 0.428 2.71 0.917 4.13 1.47 1.43 0.548 2.74 1.27 3.93 2.17 1.19 0.9 2.17 2.03 2.93 3.4 0.763 1.37 1.14 3.07 1.14 5.1 0 2.23-0.411 4.17-1.23 5.83-0.82 1.66-1.92 3.04-3.28 4.13-1.37 1.09-2.97 1.91-4.81 2.46-1.84 0.548-3.77 0.822-5.81 0.822-2.7 0-5.34-0.499-7.91-1.5-2.58-0.996-4.69-2.47-6.33-4.43l5.28-4.92c1.02 1.41 2.38 2.52 4.08 3.34 1.7 0.822 3.37 1.23 5.01 1.23 0.861 0 1.74-0.108 2.64-0.323 0.9-0.215 1.71-0.575 2.43-1.09 0.724-0.506 1.31-1.14 1.76-1.9 0.448-0.763 0.673-1.71 0.673-2.84 0-1.1-0.254-2-0.763-2.73-0.509-0.722-1.19-1.35-2.05-1.88-0.861-0.526-1.87-0.986-3.05-1.38-1.17-0.389-2.41-0.8-3.69-1.23-1.25-0.389-2.5-0.859-3.75-1.41-1.25-0.546-2.37-1.27-3.37-2.17-0.998-0.898-1.81-2-2.43-3.31-0.624-1.31-0.937-2.94-0.937-4.9 0-2.11 0.443-3.93 1.32-5.45 0.881-1.52 2.03-2.78 3.46-3.78 1.43-0.996 3.05-1.74 4.86-2.23 1.82-0.489 3.66-0.734 5.54-0.734 2.11 0 4.25 0.372 6.42 1.11 2.17 0.744 4.05 1.86 5.66 3.34"/>
  <path d="m539 63.3c-1.1-1.48-2.52-2.57-4.28-3.25-1.76-0.683-3.48-1.02-5.16-1.02-2.15 0-4.1 0.391-5.86 1.17-1.76 0.783-3.27 1.86-4.54 3.22-1.27 1.37-2.25 2.97-2.94 4.81-0.683 1.84-1.03 3.83-1.03 5.98 0 2.27 0.33 4.34 0.998 6.21 0.665 1.88 1.61 3.49 2.85 4.84 1.23 1.35 2.7 2.39 4.43 3.14 1.72 0.741 3.65 1.11 5.8 1.11 2.23 0 4.2-0.44 5.92-1.32 1.72-0.878 3.11-2.04 4.16-3.49l5.92 4.16c-1.84 2.31-4.09 4.1-6.74 5.37-2.66 1.27-5.76 1.9-9.32 1.9-3.25 0-6.22-0.536-8.94-1.61-2.72-1.07-5.05-2.58-7.01-4.51-1.95-1.93-3.48-4.24-4.57-6.92-1.09-2.67-1.64-5.64-1.64-8.88 0-3.32 0.577-6.32 1.73-9 1.15-2.68 2.73-4.95 4.75-6.83 2.01-1.88 4.39-3.32 7.12-4.34 2.74-1.02 5.71-1.52 8.91-1.52 1.33 0 2.72 0.127 4.16 0.382 1.45 0.254 2.83 0.643 4.16 1.17 1.33 0.528 2.58 1.18 3.75 1.96 1.17 0.78 2.17 1.72 2.99 2.81"/>
  <path d="m551 95.1h7.39v-41.5h-7.39z"/>
  <path d="m569 53.6h27.5v6.45h-20.1v10.6h19.1v6.22h-19.1v11.7h21.2v6.57h-28.5"/>
  <path d="m606 53.6h9.79l19.3 31.1h0.118v-31.1h7.39v41.5h-9.38l-19.7-32.1h-0.118v32.1h-7.39"/>
  <path d="m683 63.3c-1.1-1.48-2.52-2.57-4.28-3.25-1.76-0.683-3.48-1.02-5.16-1.02-2.15 0-4.1 0.391-5.86 1.17-1.76 0.783-3.27 1.86-4.54 3.22-1.27 1.37-2.25 2.97-2.93 4.81-0.685 1.84-1.03 3.83-1.03 5.98 0 2.27 0.333 4.34 0.998 6.21 0.665 1.88 1.61 3.49 2.84 4.84 1.23 1.35 2.71 2.39 4.43 3.14 1.72 0.741 3.65 1.11 5.8 1.11 2.23 0 4.2-0.44 5.92-1.32 1.72-0.878 3.11-2.04 4.16-3.49l5.92 4.16c-1.84 2.31-4.09 4.1-6.74 5.37-2.66 1.27-5.76 1.9-9.32 1.9-3.25 0-6.22-0.536-8.94-1.61-2.72-1.07-5.05-2.58-7.01-4.51-1.95-1.93-3.48-4.24-4.57-6.92-1.09-2.67-1.64-5.64-1.64-8.88 0-3.32 0.575-6.32 1.73-9 1.15-2.68 2.74-4.95 4.75-6.83 2.01-1.88 4.39-3.32 7.12-4.34 2.74-1.02 5.71-1.52 8.91-1.52 1.33 0 2.72 0.127 4.16 0.382 1.45 0.254 2.83 0.643 4.16 1.17 1.33 0.528 2.58 1.18 3.75 1.96 1.17 0.78 2.17 1.72 2.99 2.81"/>
  <path d="m695 53.6h27.5v6.45h-20.1v10.6h19.1v6.22h-19.1v11.7h21.2v6.57h-28.5"/>
  <path d="m753 62.2c-0.783-1.02-1.88-1.87-3.31-2.55-1.43-0.685-2.86-1.03-4.31-1.03-0.864 0-1.72 0.108-2.58 0.323-0.861 0.215-1.64 0.548-2.35 0.996-0.7 0.45-1.28 1.04-1.73 1.76-0.45 0.724-0.673 1.59-0.673 2.61 0 0.937 0.196 1.74 0.585 2.4 0.394 0.665 0.927 1.23 1.61 1.7 0.683 0.47 1.52 0.881 2.5 1.23 0.974 0.352 2.05 0.705 3.22 1.06 1.33 0.428 2.71 0.917 4.14 1.47 1.42 0.548 2.74 1.27 3.93 2.17 1.19 0.9 2.17 2.03 2.93 3.4 0.763 1.37 1.15 3.07 1.15 5.1 0 2.23-0.413 4.17-1.23 5.83-0.822 1.66-1.92 3.04-3.29 4.13-1.37 1.09-2.97 1.91-4.8 2.46-1.84 0.548-3.77 0.822-5.81 0.822-2.7 0-5.34-0.499-7.91-1.5-2.58-0.996-4.69-2.47-6.34-4.43l5.28-4.92c1.02 1.41 2.38 2.52 4.08 3.34 1.7 0.822 3.37 1.23 5.01 1.23 0.861 0 1.74-0.108 2.64-0.323 0.9-0.215 1.71-0.575 2.43-1.09 0.724-0.506 1.31-1.14 1.76-1.9 0.445-0.763 0.673-1.71 0.673-2.84 0-1.1-0.254-2-0.766-2.73-0.506-0.722-1.19-1.35-2.05-1.88-0.861-0.526-1.87-0.986-3.05-1.38-1.17-0.389-2.41-0.8-3.69-1.23-1.25-0.389-2.5-0.859-3.75-1.41-1.25-0.546-2.38-1.27-3.37-2.17-1-0.898-1.81-2-2.43-3.31-0.624-1.31-0.939-2.94-0.939-4.9 0-2.11 0.445-3.93 1.32-5.45 0.883-1.52 2.03-2.78 3.46-3.78 1.43-0.996 3.05-1.74 4.87-2.23 1.82-0.489 3.66-0.734 5.54-0.734 2.11 0 4.25 0.372 6.42 1.11 2.17 0.744 4.05 1.86 5.65 3.34"/>
  <path d="m257 145h6.99c1.36 0 2.65-0.13 3.89-0.391 1.24-0.259 2.31-0.678 3.23-1.25 0.92-0.575 1.66-1.32 2.22-2.24 0.555-0.922 0.834-2.03 0.834-3.31 0-2.43-0.824-4.25-2.48-5.45-1.65-1.2-3.99-1.8-7.02-1.8h-7.67zm0-17.5h7.56c0.905 0 1.82-0.105 2.74-0.313 0.92-0.208 1.76-0.565 2.53-1.07 0.763-0.504 1.38-1.17 1.85-2.01 0.47-0.834 0.705-1.86 0.705-3.08 0-1.18-0.235-2.18-0.705-3-0.47-0.817-1.1-1.48-1.9-2.01-0.8-0.521-1.74-0.895-2.82-1.12-1.08-0.225-2.22-0.34-3.44-0.34h-6.52zm-3.76-16.2h11c1.39 0 2.8 0.149 4.22 0.445 1.43 0.294 2.7 0.8 3.83 1.51 1.13 0.712 2.05 1.68 2.76 2.89 0.712 1.22 1.07 2.75 1.07 4.59 0 1.95-0.594 3.64-1.78 5.08-1.19 1.44-2.78 2.39-4.77 2.84v0.105c2.39 0.279 4.38 1.21 5.96 2.79 1.58 1.58 2.37 3.73 2.37 6.44 0 1.53-0.323 2.93-0.964 4.2-0.643 1.27-1.56 2.35-2.74 3.23-1.18 0.888-2.62 1.58-4.32 2.06-1.7 0.487-3.61 0.729-5.72 0.729h-10.9"/>
  <path d="m323 130c0-2.15-0.35-4.2-1.04-6.15-0.7-1.94-1.7-3.65-3.03-5.13-1.32-1.48-2.93-2.65-4.82-3.52-1.9-0.868-4.03-1.3-6.39-1.3-2.37 0-4.5 0.433-6.39 1.3-1.9 0.868-3.51 2.04-4.83 3.52-1.32 1.48-2.33 3.19-3.02 5.13-0.7 1.94-1.05 3.99-1.05 6.15s0.347 4.2 1.05 6.15c0.695 1.94 1.7 3.65 3.02 5.1 1.32 1.46 2.93 2.62 4.83 3.49 1.89 0.868 4.02 1.3 6.39 1.3 2.36 0 4.49-0.435 6.39-1.3 1.89-0.866 3.5-2.03 4.82-3.49 1.32-1.46 2.33-3.16 3.03-5.1 0.695-1.94 1.04-3.99 1.04-6.15m3.96-0.0268c0 2.82-0.487 5.41-1.46 7.77-0.971 2.37-2.32 4.41-4.04 6.13-1.72 1.72-3.75 3.07-6.1 4.04-2.35 0.974-4.89 1.46-7.64 1.46-2.75 0-5.29-0.487-7.64-1.46-2.35-0.974-4.38-2.32-6.1-4.04-1.72-1.72-3.07-3.76-4.05-6.13-0.974-2.36-1.46-4.96-1.46-7.77 0-2.82 0.484-5.41 1.46-7.77 0.974-2.36 2.32-4.41 4.05-6.13 1.72-1.72 3.76-3.07 6.1-4.04 2.35-0.974 4.89-1.46 7.64-1.46 2.75 0 5.29 0.487 7.64 1.46 2.35 0.971 4.38 2.32 6.1 4.04 1.72 1.72 3.07 3.76 4.04 6.13 0.974 2.37 1.46 4.96 1.46 7.77"/>
  <path d="m343 128h6.52c3.02 0 5.36-0.548 6.99-1.64 1.63-1.09 2.45-2.74 2.45-4.93 0-1.22-0.225-2.24-0.68-3.08-0.45-0.837-1.08-1.51-1.88-2.04-0.802-0.521-1.77-0.905-2.92-1.15-1.15-0.245-2.42-0.367-3.81-0.367h-6.68zm0 20.5h-3.76v-36.9h10.8c1.81 0 3.49 0.174 5.03 0.521 1.55 0.347 2.89 0.912 4.02 1.7 1.13 0.78 2.01 1.8 2.63 3.05 0.626 1.25 0.939 2.78 0.939 4.59 0 1.36-0.242 2.59-0.729 3.7-0.487 1.12-1.15 2.08-1.98 2.9-0.834 0.817-1.82 1.47-2.97 1.95-1.15 0.489-2.4 0.8-3.76 0.939l10.8 17.6h-4.59l-10.2-17.3h-6.26"/>
  <path d="m378 145h7.46c2.78 0 5.21-0.433 7.28-1.3 2.07-0.868 3.78-2.01 5.14-3.42 1.36-1.41 2.37-3.02 3.05-4.83 0.678-1.81 1.02-3.66 1.02-5.58 0-1.91-0.342-3.77-1.02-5.58-0.678-1.8-1.7-3.42-3.05-4.82-1.36-1.41-3.07-2.54-5.14-3.42-2.07-0.871-4.5-1.3-7.28-1.3h-7.46zm-3.76-33.6h12.3c2.29 0 4.6 0.382 6.91 1.15 2.31 0.766 4.4 1.93 6.26 3.47 1.86 1.54 3.36 3.47 4.51 5.79 1.15 2.31 1.72 5 1.72 8.06 0 3.09-0.575 5.79-1.72 8.09-1.15 2.29-2.65 4.21-4.51 5.76-1.86 1.55-3.95 2.71-6.26 3.47-2.31 0.766-4.62 1.15-6.91 1.15h-12.3"/>
  <path d="m422 145h19.8v3.34h-23.5v-36.9h22.9v3.34h-19.1v12.7h17.9v3.34h-17.9"/>
  <path d="m458 135h16.3l-8.14-19.6zm-5.43 13.1h-4.12l16-36.9h3.65l15.9 36.9h-4.17l-4.07-9.7h-19.1"/>
  <path d="m507 149c-2.78 0-5.06-0.479-6.83-1.43-1.78-0.957-3.18-2.17-4.22-3.63-1.04-1.46-1.77-3.05-2.17-4.77-0.401-1.72-0.599-3.35-0.599-4.88v-23.2h3.75v22.7c0 1.49 0.176 2.95 0.524 4.35 0.347 1.41 0.912 2.66 1.7 3.76 0.783 1.1 1.82 1.98 3.1 2.66 1.29 0.678 2.87 1.02 4.75 1.02s3.46-0.34 4.75-1.02c1.29-0.678 2.32-1.57 3.1-2.66 0.78-1.09 1.35-2.35 1.7-3.76 0.347-1.41 0.521-2.86 0.521-4.35v-22.7h3.76v23.2c0 1.53-0.201 3.16-0.599 4.88-0.399 1.72-1.12 3.31-2.17 4.77-1.04 1.46-2.46 2.67-4.25 3.63-1.79 0.954-4.06 1.43-6.81 1.43"/>
  <path d="m546 126 10.1-14.9h4.48l-12.3 17.6 13.6 19.4h-4.7l-11.3-16.6-11.2 16.6h-4.69l13.6-19.4-12.4-17.5h4.69"/>
 </g>
</svg>
