<?xml version="1.0" encoding="UTF-8"?>
<!-- Created with Inkscape (http://www.inkscape.org/) -->
<svg width="272" height="272" version="1.1" viewBox="0 0 272 272" xml:space="preserve" xmlns="http://www.w3.org/2000/svg"><defs><radialGradient id="radialGradient32" cx="0" cy="0" r="1" gradientTransform="matrix(170 0 0 170 166 103)" gradientUnits="userSpaceOnUse"><stop stop-color="#486492" offset="0"/><stop stop-color="#132746" offset=".779"/><stop stop-color="#132746" offset="1"/></radialGradient></defs><g transform="matrix(1.01 0 0 1.01 .00309 -.000786)"><path d="m122 270v-0.133h-2.14v-0.133h-2v-0.133h-1.47v-0.133h-0.934v-0.133h-0.934v-0.133h-0.934v-0.133h-0.934v-0.133h-0.934v-0.133h-0.934v-0.133h-0.934v-0.133h-1.07v-0.133h-0.801v-0.133h-0.534v-0.133h-0.667v-0.133h-0.534v-0.133h-0.534v-0.133h-0.667v-0.133h-0.534v-0.133h-0.534v-0.133h-0.534v-0.133h-0.667v-0.133h-0.534v-0.133h-0.534v-0.133h-0.667v-0.133h-0.534v-0.133h-0.534v-0.133h-0.534v-0.133h-0.534v-0.133h-0.4v-0.133h-0.4v-0.133h-0.4v-0.133h-0.4v-0.133h-0.4v-0.133h-0.4v-0.133h-0.4v-0.133h-0.4v-0.133h-0.4v-0.133h-0.4v-0.133h-0.4v-0.133h-0.4v-0.133h-0.4v-0.133h-0.4v-0.133h-0.4v-0.133h-0.4v-0.133h-0.4v-0.133h-0.4v-0.133h-0.4v-0.133h-0.4v-0.133h-0.4v-0.133h-0.267v-0.133h-0.267v-0.133h-0.4v-0.133h-0.267v-0.133h-0.267v-0.133h-0.4v-0.133h-0.267v-0.133h-0.267v-0.133h-0.4v-0.133h-0.267v-0.133h-0.267v-0.133h-0.4v-0.133h-0.267v-0.133h-0.267v-0.133h-0.4v-0.133h-0.267v-0.133h-0.267v-0.133h-0.4v-0.133h-0.267v-0.133h-0.267v-0.133h-0.4v-0.133h-0.267v-0.133h-0.267v-0.133h-0.4v-0.133h-0.267v-0.133h-0.267v-0.133h-0.267v-0.133h-0.267v-0.133h-0.267v-0.133h-0.267v-0.133h-0.267v-0.133h-0.267v-0.133h-0.267v-0.133h-0.133v-0.133h-0.267v-0.133h-0.267v-0.133h-0.267v-0.133h-0.267v-0.133h-0.267v-0.133h-0.267v-0.133h-0.267v-0.133h-0.133v-0.133h-0.267v-0.133h-0.267v-0.133h-0.267v-0.133h-0.267v-0.133h-0.267v-0.133h-0.267v-0.133h-0.267v-0.133h-0.133v-0.133h-0.267v-0.133h-0.267v-0.133h-0.267v-0.133h-0.267v-0.133h-0.267v-0.133h-0.267v-0.133h-0.267v-0.133h-0.133v-0.133h-0.267v-0.133h-0.267v-0.133h-0.133v-0.133h-0.267v-0.133h-0.267v-0.133h-0.133v-0.133h-0.267v-0.133h-0.133v-0.133h-0.267v-0.133h-0.133v-0.133h-0.267v-0.133h-0.133v-0.133h-0.267v-0.133h-0.267v-0.133h-0.133v-0.133h-0.267v-0.133h-0.133v-0.133h-0.267v-0.133h-0.133v-0.133h-0.267v-0.133h-0.133v-0.133h-0.267v-0.133h-0.267v-0.133h-0.133v-0.133h-0.267v-0.133h-0.133v-0.133h-0.267v-0.133h-0.133v-0.133h-0.267v-0.133h-0.133v-0.133h-0.267v-0.133h-0.267v-0.133h-0.133v-0.133h-0.267v-0.133h-0.133v-0.133h-0.267v-0.133h-0.133v-0.133h-0.267v-0.133h-0.133v-0.133h-0.267v-0.133h-0.133v-0.133h-0.267v-0.133h-0.133v-0.133h-0.133v-0.133h-0.267v-0.133h-0.133v-0.133h-0.133v-0.133h-0.267v-0.133h-0.133v-0.133h-0.133v-0.133h-0.267v-0.133h-0.133v-0.133h-0.133v-0.133h-0.267v-0.133h-0.133v-0.133h-0.267v-0.133h-0.133v-0.133h-0.133v-0.133h-0.267v-0.133h-0.133v-0.133h-0.133v-0.133h-0.267v-0.133h-0.133v-0.133h-0.133v-0.133h-0.267v-0.133h-0.133v-0.133h-0.133v-0.133h-0.267v-0.133h-0.133v-0.133h-0.133v-0.133h-0.267v-0.133h-0.133v-0.133h-0.133v-0.133h-0.267v-0.133h-0.133v-0.133h-0.133v-0.133h-0.133v-0.133h-0.267v-0.133h-0.133v-0.133h-0.133v-0.133h-0.133v-0.133h-0.133v-0.133h-0.267v-0.133h-0.133v-0.133h-0.133v-0.133h-0.133v-0.133h-0.267v-0.133h-0.133v-0.133h-0.133v-0.133h-0.133v-0.133h-0.133v-0.133h-0.267v-0.133h-0.133v-0.133h-0.133v-0.133h-0.133v-0.133h-0.133v-0.133h-0.133v-0.133h-0.267v-0.133h-0.133v-0.133h-0.133v-0.133h-0.133v-0.133h-0.133v-0.133h-0.133v-0.133h-0.133v-0.133h-0.267v-0.133h-0.133v-0.133h-0.133v-0.133h-0.133v-0.133h-0.133v-0.133h-0.133v-0.133h-0.133v-0.133h-0.267v-0.133h-0.133v-0.133h-0.133v-0.133h-0.133v-0.133h-0.133v-0.133h-0.133v-0.133h-0.133v-0.133h-0.133v-0.133h-0.133v-0.133h-0.267v-0.133h-0.133v-0.133h-0.133v-0.133h-0.133v-0.133h-0.133v-0.133h-0.133v-0.133h-0.133v-0.133h-0.133v-0.133h-0.133v-0.133h-0.133v-0.133h-0.133v-0.133h-0.133v-0.133h-0.133v-0.133h-0.133v-0.133h-0.267v-0.133h-0.133v-0.133h-0.133v-0.133h-0.133v-0.133h-0.133v-0.133h-0.133v-0.133h-0.133v-0.133h-0.133v-0.133h-0.133v-0.133h-0.133v-0.133h-0.133v-0.133h-0.133v-0.133h-0.133v-0.133h-0.133v-0.133h-0.267v-0.133h-0.133v-0.133h-0.133v-0.133h-0.133v-0.133h-0.133v-0.133h-0.133v-0.133h-0.133v-0.267h-0.133v-0.133h-0.133v-0.133h-0.133v-0.133h-0.133v-0.133h-0.133v-0.133h-0.133v-0.133h-0.133v-0.133h-0.133v-0.133h-0.133v-0.133h-0.133v-0.133h-0.133v-0.133h-0.133v-0.133h-0.133v-0.133h-0.133v-0.133h-0.133v-0.133h-0.133v-0.133h-0.133v-0.133h-0.133v-0.133h-0.133v-0.133h-0.133v-0.133h-0.133v-0.133h-0.133v-0.133h-0.133v-0.133h-0.133v-0.133h-0.133v-0.133h-0.133v-0.133h-0.133v-0.133h-0.133v-0.133h-0.133v-0.133h-0.133v-0.133h-0.133v-0.133h-0.133v-0.133h-0.133v-0.133h-0.133v-0.267h-0.133v-0.133h-0.133v-0.133h-0.133v-0.133h-0.133v-0.133h-0.133v-0.133h-0.133v-0.133h-0.133v-0.133h-0.133v-0.133h-0.133v-0.267h-0.133v-0.133h-0.133v-0.133h-0.133v-0.133h-0.133v-0.133h-0.133v-0.133h-0.133v-0.133h-0.133v-0.133h-0.133v-0.133h-0.133v-0.133h-0.133v-0.267h-0.133v-0.133h-0.133v-0.133h-0.133v-0.133h-0.133v-0.133h-0.133v-0.133h-0.133v-0.133h-0.133v-0.133h-0.133v-0.133h-0.133v-0.267h-0.133v-0.133h-0.133v-0.133h-0.133v-0.133h-0.133v-0.133h-0.133v-0.267h-0.133v-0.133h-0.133v-0.133h-0.133v-0.133h-0.133v-0.133h-0.133v-0.267h-0.133v-0.133h-0.133v-0.133h-0.133v-0.133h-0.133v-0.133h-0.133v-0.267h-0.133v-0.133h-0.133v-0.133h-0.133v-0.133h-0.133v-0.133h-0.133v-0.267h-0.133v-0.133h-0.133v-0.133h-0.133v-0.133h-0.133v-0.133h-0.133v-0.267h-0.133v-0.133h-0.133v-0.133h-0.133v-0.133h-0.133v-0.133h-0.133v-0.267h-0.133v-0.133h-0.133v-0.133h-0.133v-0.133h-0.133v-0.267h-0.133v-0.133h-0.133v-0.133h-0.133v-0.267h-0.133v-0.133h-0.133v-0.133h-0.133v-0.267h-0.133v-0.133h-0.133v-0.133h-0.133v-0.267h-0.133v-0.133h-0.133v-0.133h-0.133v-0.133h-0.133v-0.267h-0.133v-0.133h-0.133v-0.133h-0.133v-0.267h-0.133v-0.133h-0.133v-0.133h-0.133v-0.267h-0.133v-0.133h-0.133v-0.133h-0.133v-0.133h-0.133v-0.267h-0.133v-0.133h-0.133v-0.133h-0.133v-0.267h-0.133v-0.133h-0.133v-0.267h-0.133v-0.133h-0.133v-0.133h-0.133v-0.267h-0.133v-0.133h-0.133v-0.267h-0.133v-0.133h-0.133v-0.267h-0.133v-0.133h-0.133v-0.133h-0.133v-0.267h-0.133v-0.133h-0.133v-0.267h-0.133v-0.133h-0.133v-0.267h-0.133v-0.133h-0.133v-0.133h-0.133v-0.267h-0.133v-0.133h-0.133v-0.267h-0.133v-0.133h-0.133v-0.133h-0.133v-0.267h-0.133v-0.133h-0.133v-0.267h-0.133v-0.133h-0.133v-0.267h-0.133v-0.133h-0.133v-0.267h-0.133v-0.133h-0.133v-0.267h-0.133v-0.133h-0.133v-0.267h-0.133v-0.267h-0.133v-0.133h-0.133v-0.267h-0.133v-0.133h-0.133v-0.267h-0.133v-0.133h-0.133v-0.267h-0.133v-0.133h-0.133v-0.267h-0.133v-0.267h-0.133v-0.133h-0.133v-0.267h-0.133v-0.133h-0.133v-0.267h-0.133v-0.133h-0.133v-0.267h-0.133v-0.133h-0.133v-0.267h-0.133v-0.133h-0.133v-0.267h-0.133v-0.267h-0.133v-0.267h-0.133v-0.133h-0.133v-0.267h-0.133v-0.267h-0.133v-0.133h-0.133v-0.267h-0.133v-0.267h-0.133v-0.133h-0.133v-0.267h-0.133v-0.267h-0.133v-0.267h-0.133v-0.133h-0.133v-0.267h-0.133v-0.267h-0.133v-0.133h-0.133v-0.267h-0.133v-0.267h-0.133v-0.267h-0.133v-0.133h-0.133v-0.267h-0.133v-0.267h-0.133v-0.133h-0.133v-0.267h-0.133v-0.267h-0.133v-0.267h-0.133v-0.267h-0.133v-0.267h-0.133v-0.133h-0.133v-0.267h-0.133v-0.267h-0.133v-0.267h-0.133v-0.267h-0.133v-0.267h-0.133v-0.267h-0.133v-0.267h-0.133v-0.133h-0.133v-0.267h-0.133v-0.267h-0.133v-0.267h-0.133v-0.267h-0.133v-0.267h-0.133v-0.267h-0.133v-0.267h-0.133v-0.267h-0.133v-0.133h-0.133v-0.267h-0.133v-0.4h-0.133v-0.267h-0.133v-0.267h-0.133v-0.267h-0.133v-0.267h-0.133v-0.267h-0.133v-0.267h-0.133v-0.267h-0.133v-0.267h-0.133v-0.267h-0.133v-0.267h-0.133v-0.267h-0.133v-0.4h-0.133v-0.267h-0.133v-0.267h-0.133v-0.267h-0.133v-0.267h-0.133v-0.267h-0.133v-0.267h-0.133v-0.267h-0.133v-0.4h-0.133v-0.267h-0.133v-0.267h-0.133v-0.4h-0.133v-0.267h-0.133v-0.267h-0.133v-0.4h-0.133v-0.267h-0.133v-0.267h-0.133v-0.4h-0.133v-0.267h-0.133v-0.267h-0.133v-0.4h-0.133v-0.267h-0.133v-0.267h-0.133v-0.4h-0.133v-0.267h-0.133v-0.267h-0.133v-0.4h-0.133v-0.267h-0.133v-0.4h-0.133v-0.4h-0.133v-0.267h-0.133v-0.4h-0.133v-0.4h-0.133v-0.267h-0.133v-0.4h-0.133v-0.4h-0.133v-0.267h-0.133v-0.4h-0.133v-0.4h-0.133v-0.267h-0.133v-0.4h-0.133v-0.4h-0.133v-0.267h-0.133v-0.4h-0.133v-0.4h-0.133v-0.4h-0.133v-0.4h-0.133v-0.4h-0.133v-0.4h-0.133v-0.4h-0.133v-0.4h-0.133v-0.534h-0.133v-0.4h-0.133v-0.4h-0.133v-0.4h-0.133v-0.4h-0.133v-0.4h-0.133v-0.4h-0.133v-0.534h-0.133v-0.4h-0.133v-0.534h-0.133v-0.4h-0.133v-0.534h-0.133v-0.534h-0.133v-0.4h-0.133v-0.534h-0.133v-0.4h-0.133v-0.534h-0.133v-0.534h-0.133v-0.4h-0.133v-0.534h-0.133v-0.534h-0.133v-0.667h-0.133v-0.534h-0.133v-0.534h-0.133v-0.534h-0.133v-0.534h-0.133v-0.667h-0.133v-0.534h-0.133v-0.667h-0.133v-0.667h-0.133v-0.667h-0.133v-0.667h-0.133v-0.667h-0.133v-0.667h-0.133v-0.667h-0.133v-0.667h-0.133v-0.667h-0.133v-0.667h-0.133v-0.667h-0.133v-0.801h-0.133v-0.667h-0.133v-0.667h-0.133v-0.801h-0.133v-0.667h-0.133v-0.801h-0.133v-0.667h-0.133v-0.667h-0.133v-0.801h-0.133v-0.801h-0.133v-0.667h-0.133v-0.801h-0.133v-0.801h-0.133v-0.801h-0.133v-0.801h-0.133v-0.801h-0.133v-0.801h-0.133v-0.934h-0.133v-0.934h-0.133v-0.801h-0.133v-0.934h-0.133v-0.934h-0.133v-0.934h-0.133v-1.07h-0.133v-1.07h-0.133v-1.07h-0.133v-1.07h-0.133v-1.07h-0.133v-1.33h-0.133v-1.47h-0.133v-1.33h-0.133v-1.6h-0.133v-2.14h-0.133v-2.14h-0.133v-10.8h0.133v-2.14h0.133v-1.87h0.133v-1.2h0.133v-1.2h0.133v-1.2h0.133v-1.07h0.133v-0.801h0.133v-0.801h0.133v-0.801h0.133v-0.801h0.133v-0.801h0.133v-0.534h0.133v-0.667h0.133v-0.667h0.133v-0.534h0.133v-0.667h0.133v-0.534h0.133v-0.667h0.133v-0.4h0.133v-0.534h0.133v-0.534h0.133v-0.4h0.133v-0.534h0.133v-0.4h0.133v-0.534h0.133v-0.4h0.133v-0.534h0.133v-0.4h0.133v-0.4h0.133v-0.4h0.133v-0.4h0.133v-0.4h0.133v-0.4h0.133v-0.4h0.133v-0.4h0.133v-0.4h0.133v-0.267h0.133v-0.4h0.133v-0.4h0.133v-0.267h0.133v-0.4h0.133v-0.267h0.133v-0.4h0.133v-0.267h0.133v-0.4h0.133v-0.267h0.133v-0.4h0.133v-0.267h0.133v-0.4h0.133v-0.267h0.133v-0.4h0.133v-0.267h0.133v-0.267h0.133v-0.267h0.133v-0.267h0.133v-0.267h0.133v-0.4h0.133v-0.267h0.133v-0.267h0.133v-0.267h0.133v-0.267h0.133v-0.267h0.133v-0.267h0.133v-0.267h0.133v-0.4h0.133v-0.267h0.133v-0.267h0.133v-0.267h0.133v-0.133h0.133v-0.267h0.133v-0.267h0.133v-0.267h0.133v-0.267h0.133v-0.267h0.133v-0.267h0.133v-0.267h0.133v-0.133h0.133v-0.267h0.133v-0.267h0.133v-0.267h0.133v-0.267h0.133v-0.267h0.133v-0.267h0.133v-0.133h0.133v-0.267h0.133v-0.267h0.133v-0.133h0.133v-0.267h0.133v-0.267h0.133v-0.267h0.133v-0.133h0.133v-0.267h0.133v-0.267h0.133v-0.133h0.133v-0.267h0.133v-0.267h0.133v-0.133h0.133v-0.267h0.133v-0.267h0.133v-0.133h0.133v-0.267h0.133v-0.267h0.133v-0.133h0.133v-0.267h0.133v-0.133h0.133v-0.267h0.133v-0.133h0.133v-0.267h0.133v-0.133h0.133v-0.267h0.133v-0.133h0.133v-0.267h0.133v-0.133h0.133v-0.267h0.133v-0.133h0.133v-0.267h0.133v-0.133h0.133v-0.267h0.133v-0.133h0.133v-0.267h0.133v-0.133h0.133v-0.267h0.133v-0.133h0.133v-0.267h0.133v-0.133h0.133v-0.267h0.133v-0.133h0.133v-0.267h0.133v-0.133h0.133v-0.133h0.133v-0.267h0.133v-0.133h0.133v-0.133h0.133v-0.267h0.133v-0.133h0.133v-0.133h0.133v-0.267h0.133v-0.133h0.133v-0.267h0.133v-0.133h0.133v-0.133h0.133v-0.267h0.133v-0.133h0.133v-0.133h0.133v-0.267h0.133v-0.133h0.133v-0.267h0.133v-0.133h0.133v-0.133h0.133v-0.267h0.133v-0.133h0.133v-0.133h0.133v-0.133h0.133v-0.267h0.133v-0.133h0.133v-0.133h0.133v-0.267h0.133v-0.133h0.133v-0.133h0.133v-0.133h0.133v-0.267h0.133v-0.133h0.133v-0.133h0.133v-0.133h0.133v-0.267h0.133v-0.133h0.133v-0.133h0.133v-0.133h0.133v-0.267h0.133v-0.133h0.133v-0.133h0.133v-0.267h0.133v-0.133h0.133v-0.133h0.133v-0.133h0.133v-0.267h0.133v-0.133h0.133v-0.133h0.133v-0.133h0.133v-0.133h0.133v-0.267h0.133v-0.133h0.133v-0.133h0.133v-0.133h0.133v-0.133h0.133v-0.133h0.133v-0.267h0.133v-0.133h0.133v-0.133h0.133v-0.133h0.133v-0.133h0.133v-0.133h0.133v-0.267h0.133v-0.133h0.133v-0.133h0.133v-0.133h0.133v-0.133h0.133v-0.267h0.133v-0.133h0.133v-0.133h0.133v-0.133h0.133v-0.133h0.133v-0.133h0.133v-0.267h0.133v-0.133h0.133v-0.133h0.133v-0.133h0.133v-0.133h0.133v-0.133h0.133v-0.133h0.133v-0.267h0.133v-0.133h0.133v-0.133h0.133v-0.133h0.133v-0.133h0.133v-0.133h0.133v-0.133h0.133v-0.133h0.133v-0.133h0.133v-0.267h0.133v-0.133h0.133v-0.133h0.133v-0.133h0.133v-0.133h0.133v-0.133h0.133v-0.133h0.133v-0.133h0.133v-0.133h0.133v-0.267h0.133v-0.133h0.133v-0.133h0.133v-0.133h0.133v-0.133h0.133v-0.133h0.133v-0.133h0.133v-0.133h0.133v-0.133h0.133v-0.133h0.133v-0.133h0.133v-0.133h0.133v-0.133h0.133v-0.133h0.133v-0.267h0.133v-0.133h0.133v-0.133h0.133v-0.133h0.133v-0.133h0.133v-0.133h0.133v-0.133h0.133v-0.133h0.133v-0.133h0.133v-0.133h0.133v-0.133h0.133v-0.133h0.133v-0.133h0.133v-0.133h0.133v-0.133h0.133v-0.133h0.133v-0.133h0.133v-0.133h0.133v-0.133h0.133v-0.133h0.133v-0.133h0.133v-0.133h0.133v-0.133h0.133v-0.133h0.133v-0.133h0.133v-0.133h0.133v-0.133h0.133v-0.133h0.133v-0.133h0.133v-0.133h0.133v-0.133h0.133v-0.133h0.133v-0.133h0.133v-0.133h0.133v-0.133h0.133v-0.133h0.133v-0.133h0.133v-0.133h0.133v-0.133h0.133v-0.133h0.133v-0.133h0.133v-0.133h0.133v-0.133h0.133v-0.133h0.133v-0.133h0.133v-0.133h0.133v-0.133h0.267v-0.133h0.133v-0.133h0.133v-0.133h0.133v-0.133h0.133v-0.133h0.133v-0.133h0.133v-0.133h0.133v-0.133h0.133v-0.133h0.133v-0.133h0.133v-0.133h0.133v-0.133h0.133v-0.133h0.133v-0.133h0.133v-0.133h0.133v-0.133h0.267v-0.133h0.133v-0.133h0.133v-0.133h0.133v-0.133h0.133v-0.133h0.133v-0.133h0.133v-0.133h0.133v-0.133h0.133v-0.133h0.133v-0.133h0.133v-0.133h0.267v-0.133h0.133v-0.133h0.133v-0.133h0.133v-0.133h0.133v-0.133h0.133v-0.133h0.267v-0.133h0.133v-0.133h0.133v-0.133h0.133v-0.133h0.133v-0.133h0.133v-0.133h0.133v-0.133h0.267v-0.133h0.133v-0.133h0.133v-0.133h0.133v-0.133h0.133v-0.133h0.133v-0.133h0.267v-0.133h0.133v-0.133h0.133v-0.133h0.133v-0.133h0.133v-0.133h0.133v-0.133h0.267v-0.133h0.133v-0.133h0.133v-0.133h0.133v-0.133h0.133v-0.133h0.133v-0.133h0.267v-0.133h0.133v-0.133h0.133v-0.133h0.267v-0.133h0.133v-0.133h0.133v-0.133h0.133v-0.133h0.267v-0.133h0.133v-0.133h0.133v-0.133h0.133v-0.133h0.267v-0.133h0.133v-0.133h0.133v-0.133h0.133v-0.133h0.267v-0.133h0.133v-0.133h0.133v-0.133h0.267v-0.133h0.133v-0.133h0.133v-0.133h0.133v-0.133h0.267v-0.133h0.133v-0.133h0.133v-0.133h0.133v-0.133h0.267v-0.133h0.133v-0.133h0.133v-0.133h0.267v-0.133h0.133v-0.133h0.133v-0.133h0.267v-0.133h0.133v-0.133h0.267v-0.133h0.133v-0.133h0.133v-0.133h0.267v-0.133h0.133v-0.133h0.267v-0.133h0.133v-0.133h0.133v-0.133h0.267v-0.133h0.133v-0.133h0.267v-0.133h0.133v-0.133h0.133v-0.133h0.267v-0.133h0.133v-0.133h0.267v-0.133h0.133v-0.133h0.133v-0.133h0.267v-0.133h0.133v-0.133h0.267v-0.133h0.133v-0.133h0.133v-0.133h0.267v-0.133h0.133v-0.133h0.267v-0.133h0.133v-0.133h0.267v-0.133h0.267v-0.133h0.133v-0.133h0.267v-0.133h0.133v-0.133h0.267v-0.133h0.133v-0.133h0.267v-0.133h0.133v-0.133h0.267v-0.133h0.267v-0.133h0.133v-0.133h0.267v-0.133h0.133v-0.133h0.267v-0.133h0.133v-0.133h0.267v-0.133h0.267v-0.133h0.133v-0.133h0.267v-0.133h0.133v-0.133h0.267v-0.133h0.133v-0.133h0.267v-0.133h0.267v-0.133h0.133v-0.133h0.267v-0.133h0.267v-0.133h0.267v-0.133h0.133v-0.133h0.267v-0.133h0.267v-0.133h0.267v-0.133h0.133v-0.133h0.267v-0.133h0.267v-0.133h0.267v-0.133h0.133v-0.133h0.267v-0.133h0.267v-0.133h0.267v-0.133h0.133v-0.133h0.267v-0.133h0.267v-0.133h0.267v-0.133h0.133v-0.133h0.267v-0.133h0.267v-0.133h0.267v-0.133h0.267v-0.133h0.267v-0.133h0.267v-0.133h0.267v-0.133h0.267v-0.133h0.267v-0.133h0.267v-0.133h0.267v-0.133h0.267v-0.133h0.267v-0.133h0.267v-0.133h0.267v-0.133h0.267v-0.133h0.267v-0.133h0.267v-0.133h0.267v-0.133h0.267v-0.133h0.267v-0.133h0.267v-0.133h0.267v-0.133h0.267v-0.133h0.4v-0.133h0.267v-0.133h0.267v-0.133h0.267v-0.133h0.4v-0.133h0.267v-0.133h0.267v-0.133h0.4v-0.133h0.267v-0.133h0.267v-0.133h0.267v-0.133h0.4v-0.133h0.267v-0.133h0.267v-0.133h0.4v-0.133h0.267v-0.133h0.267v-0.133h0.4v-0.133h0.267v-0.133h0.4v-0.133h0.4v-0.133h0.267v-0.133h0.4v-0.133h0.4v-0.133h0.4v-0.133h0.267v-0.133h0.4v-0.133h0.4v-0.133h0.267v-0.133h0.4v-0.133h0.4v-0.133h0.267v-0.133h0.4v-0.133h0.4v-0.133h0.4v-0.133h0.4v-0.133h0.534v-0.133h0.4v-0.133h0.4v-0.133h0.4v-0.133h0.4v-0.133h0.534v-0.133h0.4v-0.133h0.4v-0.133h0.4v-0.133h0.4v-0.133h0.534v-0.133h0.534v-0.133h0.534v-0.133h0.534v-0.133h0.534v-0.133h0.534v-0.133h0.4v-0.133h0.534v-0.133h0.534v-0.133h0.534v-0.133h0.534v-0.133h0.534v-0.133h0.667v-0.133h0.801v-0.133h0.667v-0.133h0.667v-0.133h0.667v-0.133h0.667v-0.133h0.667v-0.133h0.801v-0.133h0.667v-0.133h1.07v-0.133h0.934v-0.133h0.934v-0.133h1.07v-0.133h0.934v-0.133h1.07v-0.133h1.6v-0.133h1.74v-0.133h1.6v-0.133h2.4v-0.133h9.21v0.133h3.34v0.133h1.87v0.133h1.47v0.133h1.33v0.133h1.33v0.133h0.934v0.133h1.07v0.133h1.07v0.133h1.07v0.133h0.934v0.133h0.801v0.133h0.801v0.133h0.801v0.133h0.667v0.133h0.801v0.133h0.801v0.133h0.801v0.133h0.667v0.133h0.667v0.133h0.534v0.133h0.667v0.133h0.667v0.133h0.534v0.133h0.667v0.133h0.534v0.133h0.667v0.133h0.534v0.133h0.667v0.133h0.534v0.133h0.4v0.133h0.534v0.133h0.534v0.133h0.534v0.133h0.534v0.133h0.4v0.133h0.534v0.133h0.534v0.133h0.534v0.133h0.534v0.133h0.4v0.133h0.4v0.133h0.534v0.133h0.4v0.133h0.4v0.133h0.534v0.133h0.4v0.133h0.4v0.133h0.4v0.133h0.534v0.133h0.4v0.133h0.4v0.133h0.534v0.133h0.4v0.133h0.4v0.133h0.4v0.133h0.4v0.133h0.267v0.133h0.4v0.133h0.4v0.133h0.4v0.133h0.4v0.133h0.4v0.133h0.4v0.133h0.4v0.133h0.4v0.133h0.267v0.133h0.4v0.133h0.4v0.133h0.4v0.133h0.4v0.133h0.267v0.133h0.4v0.133h0.267v0.133h0.4v0.133h0.4v0.133h0.267v0.133h0.4v0.133h0.267v0.133h0.4v0.133h0.267v0.133h0.4v0.133h0.4v0.133h0.267v0.133h0.4v0.133h0.267v0.133h0.4v0.133h0.267v0.133h0.4v0.133h0.267v0.133h0.267v0.133h0.4v0.133h0.267v0.133h0.267v0.133h0.4v0.133h0.267v0.133h0.267v0.133h0.4v0.133h0.267v0.133h0.267v0.133h0.4v0.133h0.267v0.133h0.267v0.133h0.4v0.133h0.267v0.133h0.267v0.133h0.4v0.133h0.267v0.133h0.267v0.133h0.267v0.133h0.267v0.133h0.267v0.133h0.4v0.133h0.267v0.133h0.267v0.133h0.267v0.133h0.267v0.133h0.267v0.133h0.267v0.133h0.4v0.133h0.267v0.133h0.267v0.133h0.267v0.133h0.267v0.133h0.267v0.133h0.267v0.133h0.4v0.133h0.267v0.133h0.267v0.133h0.267v0.133h0.267v0.133h0.267v0.133h0.267v0.133h0.267v0.133h0.267v0.133h0.267v0.133h0.267v0.133h0.267v0.133h0.133v0.133h0.267v0.133h0.267v0.133h0.267v0.133h0.267v0.133h0.267v0.133h0.267v0.133h0.267v0.133h0.267v0.133h0.267v0.133h0.267v0.133h0.267v0.133h0.267v0.133h0.267v0.133h0.267v0.133h0.267v0.133h0.267v0.133h0.133v0.133h0.267v0.133h0.267v0.133h0.267v0.133h0.267v0.133h0.267v0.133h0.133v0.133h0.267v0.133h0.267v0.133h0.267v0.133h0.267v0.133h0.267v0.133h0.133v0.133h0.267v0.133h0.267v0.133h0.267v0.133h0.267v0.133h0.267v0.133h0.133v0.133h0.267v0.133h0.267v0.133h0.267v0.133h0.267v0.133h0.133v0.133h0.267v0.133h0.267v0.133h0.267v0.133h0.133v0.133h0.267v0.133h0.267v0.133h0.133v0.133h0.267v0.133h0.267v0.133h0.133v0.133h0.267v0.133h0.267v0.133h0.267v0.133h0.133v0.133h0.267v0.133h0.267v0.133h0.133v0.133h0.267v0.133h0.267v0.133h0.267v0.133h0.133v0.133h0.267v0.133h0.267v0.133h0.133v0.133h0.267v0.133h0.267v0.133h0.133v0.133h0.267v0.133h0.267v0.133h0.133v0.133h0.267v0.133h0.267v0.133h0.133v0.133h0.267v0.133h0.133v0.133h0.267v0.133h0.267v0.133h0.133v0.133h0.267v0.133h0.133v0.133h0.267v0.133h0.267v0.133h0.133v0.133h0.267v0.133h0.133v0.133h0.267v0.133h0.267v0.133h0.133v0.133h0.267v0.133h0.133v0.133h0.267v0.133h0.267v0.133h0.133v0.133h0.267v0.133h0.133v0.133h0.267v0.133h0.267v0.133h0.133v0.133h0.267v0.133h0.133v0.133h0.267v0.133h0.133v0.133h0.267v0.133h0.133v0.133h0.267v0.133h0.133v0.133h0.267v0.133h0.133v0.133h0.267v0.133h0.133v0.133h0.267v0.133h0.133v0.133h0.267v0.133h0.133v0.133h0.267v0.133h0.133v0.133h0.267v0.133h0.133v0.133h0.267v0.133h0.133v0.133h0.267v0.133h0.133v0.133h0.267v0.133h0.133v0.133h0.267v0.133h0.133v0.133h0.267v0.133h0.133v0.133h0.267v0.133h0.133v0.133h0.267v0.133h0.133v0.133h0.267v0.133h0.133v0.133h0.133v0.133h0.267v0.133h0.133v0.133h0.267v0.133h0.133v0.133h0.267v0.133h0.133v0.133h0.267v0.133h0.133v0.133h0.133v0.133h0.267v0.133h0.133v0.133h0.267v0.133h0.133v0.133h0.267v0.133h0.133v0.133h0.133v0.133h0.267v0.133h0.133v0.133h0.267v0.133h0.133v0.133h0.267v0.133h0.133v0.133h0.133v0.133h0.267v0.133h0.133v0.133h0.267v0.133h0.133v0.133h0.133v0.133h0.267v0.133h0.133v0.133h0.133v0.133h0.267v0.133h0.133v0.133h0.267v0.133h0.133v0.133h0.133v0.133h0.133v0.133h0.267v0.133h0.133v0.133h0.133v0.133h0.267v0.133h0.133v0.133h0.133v0.133h0.267v0.133h0.133v0.133h0.133v0.133h0.133v0.133h0.267v0.133h0.133v0.133h0.133v0.133h0.267v0.133h0.133v0.133h0.133v0.133h0.133v0.133h0.267v0.133h0.133v0.133h0.133v0.133h0.133v0.133h0.267v0.133h0.133v0.133h0.133v0.133h0.133v0.133h0.133v0.133h0.133v0.133h0.267v0.133h0.133v0.133h0.133v0.133h0.133v0.133h0.133v0.133h0.267v0.133h0.133v0.133h0.133v0.133h0.133v0.133h0.133v0.133h0.133v0.133h0.267v0.133h0.133v0.133h0.133v0.133h0.133v0.133h0.133v0.133h0.267v0.133h0.133v0.133h0.133v0.133h0.133v0.133h0.133v0.133h0.133v0.133h0.133v0.133h0.267v0.133h0.133v0.133h0.133v0.133h0.133v0.133h0.133v0.133h0.133v0.133h0.133v0.133h0.133v0.133h0.133v0.133h0.133v0.133h0.133v0.133h0.133v0.133h0.133v0.133h0.133v0.133h0.133v0.133h0.133v0.133h0.133v0.133h0.267v0.133h0.133v0.133h0.133v0.133h0.133v0.133h0.133v0.133h0.133v0.133h0.133v0.133h0.133v0.133h0.133v0.133h0.133v0.133h0.133v0.133h0.133v0.133h0.133v0.133h0.133v0.133h0.133v0.133h0.133v0.133h0.133v0.133h0.133v0.133h0.133v0.133h0.133v0.133h0.133v0.133h0.133v0.133h0.133v0.133h0.133v0.133h0.133v0.133h0.133v0.133h0.133v0.267h0.133v0.133h0.133v0.133h0.133v0.133h0.133v0.133h0.133v0.133h0.133v0.133h0.133v0.133h0.133v0.133h0.133v0.133h0.133v0.133h0.133v0.133h0.133v0.133h0.133v0.133h0.133v0.133h0.133v0.133h0.133v0.133h0.133v0.267h0.133v0.133h0.133v0.133h0.133v0.133h0.133v0.133h0.133v0.133h0.133v0.267h0.133v0.133h0.133v0.133h0.133v0.133h0.133v0.133h0.133v0.267h0.133v0.133h0.133v0.133h0.133v0.133h0.133v0.133h0.133v0.267h0.133v0.133h0.133v0.133h0.133v0.133h0.133v0.133h0.133v0.133h0.133v0.267h0.133v0.133h0.133v0.133h0.133v0.133h0.133v0.133h0.133v0.267h0.133v0.133h0.133v0.133h0.133v0.133h0.133v0.267h0.133v0.133h0.133v0.133h0.133v0.267h0.133v0.133h0.133v0.133h0.133v0.267h0.133v0.133h0.133v0.133h0.133v0.267h0.133v0.133h0.133v0.133h0.133v0.267h0.133v0.133h0.133v0.133h0.133v0.267h0.133v0.133h0.133v0.133h0.133v0.267h0.133v0.133h0.133v0.267h0.133v0.133h0.133v0.133h0.133v0.267h0.133v0.133h0.133v0.133h0.133v0.267h0.133v0.133h0.133v0.267h0.133v0.133h0.133v0.267h0.133v0.133h0.133v0.267h0.133v0.133h0.133v0.267h0.133v0.267h0.133v0.133h0.133v0.267h0.133v0.133h0.133v0.267h0.133v0.133h0.133v0.267h0.133v0.133h0.133v0.267h0.133v0.133h0.133v0.267h0.133v0.133h0.133v0.267h0.133v0.133h0.133v0.267h0.133v0.267h0.133v0.267h0.133v0.133h0.133v0.267h0.133v0.267h0.133v0.267h0.133v0.133h0.133v0.267h0.133v0.267h0.133v0.267h0.133v0.133h0.133v0.267h0.133v0.267h0.133v0.267h0.133v0.133h0.133v0.267h0.133v0.267h0.133v0.267h0.133v0.133h0.133v0.267h0.133v0.267h0.133v0.267h0.133v0.267h0.133v0.267h0.133v0.267h0.133v0.267h0.133v0.267h0.133v0.267h0.133v0.267h0.133v0.267h0.133v0.267h0.133v0.267h0.133v0.267h0.133v0.267h0.133v0.267h0.133v0.267h0.133v0.267h0.133v0.267h0.133v0.267h0.133v0.267h0.133v0.4h0.133v0.267h0.133v0.267h0.133v0.4h0.133v0.267h0.133v0.4h0.133v0.267h0.133v0.267h0.133v0.4h0.133v0.267h0.133v0.4h0.133v0.267h0.133v0.4h0.133v0.267h0.133v0.267h0.133v0.4h0.133v0.267h0.133v0.4h0.133v0.4h0.133v0.4h0.133v0.4h0.133v0.4h0.133v0.267h0.133v0.4h0.133v0.4h0.133v0.4h0.133v0.4h0.133v0.4h0.133v0.4h0.133v0.4h0.133v0.4h0.133v0.4h0.133v0.534h0.133v0.4h0.133v0.534h0.133v0.534h0.133v0.4h0.133v0.534h0.133v0.4h0.133v0.534h0.133v0.534h0.133v0.4h0.133v0.534h0.133v0.667h0.133v0.534h0.133v0.667h0.133v0.667h0.133v0.667h0.133v0.534h0.133v0.667h0.133v0.667h0.133v0.667h0.133v0.801h0.133v0.934h0.133v0.934h0.133v0.801h0.133v0.934h0.133v0.801h0.133v1.33h0.133v1.47h0.133v1.47h0.133v1.47h0.133v2.54h0.133v9.34h-0.133v2h-0.133v2.14h-0.133v1.47h-0.133v1.2h-0.133v1.2h-0.133v1.33h-0.133v1.07h-0.133v0.801h-0.133v0.934h-0.133v0.801h-0.133v0.934h-0.133v0.801h-0.133v0.801h-0.133v0.667h-0.133v0.667h-0.133v0.667h-0.133v0.667h-0.133v0.667h-0.133v0.667h-0.133v0.667h-0.133v0.667h-0.133v0.534h-0.133v0.534h-0.133v0.534h-0.133v0.534h-0.133v0.667h-0.133v0.534h-0.133v0.534h-0.133v0.534h-0.133v0.534h-0.133v0.4h-0.133v0.534h-0.133v0.534h-0.133v0.4h-0.133v0.534h-0.133v0.4h-0.133v0.534h-0.133v0.4h-0.133v0.534h-0.133v0.4h-0.133v0.534h-0.133v0.4h-0.133v0.4h-0.133v0.4h-0.133v0.4h-0.133v0.4h-0.133v0.534h-0.133v0.4h-0.133v0.4h-0.133v0.4h-0.133v0.4h-0.133v0.4h-0.133v0.4h-0.133v0.4h-0.133v0.4h-0.133v0.4h-0.133v0.267h-0.133v0.4h-0.133v0.4h-0.133v0.267h-0.133v0.4h-0.133v0.4h-0.133v0.4h-0.133v0.267h-0.133v0.4h-0.133v0.267h-0.133v0.4h-0.133v0.267h-0.133v0.4h-0.133v0.267h-0.133v0.4h-0.133v0.267h-0.133v0.4h-0.133v0.267h-0.133v0.4h-0.133v0.4h-0.133v0.267h-0.133v0.267h-0.133v0.4h-0.133v0.267h-0.133v0.267h-0.133v0.4h-0.133v0.267h-0.133v0.267h-0.133v0.4h-0.133v0.267h-0.133v0.267h-0.133v0.267h-0.133v0.4h-0.133v0.267h-0.133v0.267h-0.133v0.267h-0.133v0.4h-0.133v0.267h-0.133v0.267h-0.133v0.267h-0.133v0.267h-0.133v0.267h-0.133v0.267h-0.133v0.4h-0.133v0.267h-0.133v0.267h-0.133v0.267h-0.133v0.267h-0.133v0.267h-0.133v0.267h-0.133v0.267h-0.133v0.267h-0.133v0.267h-0.133v0.267h-0.133v0.267h-0.133v0.267h-0.133v0.267h-0.133v0.267h-0.133v0.267h-0.133v0.267h-0.133v0.267h-0.133v0.267h-0.133v0.267h-0.133v0.267h-0.133v0.267h-0.133v0.267h-0.133v0.267h-0.133v0.133h-0.133v0.267h-0.133v0.267h-0.133v0.267h-0.133v0.267h-0.133v0.267h-0.133v0.267h-0.133v0.133h-0.133v0.267h-0.133v0.267h-0.133v0.267h-0.133v0.267h-0.133v0.267h-0.133v0.133h-0.133v0.267h-0.133v0.267h-0.133v0.267h-0.133v0.133h-0.133v0.267h-0.133v0.267h-0.133v0.267h-0.133v0.133h-0.133v0.267h-0.133v0.267h-0.133v0.267h-0.133v0.133h-0.133v0.267h-0.133v0.267h-0.133v0.133h-0.133v0.267h-0.133v0.267h-0.133v0.267h-0.133v0.133h-0.133v0.267h-0.133v0.267h-0.133v0.133h-0.133v0.267h-0.133v0.133h-0.133v0.267h-0.133v0.267h-0.133v0.133h-0.133v0.267h-0.133v0.267h-0.133v0.133h-0.133v0.267h-0.133v0.133h-0.133v0.267h-0.133v0.267h-0.133v0.133h-0.133v0.267h-0.133v0.267h-0.133v0.133h-0.133v0.267h-0.133v0.133h-0.133v0.267h-0.133v0.133h-0.133v0.267h-0.133v0.133h-0.133v0.267h-0.133v0.133h-0.133v0.267h-0.133v0.133h-0.133v0.267h-0.133v0.133h-0.133v0.267h-0.133v0.267h-0.133v0.133h-0.133v0.267h-0.133v0.133h-0.133v0.267h-0.133v0.133h-0.133v0.133h-0.133v0.267h-0.133v0.133h-0.133v0.267h-0.133v0.133h-0.133v0.267h-0.133v0.133h-0.133v0.267h-0.133v0.133h-0.133v0.267h-0.133v0.133h-0.133v0.133h-0.133v0.267h-0.133v0.133h-0.133v0.267h-0.133v0.133h-0.133v0.267h-0.133v0.133h-0.133v0.267h-0.133v0.133h-0.133v0.133h-0.133v0.267h-0.133v0.133h-0.133v0.133h-0.133v0.267h-0.133v0.133h-0.133v0.133h-0.133v0.267h-0.133v0.133h-0.133v0.267h-0.133v0.133h-0.133v0.133h-0.133v0.267h-0.133v0.133h-0.133v0.133h-0.133v0.267h-0.133v0.133h-0.133v0.267h-0.133v0.133h-0.133v0.133h-0.133v0.267h-0.133v0.133h-0.133v0.133h-0.133v0.133h-0.133v0.267h-0.133v0.133h-0.133v0.133h-0.133v0.267h-0.133v0.133h-0.133v0.133h-0.133v0.267h-0.133v0.133h-0.133v0.133h-0.133v0.133h-0.133v0.267h-0.133v0.133h-0.133v0.133h-0.133v0.267h-0.133v0.133h-0.133v0.133h-0.133v0.267h-0.133v0.133h-0.133v0.133h-0.133v0.133h-0.133v0.133h-0.133v0.267h-0.133v0.133h-0.133v0.133h-0.133v0.133h-0.133v0.267h-0.133v0.133h-0.133v0.133h-0.133v0.133h-0.133v0.267h-0.133v0.133h-0.133v0.133h-0.133v0.133h-0.133v0.133h-0.133v0.267h-0.133v0.133h-0.133v0.133h-0.133v0.133h-0.133v0.267h-0.133v0.133h-0.133v0.133h-0.133v0.133h-0.133v0.133h-0.133v0.133h-0.133v0.267h-0.133v0.133h-0.133v0.133h-0.133v0.133h-0.133v0.133h-0.133v0.267h-0.133v0.133h-0.133v0.133h-0.133v0.133h-0.133v0.133h-0.133v0.133h-0.133v0.267h-0.133v0.133h-0.133v0.133h-0.133v0.133h-0.133v0.133h-0.133v0.133h-0.133v0.267h-0.133v0.133h-0.133v0.133h-0.133v0.133h-0.133v0.133h-0.133v0.133h-0.133v0.133h-0.133v0.133h-0.133v0.133h-0.133v0.267h-0.133v0.133h-0.133v0.133h-0.133v0.133h-0.133v0.133h-0.133v0.133h-0.133v0.133h-0.133v0.133h-0.133v0.133h-0.133v0.267h-0.133v0.133h-0.133v0.133h-0.133v0.133h-0.133v0.133h-0.133v0.133h-0.133v0.133h-0.133v0.133h-0.133v0.133h-0.133v0.133h-0.133v0.133h-0.133v0.133h-0.133v0.267h-0.133v0.133h-0.133v0.133h-0.133v0.133h-0.133v0.133h-0.133v0.133h-0.133v0.133h-0.133v0.133h-0.133v0.133h-0.133v0.133h-0.133v0.133h-0.133v0.133h-0.133v0.133h-0.133v0.133h-0.133v0.133h-0.133v0.133h-0.133v0.133h-0.133v0.133h-0.133v0.133h-0.133v0.133h-0.133v0.267h-0.133v0.133h-0.133v0.133h-0.133v0.133h-0.133v0.133h-0.133v0.133h-0.133v0.133h-0.133v0.133h-0.133v0.133h-0.133v0.133h-0.133v0.133h-0.133v0.133h-0.133v0.133h-0.133v0.133h-0.133v0.133h-0.133v0.133h-0.133v0.133h-0.133v0.133h-0.133v0.133h-0.133v0.133h-0.133v0.133h-0.133v0.133h-0.133v0.133h-0.133v0.133h-0.133v0.133h-0.267v0.133h-0.133v0.133h-0.133v0.133h-0.133v0.133h-0.133v0.133h-0.133v0.133h-0.133v0.133h-0.133v0.133h-0.133v0.133h-0.133v0.133h-0.133v0.133h-0.133v0.133h-0.133v0.133h-0.133v0.133h-0.133v0.133h-0.133v0.133h-0.133v0.133h-0.133v0.133h-0.133v0.133h-0.133v0.133h-0.133v0.133h-0.267v0.133h-0.133v0.133h-0.133v0.133h-0.133v0.133h-0.133v0.133h-0.133v0.133h-0.133v0.133h-0.133v0.133h-0.133v0.133h-0.133v0.133h-0.267v0.133h-0.133v0.133h-0.133v0.133h-0.133v0.133h-0.133v0.133h-0.133v0.133h-0.133v0.133h-0.133v0.133h-0.133v0.133h-0.133v0.133h-0.267v0.133h-0.133v0.133h-0.133v0.133h-0.133v0.133h-0.133v0.133h-0.133v0.133h-0.133v0.133h-0.267v0.133h-0.133v0.133h-0.133v0.133h-0.133v0.133h-0.133v0.133h-0.133v0.133h-0.133v0.133h-0.267v0.133h-0.133v0.133h-0.133v0.133h-0.133v0.133h-0.133v0.133h-0.133v0.133h-0.267v0.133h-0.133v0.133h-0.133v0.133h-0.133v0.133h-0.133v0.133h-0.133v0.133h-0.267v0.133h-0.133v0.133h-0.133v0.133h-0.133v0.133h-0.267v0.133h-0.133v0.133h-0.133v0.133h-0.133v0.133h-0.133v0.133h-0.267v0.133h-0.133v0.133h-0.133v0.133h-0.133v0.133h-0.267v0.133h-0.133v0.133h-0.133v0.133h-0.133v0.133h-0.133v0.133h-0.267v0.133h-0.133v0.133h-0.133v0.133h-0.133v0.133h-0.267v0.133h-0.133v0.133h-0.133v0.133h-0.267v0.133h-0.133v0.133h-0.133v0.133h-0.133v0.133h-0.267v0.133h-0.133v0.133h-0.133v0.133h-0.267v0.133h-0.133v0.133h-0.133v0.133h-0.133v0.133h-0.267v0.133h-0.133v0.133h-0.133v0.133h-0.267v0.133h-0.133v0.133h-0.133v0.133h-0.267v0.133h-0.133v0.133h-0.133v0.133h-0.267v0.133h-0.133v0.133h-0.133v0.133h-0.267v0.133h-0.133v0.133h-0.133v0.133h-0.267v0.133h-0.133v0.133h-0.267v0.133h-0.133v0.133h-0.133v0.133h-0.267v0.133h-0.133v0.133h-0.133v0.133h-0.267v0.133h-0.133v0.133h-0.267v0.133h-0.133v0.133h-0.133v0.133h-0.267v0.133h-0.133v0.133h-0.267v0.133h-0.133v0.133h-0.267v0.133h-0.133v0.133h-0.267v0.133h-0.133v0.133h-0.133v0.133h-0.267v0.133h-0.133v0.133h-0.267v0.133h-0.133v0.133h-0.267v0.133h-0.133v0.133h-0.267v0.133h-0.133v0.133h-0.267v0.133h-0.133v0.133h-0.267v0.133h-0.133v0.133h-0.267v0.133h-0.133v0.133h-0.267v0.133h-0.133v0.133h-0.267v0.133h-0.133v0.133h-0.267v0.133h-0.267v0.133h-0.133v0.133h-0.267v0.133h-0.133v0.133h-0.267v0.133h-0.133v0.133h-0.267v0.133h-0.133v0.133h-0.267v0.133h-0.267v0.133h-0.133v0.133h-0.267v0.133h-0.267v0.133h-0.133v0.133h-0.267v0.133h-0.267v0.133h-0.133v0.133h-0.267v0.133h-0.133v0.133h-0.267v0.133h-0.267v0.133h-0.133v0.133h-0.267v0.133h-0.267v0.133h-0.133v0.133h-0.267v0.133h-0.267v0.133h-0.267v0.133h-0.133v0.133h-0.267v0.133h-0.267v0.133h-0.267v0.133h-0.133v0.133h-0.267v0.133h-0.267v0.133h-0.267v0.133h-0.133v0.133h-0.267v0.133h-0.267v0.133h-0.267v0.133h-0.267v0.133h-0.133v0.133h-0.267v0.133h-0.267v0.133h-0.267v0.133h-0.267v0.133h-0.267v0.133h-0.267v0.133h-0.267v0.133h-0.267v0.133h-0.267v0.133h-0.133v0.133h-0.267v0.133h-0.267v0.133h-0.267v0.133h-0.267v0.133h-0.267v0.133h-0.267v0.133h-0.267v0.133h-0.267v0.133h-0.267v0.133h-0.267v0.133h-0.267v0.133h-0.267v0.133h-0.267v0.133h-0.267v0.133h-0.4v0.133h-0.267v0.133h-0.267v0.133h-0.267v0.133h-0.267v0.133h-0.267v0.133h-0.267v0.133h-0.4v0.133h-0.267v0.133h-0.267v0.133h-0.267v0.133h-0.267v0.133h-0.4v0.133h-0.267v0.133h-0.267v0.133h-0.267v0.133h-0.4v0.133h-0.267v0.133h-0.267v0.133h-0.4v0.133h-0.267v0.133h-0.4v0.133h-0.267v0.133h-0.4v0.133h-0.267v0.133h-0.4v0.133h-0.267v0.133h-0.4v0.133h-0.267v0.133h-0.4v0.133h-0.267v0.133h-0.4v0.133h-0.4v0.133h-0.267v0.133h-0.4v0.133h-0.4v0.133h-0.267v0.133h-0.4v0.133h-0.4v0.133h-0.4v0.133h-0.4v0.133h-0.4v0.133h-0.4v0.133h-0.267v0.133h-0.4v0.133h-0.4v0.133h-0.4v0.133h-0.534v0.133h-0.4v0.133h-0.534v0.133h-0.4v0.133h-0.534v0.133h-0.4v0.133h-0.534v0.133h-0.4v0.133h-0.534v0.133h-0.4v0.133h-0.534v0.133h-0.4v0.133h-0.534v0.133h-0.4v0.133h-0.4v0.133h-0.667v0.133h-0.534v0.133h-0.667v0.133h-0.534v0.133h-0.667v0.133h-0.667v0.133h-0.534v0.133h-0.667v0.133h-0.667v0.133h-0.534v0.133h-0.667v0.133h-0.667v0.133h-0.534v0.133h-0.667v0.133h-0.667v0.133h-0.534v0.133h-1.07v0.133h-1.07v0.133h-0.934v0.133h-1.07v0.133h-1.07v0.133h-1.07v0.133h-1.07v0.133h-1.07v0.133h-0.934v0.133h-2.14v0.133h-2.54v0.133" fill="url(#radialGradient32)" stroke-width="1.32"/><g stroke-width="1.32"><path d="m81.2 135h-9.26l-0.0099 0.262c-0.0746 1.8-1.14 17.6-15.2 17.6-12.6 0-19-11.3-19-33.6 0.0125-22.3 6.41-33.6 19-33.6 14.3 0 15.2 16.8 15.2 17.5l0.0099 0.26h9.26c0.856 0 1.69-0.351 2.28-0.961 0.57-0.587 0.865-1.35 0.824-2.14-0.192-4.37-2.43-26.2-27.7-26.2-20.5 0-31.3 15.5-31.3 45 0 29.5 10.8 45.1 31.3 45.1 24.4 0 27.4-19.9 27.7-26 0.0589-0.839-0.229-1.65-0.819-2.27-0.592-0.626-1.43-0.984-2.29-0.984" fill="#fff"/><path d="m225 114 3e-3 3e-3 -7.98-3.48c-7.67-3.37-10.4-6.65-10.4-12.5 0-7.67 5.61-12.8 14-12.8 4.94 0 8.99 1.01 13.9 6.05l0.27 0.276 4.26-3.89c2.47-2.29 1.75-4.35 0.722-5.67-4.15-4.9-10.8-7.59-18.8-7.59-15.4 0-26.5 10-26.5 23.8 0 13.6 8.55 19.2 17.8 23.3l8.14 3.63c8.18 3.67 12.1 6.79 12.1 14.7 0 10.7-9.7 13.6-15.4 13.6-4.93 0-10.4-1.05-17.2-8.69l-0.264-0.3-4.43 3.89c-2.28 2.01-2.3 3.73-0.0774 6.59 6.1 7.85 15.1 9.49 21.5 9.49 13.9 0 28-8.54 28-24.9 0-14.1-7.85-20.4-19.6-25.5" fill="#66cde2"/><path d="m146 100c0-13.9-11.3-25.7-25.2-25.7-6.54 0-12.5 2.49-17 6.58v-4.78h-8.37c-2.52 0-3.48 1.65-3.48 3.54v81.1c0 2.28 1.39 3.5 3.44 3.5h8.37v-63.8c0-8.38 6.8-15.2 15.2-15.2 8.38 0 15.2 6.79 15.2 15.2v63.8h8.32c2.31 0 3.5-1.28 3.5-3.49v-60.8" fill="#66cde2"/><path d="m194 80.8c0.438-0.542 0.706-1.22 0.706-1.97 0-1.4-0.906-2.57-2.16-2.99-2.42-0.811-5-1.26-7.68-1.26-6.54 0-12.5 2.49-17 6.58v-4.78h-8.37c-2.52 0-3.49 1.65-3.49 3.54v81.1c0 2.28 1.4 3.5 3.45 3.5h8.37v-63.8c0-8.38 6.79-15.2 15.2-15.2 2.2 0 4.27 0.476 6.16 1.31l4.84-6.07-0.028-0.0174" fill="#fff"/></g></g></svg>
